<svg id="Capa_1" data-name="Capa 1" xmlns="http://www.w3.org/2000/svg" viewBox="0 0 626 124"><defs><style>.cls-1{fill:#252345;}.cls-2{fill:#282648;}.cls-3{fill:#4b80ab;}.cls-4{fill:#4d81ac;}</style></defs><title>advance_ads</title><g id="advance_ads" data-name="advance ads"><path class="cls-1" d="M31.06,52.07H67.54c-1,4.62-1.27,9,.36,13.86-6.69,0-13.15.11-19.61-.06-2.6-.07-3.43.65-3.37,3.32.16,8.49.12,17,0,25.47,0,2.36.26,3.6,3.15,3.53q13-.28,26,0c2.87.06,3.23-1.17,3.17-3.55-.14-5.15.09-10.32-.1-15.48-.09-2.75.42-4,3.5-3.14a9.08,9.08,0,0,0,4.92.35c6-2,6.29,1.22,6.06,5.87-.49,9.94.57,19.92-.53,29.85q-24,0-48.07-.08c-1.07,0-2.38-.46-3,1H39c-3.56-3-8-5.31-8.13-10.9Z"/><path class="cls-2" d="M609,97c-7.39,10.09-19.5,12.35-30.41,6.09-4.1-2.35-1-4.3-.36-6.44.73-2.51,2-2.86,4.35-1.39A18.14,18.14,0,0,0,594,98.09c1.41-.12,2.67-.6,2.85-2.2a2.58,2.58,0,0,0-2-2.59c-3.1-1.18-6.31-2-9.39-3.28-5.71-2.29-7.88-5.56-7.54-10.93.31-4.78,3.69-8.63,9-10,6.39-1.66,12.51-.52,18.48,2,2,.81,3.39,1.88,1.5,3.87-1.49,1.56-.61,6.09-5,4.2-2.43-1-4.86-2.17-7.57-2.33-1.94-.11-4.49-.82-5.15,1.63-.72,2.64,1.93,3,3.75,3.67a23.46,23.46,0,0,0,2.84.91C602,84.45,607,87.46,609,94Z"/><path class="cls-3" d="M86,47c3.17,1.89,6.85,3,8.56,6.88a11.29,11.29,0,1,1-15-5.33C80.67,48,82.29,48.46,83,47Z"/><path class="cls-4" d="M192.77,72.88c0-5.22.18-9.69-.07-14.14-.18-3.17,1-4.26,4-3.83a6.53,6.53,0,0,0,1,0c8,.11,7-.94,7,6.8.06,13.16-.09,26.32.09,39.48,0,3.47-.57,5.75-4.52,4.74-2.65-.68-7,2.63-7.74-3.1-.08-.63-1.1-.28-1.63.15-6.38,5-13.1,4.66-19.43.39s-7.87-11.3-7.29-18.6C165.3,70.65,179.81,63.2,192.77,72.88ZM184.43,78c-4.76,0-8.23,3.78-8.37,9.24-.15,5.74,3.25,9.82,8.22,9.88s8.5-4.08,8.41-9.72C192.61,81.93,189.19,78,184.43,78Z"/><path class="cls-4" d="M445.65,102.16c-9.28,5.85-18.08,5.34-23.68-.92-6.05-6.77-6.55-19.25-1.06-26.52s13.67-8,24.9-2.3c0-4.64.15-9.07-.05-13.49-.12-2.89.57-4.45,3.81-4a26,26,0,0,0,5,0c2.32-.17,3.26.68,3.24,3.11q-.1,22.49,0,45c0,2.49-1,3.2-3.29,3a27.87,27.87,0,0,0-5.48,0C446.3,106.43,445.61,104.94,445.65,102.16Zm.12-14.56c0-5.38-3.38-9.47-8-9.61-4.93-.15-8.63,3.93-8.64,9.52s3.29,9.44,8,9.59C442.08,97.26,445.72,93.26,445.77,87.6Z"/><path class="cls-1" d="M557.83,102.6c-8.65,5.37-17.2,4.87-22.87-1.18-6.07-6.47-6.74-19.16-1.4-26.47s13.3-8.21,25-2.69c0-4.68.2-9.12-.06-13.53-.19-3.13.87-3.91,3.92-3.89,8,.06,8-.1,8,7.66,0,13.15-.1,26.3.08,39.44,0,3.26-.85,4.7-4.11,4C563.29,105.36,558.85,108.31,557.83,102.6Zm.61-15.3c-.11-5.62-3.39-9.35-8.23-9.33-5,0-8.34,4-8.23,9.85.1,5.61,3.37,9.3,8.24,9.31S558.54,93.18,558.44,87.3Z"/><path class="cls-1" d="M530,106a40.63,40.63,0,0,0-6.34.06c-4.55.71-7.23-.88-8.06-5.52-.48-2.68-2-3.81-4.95-3.53a44.18,44.18,0,0,1-9,0c-5.58-.57-10.16.09-11.17,6.85-.28,1.85-1.57,2.21-3.26,2.16-3.16-.1-6.32,0-10.12,0,2.38-5.52,4.59-10.64,6.79-15.77C488,80.62,492.2,71,496.16,61.36c1.12-2.74,2.59-3.66,5.55-3.62,8.78.1,8.79,0,12.1,7.87,4.89,11.63,9.8,23.26,14.64,34.91C529.13,102.16,530.37,103.67,530,106Zm-33.2-18.13c4.23,0,7.72-.05,11.21,0,1.8,0,2.52-.58,1.84-2.33-1.91-4.9-3.86-9.79-6.09-15.44C501.25,76.41,499.14,81.78,496.75,87.87Z"/><path class="cls-3" d="M164.13,106a43.3,43.3,0,0,0-6.34,0c-4.55.68-7.28-.85-8.11-5.56-.47-2.72-2.23-3.72-5.05-3.47a46.2,46.2,0,0,1-8.48,0c-5.7-.56-10.21-.1-11.78,7-.9,4-5.14,1.73-7.81,1.9-5.35.34-5.39.08-3.23-4.94,5.65-13.13,11.54-26.17,16.85-39.44,2-5,5.69-3.43,9.06-3.65,3-.19,5.49-.39,7,3.56,5.4,13.77,11.35,27.32,17.09,41C163.82,103.43,164.49,104.42,164.13,106ZM130.87,87.88c4,0,7.3,0,10.6,0,1.26,0,3.16.19,2.47-1.89-1.69-5-3.69-9.9-6-16.06C135.29,76.64,133.25,81.84,130.87,87.88Z"/><path class="cls-3" d="M277.77,72.72c-.33-3.19.85-4.2,3.41-3.91a21.35,21.35,0,0,0,5,0c3.19-.39,3.92,1,3.87,4-.17,9.82-.21,19.66,0,29.48.08,3.29-1.28,4.48-4,3.64s-7.2,3-8.46-2.82c-.21-1-1.36,0-2,.39-6.25,4.21-12.66,4-18.7,0-6.34-4.23-7.92-10.92-7.52-18C250.21,70.59,265,63.19,277.77,72.72ZM261.83,87.3c-.08,5.69,3.14,9.59,7.9,9.58,4.49,0,7.91-3.89,8-9.11s-3.41-9.58-8.06-9.58S261.91,81.92,261.83,87.3Z"/><path class="cls-4" d="M309,73.37c5-4,9.85-6.18,15.73-4.56,5.19,1.43,8.44,4.67,9.32,9.92,1.39,8.27.39,16.63.64,24.94.05,1.7-.82,2.15-2.42,2.37-8.7,1.2-9.45.59-9.45-8.33,0-3.83.14-7.67-.05-11.49-.21-4-1.8-7.14-6.52-7.25-4-.09-7.17,2.7-7.39,7.15-.28,5.32-.28,10.66-.08,16,.11,3.05-.86,4-3.94,4-8.07,0-8.07.17-8.07-7.75,0-7.5-.06-15,0-22.49.08-7.92-1.1-6.73,6.84-7C306.55,68.8,309.3,68.65,309,73.37Z"/><path class="cls-4" d="M401.59,90.79c-3.16,0-6.32-.05-9.49,0-1,0-2.53-.6-3,1-.34,1.25.68,2.18,1.43,3,2.61,3,8,3.37,12.51,1,2.69-1.41,7.56.63,8.44,3.48.4,1.32-.6,1.75-1.29,2.38-6.56,6.06-21,6.14-27.87.17s-8.23-17.68-2.91-25.56c5.19-7.69,17.23-10.32,26-5.68,5.84,3.08,9.82,11,9.09,17.72-.22,2-1.21,2.47-3,2.44C408.26,90.75,404.93,90.79,401.59,90.79Zm-6.33-6.64a8.92,8.92,0,0,0,2.48,0c1.67-.5,4.58,1.46,4.88-1.47.26-2.59-1.72-4.66-4.35-5.42a7.38,7.38,0,0,0-6.68.87c-1.69,1.22-3.35,3-3,4.88.47,2.35,3.06.75,4.67,1.16A8.8,8.8,0,0,0,395.26,84.15Z"/><path class="cls-4" d="M359.16,106.28c-10,0-16.78-4.67-19.06-12.58-2.53-8.75.39-17.73,7.21-22.18s17.88-4.09,23.91,1.12c1.32,1.14,5,2.58,2.51,4.62-2.2,1.83-4.77,5.83-8.86,3-3.31-2.32-6.76-3.22-10.12-.57s-4.18,6.63-3.06,10.83c1.68,6.26,7.52,8.32,12.84,4.58,2.18-1.54,9,.15,10,2.51.59,1.39-.58,2.15-1.31,3A17.77,17.77,0,0,1,359.16,106.28Z"/><path class="cls-3" d="M208.83,69.31c12-1.22,12-1.22,15.15,9.51a81.9,81.9,0,0,0,5.41,14.34q3.18-10,6.35-20c1.08-3.41,8.86-6,11.75-4,1.11.8.55,1.81.24,2.65q-6,16.11-12.12,32.2a1.57,1.57,0,0,1-.22.45c-2.8,3.31-6.51.85-9.75,1.49a3,3,0,0,1-3.85-2.12C217.63,92.45,213.29,81.14,208.83,69.31Z"/></g></svg>