<svg id="Layer_1" data-name="Layer 1" xmlns="http://www.w3.org/2000/svg" viewBox="0 0 256 256"><defs><style>.cls-1{fill:#1d2428;}.cls-2{fill:#fff;}</style></defs><title>edd_icon</title><rect id="background" class="cls-1" width="256" height="256"/><g id="EDD_logo" data-name="EDD logo"><path class="cls-2" d="M190.1,65.8A88.12,88.12,0,1,0,215.8,128,87.66,87.66,0,0,0,190.1,65.8Zm-2.9,121.5A84,84,0,1,1,211.7,128,83.42,83.42,0,0,1,187.2,187.3Z"/><path class="cls-2" d="M203.6,127.3a75.6,75.6,0,0,0-151.2,0L87,92.6l11.6,11.6L73.2,129.6H182.6l-25.4-25.4,11.6-11.6Zm-75.6-13L95.7,80.5h21.4V63.8c0-4.3,4.9-7.9,10.8-7.9s10.8,3.5,10.8,7.9V80.5h21.4Z"/><path class="cls-2" d="M137.4,164.7a30.5,30.5,0,0,0-6.5-3,30.6,30.6,0,0,1-4.9-2,8.08,8.08,0,0,1-2.8-2,4,4,0,0,1-.9-2.7,3.41,3.41,0,0,1,.8-2.3,5.82,5.82,0,0,1,2.4-1.8,10.44,10.44,0,0,1,4.3-.7,23.76,23.76,0,0,1,3.9.3,19.84,19.84,0,0,1,3.1.8,16.47,16.47,0,0,1,2.2.9l2-5.9a19.71,19.71,0,0,0-4.5-1.5,37.29,37.29,0,0,0-5.2-.6V138h-5.4v6.4a10.15,10.15,0,0,0-2.5.6,17.23,17.23,0,0,0-5.1,2.4,11.11,11.11,0,0,0-3.2,3.7,10.39,10.39,0,0,0-1.1,4.6,9,9,0,0,0,1.5,5.1,11.47,11.47,0,0,0,4.3,3.8,30.23,30.23,0,0,0,6.5,2.8,22.83,22.83,0,0,1,4.6,1.9,8.21,8.21,0,0,1,2.6,2.1,4.82,4.82,0,0,1-.2,5.6,5.82,5.82,0,0,1-2.8,1.9,11.82,11.82,0,0,1-4.5.7,19.92,19.92,0,0,1-4.2-.4c-1.3-.2-2.6-.6-3.8-.9a18.08,18.08,0,0,1-3.1-1.3l-1.9,6.1a16.31,16.31,0,0,0,3.2,1.3,25,25,0,0,0,4.3.9c1.6.2,3.2.3,4.8.4h.3V192H131v-6.8a10.55,10.55,0,0,0,1.9-.5,14.43,14.43,0,0,0,5.4-2.7,10.41,10.41,0,0,0,4.2-8.6,9.69,9.69,0,0,0-1.3-5.1A13.25,13.25,0,0,0,137.4,164.7Z"/></g></svg>