<svg id="Capa_1" data-name="Capa 1" xmlns="http://www.w3.org/2000/svg" viewBox="0 0 300 150"><defs><style>.cls-1,.cls-2{fill:#6f7684;}.cls-2{opacity:0.41;}</style></defs><title>email</title><path class="cls-1" d="M203.56,123.18H123.21c-4.46,0-7.4-2-9-6.09Q97.93,74.64,81.64,32.18c-1.19-3.1.28-5.25,3.63-5.35.5,0,1,0,1.49,0H246.52c5.32,0,7.81,1.67,9.71,6.61q16,41.51,31.9,83c2,5.11.77,6.74-4.78,6.74ZM252,40.28c.21-1.47-.64-2.62-1.06-3.89-1.44-4.34-2.27-4.64-6.42-2.41l-.8.47c-3.08,1.95-6.17,3.88-9.24,5.84-15.88,10.13-31.8,20.2-47.6,30.45-3.12,2-5.89,3.43-9.23.75a6.12,6.12,0,0,0-1.2-.47q-21.1-9.4-42.21-18.82-18.56-8.3-37.1-16.62c-1.52-.68-3.07-1.31-4.61-1.95a1.91,1.91,0,0,0-2.25.26c-.65.64-.41,1.32-.14,2,.46,1.2.81,2.45,1.36,3.61a8.68,8.68,0,0,0,4.08,4.37c1.74.81,3.52,1.51,5.27,2.29q23.24,10.35,46.45,20.72,18.13,8.1,36.24,16.25a4.1,4.1,0,0,0,4.34-.29c4-2.61,8-5.16,12-7.71q10.45-6.67,20.94-13.33l29.86-19A2.37,2.37,0,0,0,252,40.28Z"/><path class="cls-1" d="M63.59,58.4q-23.46,0-46.93,0c-1.14,0-1.56-.23-1.95-1.48a88.89,88.89,0,0,0-3.42-8.51c-.52-1.24-.52-1.76,1.17-1.8,20.17-.5,40.35-.19,60.52-.32a6,6,0,0,1,6.28,4.21c.59,1.49,1.18,3,1.7,4.47.83,2.37-.12,3.73-2.65,3.75-4.91,0-9.81,0-14.72,0Z"/><path class="cls-1" d="M31,70.24c.3,0,.6,0,.9,0q24.41-.15,48.8-.31c3.77,0,5.55,1.23,6.87,4.72.54,1.43,1.12,2.85,1.62,4.3.66,1.92-.27,3.26-2.33,3.42-.43,0-.87,0-1.3,0q-22.54,0-45.09-.06c-1.35,0-2-.2-2.36-1.71-.6-2.35-1.8-4.54-2.61-6.85S33.84,69.71,31,70.24Z"/><path class="cls-1" d="M55.37,96.47c.43,0,.73-.07,1-.08,11.37-.11,22.73-.24,34.09-.33,3.44,0,5.24,1.24,6.49,4.43.58,1.49,1.2,3,1.73,4.47.7,2-.26,3.53-2.38,3.51-9.93-.08-19.87.25-29.79-.27h-.75c-3.76-.07-3.67-.1-4.75-3.76-.68-2.33-1.69-4.57-2.49-6.88-.24-.68-.66-.77-1.26-.8A3.11,3.11,0,0,1,55.37,96.47Z"/><path class="cls-2" d="M252,40.28a2.37,2.37,0,0,1-1.32,2.58l-29.86,19q-10.47,6.66-20.94,13.33c-4,2.55-8,5.1-12,7.71a4.1,4.1,0,0,1-4.34.29Q165.45,75,147.3,66.92,124.08,56.54,100.85,46.2c-1.75-.78-3.53-1.48-5.27-2.29a8.68,8.68,0,0,1-4.08-4.37c-.55-1.16-.9-2.41-1.36-3.61-.27-.72-.51-1.4.14-2a1.91,1.91,0,0,1,2.25-.26c1.54.64,3.09,1.27,4.61,1.95q18.56,8.3,37.1,16.62Q155.33,61.64,176.45,71a6.12,6.12,0,0,1,1.2.47c3.34,2.68,6.11,1.27,9.23-.75,15.8-10.25,31.72-20.32,47.6-30.45,3.07-2,6.16-3.89,9.24-5.84l.8-.47c4.15-2.23,5-1.93,6.42,2.41C251.36,37.66,252.21,38.81,252,40.28Z"/></svg>