<svg xmlns="http://www.w3.org/2000/svg" xmlns:xlink="http://www.w3.org/1999/xlink" viewBox="0 0 72.22 72.28"><defs><style>.cls-1{fill:none;}.cls-2{fill:#ff6d6f;}.cls-3{clip-path:url(#clip-path);}.cls-4{fill:#fff;fill-rule:evenodd;}</style><clipPath id="clip-path"><rect class="cls-1" x="3.73" y="1.41" width="68.49" height="70.74"/></clipPath></defs><title>favicom</title><g id="Cuadrado"><rect class="cls-2" width="72.15" height="72.15" rx="12"/></g><g id="ICon"><g class="cls-3"><g class="cls-3"><path class="cls-4" d="M32.73,25.23l.21-.39h0L46.64,50.37,37.51,62.42H67.66l-6.5-12.1h0l-1-1.84h0l-2-3.72h0L56.9,42.4h0l-1.7-3.18h0l-1.28-2.37h0L52,33.28l-1.13-2.1h0L49.08,27.8h0L48,25.75h0l-2.22-4.13h0l-1-1.87c.05.08.1.14.15.23l-3.74-7a9.3,9.3,0,0,0-16.4,0L9.55,41.32h0L9.2,42h0L7.12,45.84A11.26,11.26,0,0,0,17,62.42H30.74L39.4,50.37H19.24L31.32,27.85c.32-.61.81-1.55,1.41-2.62M20.2,50.39c-3.93,0-9.92-.2-11.55-3.24,1.63,3,7.62,3.26,11.55,3.24M8.55,46.94l0,.08,0-.08M43.88,18.53l-.3-.33.3.33m.58.78c-.09-.14-.19-.29-.29-.42.1.13.2.28.29.42M41.34,17l-.18,0,.18,0m1.93.91c-.1-.08-.19-.17-.29-.24.1.07.19.16.29.24m-.62-.45a1.91,1.91,0,0,0-.27-.16,1.91,1.91,0,0,1,.27.16M42,17.16l-.24-.08.24.08M40.55,17h0M26.36,19.29a7,7,0,1,1,7.13,4.64,7,7,0,0,1-7.13-4.64"/></g></g></g></svg>