<svg id="Capa_1" data-name="Capa 1" xmlns="http://www.w3.org/2000/svg" viewBox="0 0 626 124"><defs><style>.cls-1{fill:#edc32d;}.cls-2{fill:#658ef2;}.cls-3{fill:#6eb063;}.cls-4{fill:#6c7074;}</style></defs><title>google_adsense</title><g id="Adsense"><g id="logo"><path class="cls-1" d="M10.74,80.13a6.72,6.72,0,0,1,.77-1.45c1.9-3.31,3.81-6.6,5.72-9.9l4.15-7.17c1.39-2.39,2.76-4.79,4.14-7.18l4.15-7.16,5.43-9.4,4-7q2.1-3.64,4.21-7.28c.75-1.29,1.43-2.62,2.27-3.85a17.33,17.33,0,0,1,10.25-7.2,11.6,11.6,0,0,1,2.92-.44.34.34,0,0,0,.3-.1h2.24c.07.1.18.1.29.1a16.83,16.83,0,0,1,10.12,4.26A17.2,17.2,0,0,1,77.57,27.1a15.06,15.06,0,0,1,.21,2.68,18.34,18.34,0,0,1-2.5,8.8c-1.76,3-3.49,6-5.23,9.05-1.32,2.28-2.64,4.55-4,6.83L59.78,65.39l-4.24,7.34q-3.72,6.43-7.42,12.87-3.34,5.78-6.68,11.55a5.36,5.36,0,0,1-.69,1.12,1.83,1.83,0,0,1,.14-.57A17.76,17.76,0,0,0,42,88.81a16.64,16.64,0,0,0-1.47-5.09,17.43,17.43,0,0,0-6.27-7.26,17.79,17.79,0,0,0-9.68-2.91,17.19,17.19,0,0,0-2.67.23,17.34,17.34,0,0,0-4.64,1.37,18.14,18.14,0,0,0-6.17,4.71C11,80,10.94,80.14,10.74,80.13Z"/><path class="cls-2" d="M81,108.71A17.48,17.48,0,0,1,69.12,104a17.24,17.24,0,0,1-5.37-9.86,14.9,14.9,0,0,1-.28-3.53,18.14,18.14,0,0,1,2.38-8.31l5.67-9.79c1.53-2.66,3.08-5.31,4.62-8s3.08-5.35,4.63-8c.91-1.58,1.8-3.16,2.74-4.72A16.69,16.69,0,0,1,89,46.29a17.38,17.38,0,0,1,7.49-2.65,17.19,17.19,0,0,1,8.13,1,17.53,17.53,0,0,1,11,12.67,15.83,15.83,0,0,1,.43,4.11,18.19,18.19,0,0,1-2.53,8.73c-1.79,3-3.54,6.11-5.3,9.17L104,86.52q-2.52,4.38-5,8.77c-1.07,1.84-2,3.73-3.22,5.5a17.37,17.37,0,0,1-8.31,6.72A18.21,18.21,0,0,1,81,108.71Z"/><path class="cls-3" d="M10.74,80.13c.2,0,.25-.16.35-.27a18.14,18.14,0,0,1,6.17-4.71,17.34,17.34,0,0,1,4.64-1.37,17.19,17.19,0,0,1,2.67-.23,17.79,17.79,0,0,1,9.68,2.91,17.43,17.43,0,0,1,6.27,7.26A16.64,16.64,0,0,1,42,88.81a17.76,17.76,0,0,1-1.1,8.89,1.83,1.83,0,0,0-.14.57,21.45,21.45,0,0,1-3.52,5.13,17.44,17.44,0,0,1-8.56,4.88,17,17,0,0,1-8.4-.06A17.63,17.63,0,0,1,7.07,89.55a17.63,17.63,0,0,1,3-8.32c.18-.27.35-.55.53-.83a.23.23,0,0,0,.17-.28Z"/><path class="cls-1" d="M10.74,80.12a.23.23,0,0,1-.17.28C10.61,80.29,10.62,80.17,10.74,80.12Z"/></g><g id="Letra"><path class="cls-4" d="M127,75.21c.68-.87.57-2,.82-2.95,2.81-10.86,9.7-17.61,20.52-20.4a22.12,22.12,0,0,1,6.47-.79,26,26,0,0,1,17.07,6.78c.5.47.67.73.11,1.28-1.5,1.46-2.94,3-4.44,4.5a24.72,24.72,0,0,0-5.29-3.52,19.26,19.26,0,0,0-21.06,3.5,19.5,19.5,0,0,0,23,31.14,14.45,14.45,0,0,0,7.36-11c.13-1,.15-1-.83-1-1.94,0-3.88,0-5.82,0-3.19,0-6.37,0-9.55,0-1.15,0-1.17,0-1.18-1.15,0-1.74,0-3.48,0-5.22,0-.63.23-.93.87-.89.3,0,.6,0,.9,0h21.2c.25,0,.5,0,.75,0,.65-.06,1,.17,1.08.89,0,.39.15.78.17,1.17.31,6.25-.56,12.23-4.43,17.38A23,23,0,0,1,159,104.21a28,28,0,0,1-15-1.7,27.12,27.12,0,0,1-13.32-11.66,24.71,24.71,0,0,1-3.11-8.79,2.6,2.6,0,0,0-.56-1.48Z"/><path class="cls-4" d="M273.62,120c-1.42-.53-2.94-.72-4.35-1.35a17.26,17.26,0,0,1-8.24-8.07c-.23-.44-.2-.75.28-1,1.79-.74,3.59-1.46,5.36-2.23.59-.25.79,0,1,.49A10,10,0,0,0,272,112.3a8.88,8.88,0,0,0,13-6.59,27.13,27.13,0,0,0,.17-4.66c-.37-.25-.55,0-.71.13-3.1,3.07-6.92,3.83-11,3.18a16.94,16.94,0,0,1-13.93-15.07c-.62-7.6,2.4-13.39,8.94-17.13,4.69-2.68,9.63-2.89,14.41.08a12.1,12.1,0,0,1,1.06.83c.33.26.55.7,1.12.75a5,5,0,0,0,.16-1.91c0-.43.21-.63.63-.63q2.91,0,5.82,0c.49,0,.74.2.72.71s0,.8,0,1.19v28.51a26.38,26.38,0,0,1-.85,6.91c-1.68,6.16-5.61,9.9-11.91,11.09-.32.06-.72-.08-.93.31ZM267,87.84a8.87,8.87,0,0,0,1.31,5c3.19,5.67,10.82,6.85,15.1,1.57a11.76,11.76,0,0,0-.1-14.22A8.7,8.7,0,0,0,270.82,79C268.1,81.14,267,84,267,87.84Z"/><path class="cls-4" d="M609.86,88.35c-3.72,0-7.45,0-11.18,0H586.44c-.35,0-.7,0-1,0-.64,0-.93.29-.86.92.78,6.64,6.06,10.48,12,9.67a8.43,8.43,0,0,0,6.74-4.57c.36-.69.7-.8,1.39-.47,1.12.52,2.3.93,3.45,1.4s1.07.48.47,1.5c-2.1,3.57-5,6.25-9.11,7.17-5.36,1.2-10.49.69-14.92-3a16.39,16.39,0,0,1-6-12.18,18.5,18.5,0,0,1,2.78-11.51c2.67-4.13,6.39-6.71,11.31-7.13,7.94-.67,14.48,3.12,16.81,11.35.21.75-.07,1.59.42,2.29Zm-15.57-4.83c2.74,0,5.47,0,8.21,0,1.2,0,1.27-.12,1-1.31a1.21,1.21,0,0,1-.05-.14c-1.69-5.33-6.32-7.21-11.66-6-3.27.73-5.24,3.06-6.42,6.1-.5,1.3-.47,1.36.89,1.37C588.92,83.53,591.6,83.52,594.29,83.52Z"/><path class="cls-4" d="M360.8,103.53a24.17,24.17,0,0,1,1.37-4.06q5.28-14.09,10.63-28.16c1.75-4.64,3.55-9.27,5.26-13.93a1.31,1.31,0,0,1,1.5-1.05c1.49.06,3,0,4.47,0,1.28,0,1.29,0,1.72,1.14q2.73,7.18,5.44,14.35,3.6,9.55,7.19,19.1c1.43,3.82,2.87,7.63,4.29,11.44.41,1.1.38,1.14-.83,1.15-1.44,0-2.89-.06-4.32,0a1.3,1.3,0,0,1-1.49-1.07c-1.14-3.29-2.33-6.55-3.51-9.82-.88-2.41-.42-1.92-2.79-1.94-5.47,0-10.94,0-16.41,0-1.32,0-1.32,0-1.78,1.27-1.27,3.5-2.57,7-3.79,10.51a1.31,1.31,0,0,1-1.51,1C364.47,103.49,362.69,103.53,360.8,103.53ZM382,63.65a5.22,5.22,0,0,0-.43.65q-3,8.33-6.05,16.65c-.39,1.07-.81,2.14-1.17,3.22-.24.73-.12.88.61.93.15,0,.3,0,.45,0,4.47,0,8.95,0,13.43,0,.27,0,.59.1.83-.31C387.14,77.86,384.6,70.88,382,63.65Z"/><path class="cls-4" d="M431.33,99.31a36.55,36.55,0,0,1-3.52,3,14.46,14.46,0,0,1-16.7-1A17.27,17.27,0,0,1,404.74,88a18.18,18.18,0,0,1,2-9.21c2.53-4.69,6.28-7.86,11.67-8.51a13.16,13.16,0,0,1,12,4.37c.23.26.46.52.7.77,0,0,.08,0,.26,0a31.94,31.94,0,0,0-.14-3.91c0-.4-.11-.79-.11-1.19q0-6.25,0-12.53c0-1.39,0-1.39,1.39-1.4s2.49,0,3.73,0c1,0,1,0,1.06,1.11,0,.25,0,.5,0,.75v43.41c0,.35,0,.7,0,1,0,.64-.31.87-.92.87-1.39,0-2.78,0-4.18,0-.56,0-.8-.23-.79-.8C431.35,101.6,431.33,100.46,431.33,99.31Zm0-11.55A12.44,12.44,0,0,0,428,78.54c-3.79-4-11.1-3.77-14.74.95a12.17,12.17,0,0,0-2.49,6.74,12.48,12.48,0,0,0,2.46,9,9.84,9.84,0,0,0,14.94.85A11.39,11.39,0,0,0,431.35,87.76Z"/><path class="cls-4" d="M467.55,67.07a9.78,9.78,0,0,0-3.89-4.69c-3.22-2.06-9.78-1.9-12.57,2.07a5.69,5.69,0,0,0,1.07,7.76,21.23,21.23,0,0,0,6.5,3.26A55.61,55.61,0,0,1,466,78.33a26.12,26.12,0,0,1,3.65,2.31,10.93,10.93,0,0,1,4.47,7.29c.67,4.25.16,8.25-2.81,11.61a14.43,14.43,0,0,1-7.09,4.21c-7,2-13.15.32-18.29-4.86a15.28,15.28,0,0,1-3.51-6.16c-.2-.59-.14-1,.56-1.27,1.26-.46,2.49-1,3.72-1.53.71-.29,1.05-.07,1.31.64a13,13,0,0,0,4.15,5.9,11,11,0,0,0,13.18.32c4.35-3.08,3.55-9.68-.44-12.2a32.65,32.65,0,0,0-7.74-3.42,30,30,0,0,1-8.83-4.2c-5.84-4.23-5.69-12.73-1.24-17.21A14.38,14.38,0,0,1,456,55.42a17.83,17.83,0,0,1,8.78,1,14.38,14.38,0,0,1,7.73,7.28c.42.86.53,1.14-.55,1.56C470.54,65.8,469.13,66.41,467.55,67.07Z"/><path class="cls-4" d="M318.62,92.61c2.44,5.52,9.07,6.5,13.4,3.75a9.16,9.16,0,0,0,2.81-2.63c.36-.54.68-.56,1.21-.2,1.42,1,2.89,1.93,4.33,2.91.78.53.79.56.2,1.34a16.15,16.15,0,0,1-11.1,6.6c-5.74.75-10.86-.71-14.92-5.06a16.1,16.1,0,0,1-4.19-8.57,18.89,18.89,0,0,1,1.83-12.29,15,15,0,0,1,11.19-8c7.16-1.2,12.95,2.26,16.29,8.4a22.69,22.69,0,0,1,1.44,3.27c.35,1,.36,1-.58,1.38L329,88.27l-8.67,3.58C319.75,92.08,319.22,92.34,318.62,92.61Zm-1.26-6a.45.45,0,0,0,.54,0l13.73-5.74c1.08-.45,1.14-.66.36-1.54A7.26,7.26,0,0,0,324.6,77,9.32,9.32,0,0,0,317.36,86.59Z"/><path class="cls-4" d="M217.23,87.19c0,8.18-5,14.72-12.16,16.71-9.51,2.64-19.31-2.77-21.31-12.82a17.16,17.16,0,0,1,4.07-15.52,16.07,16.07,0,0,1,9.68-5.14,16.75,16.75,0,0,1,14.23,4.1,15.86,15.86,0,0,1,5.11,9.06A14.75,14.75,0,0,1,217.23,87.19Zm-7.44-.44a9.65,9.65,0,0,0-2-6,9.18,9.18,0,0,0-13.83-1.22c-3.46,3.3-4.11,9.18-1.81,13.31a9.11,9.11,0,0,0,12.11,4.06C208,95,209.79,91.71,209.79,86.75Z"/><path class="cls-4" d="M238.39,104.52a17.17,17.17,0,0,1,.1-34.33c9.2.09,16.81,6.92,16.8,17.23C255.28,98,247,104.69,238.39,104.52Zm-9.62-17.61a11.18,11.18,0,0,0,2.52,7.58,9.1,9.1,0,0,0,14.33-.32,11,11,0,0,0,1.43-11.12,9.23,9.23,0,0,0-13.38-4.83A9.93,9.93,0,0,0,228.77,86.91Z"/><path class="cls-4" d="M497.68,88.4c-3.92,0-7.85,0-11.78,0-1,0-1.22.17-1.09,1.08.68,4.81,3.35,8,7.41,9.16a9.93,9.93,0,0,0,9.17-1.57,7.37,7.37,0,0,0,1.95-2.42c.59-1.08.59-1.08,1.78-.6s2.13.82,3.18,1.27,1.08.56.51,1.54c-2.07,3.52-4.92,6.13-9,7.11a17.21,17.21,0,0,1-12.72-1.33,15.59,15.59,0,0,1-7.94-10.83,18.83,18.83,0,0,1,1.57-13A15.31,15.31,0,0,1,497,70.33c7.25.92,12.15,6.42,13.06,13.42a18.3,18.3,0,0,1,.31,3.4c-.06,1.24,0,1.24-1.37,1.24Zm-3.2-4.88c2.74,0,5.48,0,8.21,0,1.27,0,1.4-.16,1-1.39-1.13-3.44-3.38-5.68-7-6.28a20.78,20.78,0,0,0-2.38-.09c-4-.18-7.53,2.72-8.8,6.74-.28.9-.2,1,.81,1C489,83.53,491.75,83.52,494.48,83.52Z"/><path class="cls-4" d="M521.52,75.5A23.48,23.48,0,0,1,523.84,73a12.82,12.82,0,0,1,14-1.52C541,73,542.63,75.74,543.51,79a18.59,18.59,0,0,1,.59,4.86c.06,6.07,0,12.14,0,18.22,0,.24,0,.49,0,.74,0,.5-.2.73-.71.72-1.59,0-3.18,0-4.78,0-.51,0-.7-.25-.69-.73s0-.7,0-1c0-6,0-12,0-18.07a9.42,9.42,0,0,0-.63-3.49,6.6,6.6,0,0,0-6.43-4.43,9,9,0,0,0-9.36,9.35c0,5.52,0,11,0,16.57,0,.35,0,.7,0,1,0,.55-.17.83-.77.82-1.49,0-3,0-4.48,0-.55,0-.84-.21-.82-.79,0-.29,0-.59,0-.89V72.59c0-1.29,0-1.3,1.33-1.31s2.39,0,3.58,0c.64,0,.89.22.87.86,0,1.08,0,2.17,0,3.25Z"/><path class="cls-4" d="M562.85,104.52c-3.67.07-6.85-.67-9.56-2.89a16.55,16.55,0,0,1-4.41-5.38c-.32-.65-.24-1,.44-1.22,1.3-.5,2.58-1,3.84-1.63.54-.25.83-.16,1.05.37.09.23.25.43.36.65a9.33,9.33,0,0,0,12.94,3.39,3.8,3.8,0,0,0-.06-6.3,10.25,10.25,0,0,0-3.58-1.4l-5.07-1.2a17.54,17.54,0,0,1-6.27-3c-3.85-2.75-3.67-8.68-.94-11.5a13.28,13.28,0,0,1,6.93-3.83A15.46,15.46,0,0,1,571,72.8a10.52,10.52,0,0,1,3.42,4.06c.29.57.22.91-.41,1.15-1.25.48-2.49,1-3.72,1.51-.5.22-.84.21-1.08-.33-1.72-3.9-8.16-4.53-11.46-2.61a3.49,3.49,0,0,0-2,3.22,3.3,3.3,0,0,0,2.15,3,24.2,24.2,0,0,0,5,1.43c2.35.62,4.77.95,7,2a9,9,0,0,1,5,11A9.61,9.61,0,0,1,569.8,103,13.34,13.34,0,0,1,562.85,104.52Z"/><path class="cls-4" d="M298.06,78.17V54.91c0-.35,0-.7,0-1,0-.55.18-.81.77-.8,2,0,4,0,6,0,.68,0,.88.29.83.9,0,.25,0,.5,0,.75v47.13c0,.24,0,.49,0,.74.06.67-.17,1-.92,1-1.88,0-3.78,0-5.66,0-.84,0-1.05-.34-1-1.07,0-.29,0-.59,0-.89Z"/></g></g></svg>