<svg id="ICon" xmlns="http://www.w3.org/2000/svg" viewBox="0 0 145.85 59.62"><defs><style>.cls-1{fill:#ff6d6f;}.cls-1,.cls-2{fill-rule:evenodd;}.cls-2{fill:#742c7a;}</style></defs><title>icon_double</title><path class="cls-1" d="M49.7,0H9.92A9.94,9.94,0,0,0,0,9.92V49.7a10,10,0,0,0,9.92,9.92H49.7a10,10,0,0,0,9.92-9.92V9.92A10,10,0,0,0,49.7,0ZM31.77,51.15,39.47,41,27.93,19.49h0l-.17.33c-.51.91-.92,1.7-1.19,2.21L16.38,41h17l-7.3,10.15H14.52a9.49,9.49,0,0,1-8.36-14l1.75-3.25h0l.3-.55h0L21,9.5a7.85,7.85,0,0,1,13.82,0L38,15.38l-.12-.2.85,1.58h0l1.88,3.49h0L41.53,22h0l1.52,2.85h0l1,1.77,1.61,3h0l1.08,2h0l1.44,2.68h0l1.08,2h0l1.69,3.14h0L51.72,41h0l5.47,10.2Z"/><path class="cls-1" d="M26,7.31a5.88,5.88,0,0,0,2.4,11.41,6,6,0,0,0,1.49-.31A5.88,5.88,0,1,0,26,7.31Z"/><g id="icon-2" data-name="icon"><path class="cls-2" d="M143.8,40.47c-9.11,4.41-18.25,8.74-27.31,13.24a20.46,20.46,0,0,1-15,1.53c-6.38-1.73-12.79-3.36-19.18-5.08a3.31,3.31,0,0,0-3.26.75c.71.2,1.29.38,1.87.53,8.63,2.27,17.27,4.51,25.9,6.81a3.86,3.86,0,0,0,2.9-.3q15.8-7.68,31.61-15.29l4.44-2.17A1.77,1.77,0,0,0,143.8,40.47Z"/><path class="cls-2" d="M102.29,37.93a8.17,8.17,0,0,0,7.4-.83C113.06,35,116.42,33,119,29.94a20.18,20.18,0,0,0,4.73-17.72,1.84,1.84,0,0,0-1.47-1.59C114.13,8.27,106,5.85,97.85,3.46,96.39,3,96.39,3,96.62,4.56A19.13,19.13,0,0,1,95,16,28.21,28.21,0,0,1,81,29.66c-.8.38-1.61.74-2.42,1.1l.08.3.92.29C87.17,33.52,94.78,35.55,102.29,37.93Z"/><path class="cls-2" d="M107,45.12a3.4,3.4,0,0,0,2.56-.25q14.09-6.85,28.2-13.64l8-3.87c-.3-.2-.38-.31-.49-.33-5.65-1.5-11.3-3-16.95-4.49-.84-.23-1,.22-1.26.89-2.31,7.17-7,12.26-13.17,15.91-1.8,1-3.66,2-5.44,3.08a4.18,4.18,0,0,1-3.59.46c-7.09-2.08-14.21-4-21.29-6.18-1.74-.52-3,.06-4.55,1l2,.53C89.62,40.55,98.3,42.81,107,45.12Z"/><path class="cls-2" d="M142.44,34c-8.66,4.22-17.36,8.32-26,12.6a20.35,20.35,0,0,1-14.87,1.53c-5.6-1.51-11.25-2.85-16.81-4.5C82.62,43,80.94,43.59,79,44.8c.38.14.57.22.76.27,9.06,2.38,18.13,4.74,27.18,7.15a3.4,3.4,0,0,0,2.56-.25q16-7.76,31.93-15.45l4.39-2.14C144.52,33.93,143.58,33.48,142.44,34Z"/></g></svg>