<svg id="ICon" xmlns="http://www.w3.org/2000/svg" viewBox="0 0 64.36 56.47"><defs><style>.cls-1{fill:#ff6d6f;fill-rule:evenodd;}</style></defs><title>icon_p</title><path id="Logo" class="cls-1" d="M28.06,17.81l.22-.4h0L42.52,44,33,56.47H64.36L57.61,43.89h0l-1-1.9h0l-2.07-3.87h0l-1.33-2.46h0l-1.77-3.31h0l-1.33-2.46h0l-2-3.7L46.93,24h0l-1.88-3.51h0L43.9,18.35h0l-2.31-4.3h0l-1.06-1.94.16.23L36.8,5.1a9.68,9.68,0,0,0-17,0L4,34.54H4l-.36.68h0l-2.16,4A11.43,11.43,0,0,0,1.7,50.78a11.42,11.42,0,0,0,10,5.69H26L35,44H14L26.59,20.54C26.93,19.91,27.43,18.93,28.06,17.81ZM15,44C11,44,4.72,43.76,3,40.6,4.72,43.76,11,44,15,44ZM2.92,40.38l0,.09ZM39.64,10.85c-.1-.11-.2-.23-.31-.34C39.44,10.62,39.54,10.74,39.64,10.85Zm.61.82c-.1-.16-.2-.31-.3-.44C40.05,11.36,40.15,11.51,40.25,11.67ZM37,9.27l-.19,0Zm2,1a3.31,3.31,0,0,0-.3-.25A3.31,3.31,0,0,1,39,10.22Zm-.64-.47-.28-.17Zm-.67-.32-.25-.09Zm-1.52-.15h0ZM21.44,11.64a7.25,7.25,0,1,1,9.24,4.44,6.63,6.63,0,0,1-1.84.38A7.24,7.24,0,0,1,21.44,11.64Z"/></svg>