<svg id="Icon" xmlns="http://www.w3.org/2000/svg" viewBox="0 0 469.69 342.61"><defs><style>.cls-1{fill:#fff;}.cls-2{fill:#742c7a;}.cls-2,.cls-3{fill-rule:evenodd;}.cls-3{fill:#ff6d6f;}</style></defs><title>logo@2x</title><g id="Pro"><rect class="cls-1" x="103.11" y="58.98" width="244.41" height="80.89" rx="31"/><circle class="cls-1" cx="370.26" cy="99.42" r="99.42"/></g><g id="icon-2" data-name="icon"><path class="cls-2" d="M440.7,116.12c-19.17,9.27-38.4,18.39-57.46,27.86a43,43,0,0,1-31.54,3.21c-13.44-3.64-26.93-7.05-40.36-10.69a7,7,0,0,0-6.87,1.58c1.5.43,2.71.81,3.93,1.13,18.17,4.76,36.35,9.49,54.5,14.32a8.18,8.18,0,0,0,6.11-.63q33.23-16.17,66.53-32.17c3-1.45,6-2.93,9.32-4.58A3.7,3.7,0,0,0,440.7,116.12Z"/><path class="cls-2" d="M353.36,110.76c5.76,1.83,10.36,1.46,15.56-1.73,7.09-4.34,14.16-8.54,19.64-15.08,9-10.75,12.8-23,9.95-37.27a3.88,3.88,0,0,0-3.09-3.35c-17.15-5-34.28-10.06-51.41-15.1-3.08-.91-3.08-.89-2.58,2.31A40.42,40.42,0,0,1,338,64.67C331.63,78,321.55,87.32,308.59,93.38c-1.69.78-3.39,1.54-5.08,2.31l.16.62c.64.21,1.28.43,1.93.61C321.53,101.49,337.55,105.76,353.36,110.76Z"/><path class="cls-2" d="M363.19,125.9a7.21,7.21,0,0,0,5.39-.52Q398.24,111,427.93,96.67l16.8-8.14c-.61-.43-.79-.65-1-.7-11.89-3.15-23.79-6.26-35.66-9.45-1.78-.48-2.2.46-2.66,1.88-4.87,15.08-14.63,25.79-27.71,33.47-3.79,2.22-7.7,4.21-11.46,6.49a8.77,8.77,0,0,1-7.54,1c-14.92-4.39-29.92-8.52-44.81-13-3.65-1.11-6.32.12-9.58,2.21l4.14,1.1C326.69,116.29,345,121.05,363.19,125.9Z"/><path class="cls-2" d="M437.83,102.57c-18.21,8.87-36.52,17.5-54.67,26.5a42.76,42.76,0,0,1-31.28,3.23c-11.79-3.19-23.67-6-35.38-9.47-4.54-1.35-8.07-.15-12.11,2.41.82.28,1.2.45,1.61.56q28.61,7.5,57.2,15a7.21,7.21,0,0,0,5.39-.53q33.57-16.31,67.2-32.51l9.23-4.5C442.22,102.36,440.25,101.4,437.83,102.57Z"/></g><path id="Logo" class="cls-3" d="M144.45,143.6l1.13-2.1,0,.06h0l73.3,136.61L170,342.61H331.35l-34.74-64.75h.07l-5.3-9.81h0l-10.69-19.91h0l-6.85-12.66.07,0-9.14-17h0l-6.84-12.67.05,0-10.22-19-6.07-11.21,0,0L232,157.36h0l-5.94-11,0,0-11.89-22.15-.06,0-5.43-10c.26.43.53.78.79,1.23l-20-37.3a49.8,49.8,0,0,0-87.76,0L20.37,229.71v0l-1.88,3.5h0L7.38,253.92c-10.3,19.19-9.8,40.69,1.39,59.38s29.89,29.31,51.67,29.31h73.34l46.36-64.44H72.24l64.67-120.53C138.63,154.37,141.21,149.34,144.45,143.6ZM77.38,278.25c-21,.09-53.08-1.06-61.8-17.35C24.31,277.18,56.35,278.34,77.38,278.25ZM15,259.79c.07.15.11.31.18.45C15.13,260.1,15.09,259.94,15,259.79Zm189.06-152c-.52-.61-1.05-1.23-1.58-1.77C203,106.54,203.56,107.16,204.08,107.77Zm3.15,4.18c-.52-.79-1-1.56-1.57-2.26C206.18,110.39,206.71,111.16,207.23,112ZM190.52,99.62c-.32,0-.64-.11-1-.13C189.88,99.51,190.2,99.59,190.52,99.62Zm10.33,4.87c-.51-.45-1-.91-1.54-1.29C199.83,103.58,200.34,104,200.85,104.49Zm-3.32-2.43a16.45,16.45,0,0,0-1.45-.84A16.45,16.45,0,0,1,197.53,102.06Zm-3.42-1.61c-.43-.15-.85-.34-1.28-.45C193.26,100.11,193.68,100.3,194.11,100.45Zm-7.83-.81h0Zm-75.92,12.15a37.48,37.48,0,1,1,38.13,24.86A37.34,37.34,0,0,1,110.36,111.79Z"/></svg>