<svg viewBox="0 0 383.94 81.47" xmlns="http://www.w3.org/2000/svg" xmlns:xlink="http://www.w3.org/1999/xlink"><clipPath id="a"><path d="m9.19 5.39h68.49v70.74h-68.49z"/></clipPath><clipPath id="b"><path d="m9.19 5.39h68.49v70.74h-68.49z"/></clipPath><rect fill="#ff6d6f" height="72.15" rx="12" width="72.15" x="5.46" y="3.98"/><g clip-path="url(#a)"><g clip-path="url(#b)" fill="#fff" fill-rule="evenodd"><path d="m27.22 54.35c-4.94 0-17 .45-12.56-8.39l-2.08 3.86a11.26 11.26 0 0 0 9.92 16.58h13.7l8.66-12.05z"/><path d="m46.6 17a9.29 9.29 0 0 0 -16.39 0l-15.21 28.3-.35.66c-4.46 8.84 7.62 8.44 12.56 8.39h-2.51l12.09-22.52c.32-.61.8-1.55 1.41-2.62l.21-.39c.17-.3.35-.61.54-.92a7 7 0 1 1 6.43-6.77c1.68-.54 3.4.07 5 2.81z"/><path d="m66.63 54.3-1-1.84-2-3.72-1.28-2.37-1.71-3.18-1.28-2.36-1.91-3.56-1.14-2.09-1.81-3.38-1.11-2.05-2.23-4.14-1.06-2.07c-1.5-2.39-3.12-2.92-4.72-2.4a6.91 6.91 0 0 1 -6.38 6.77c-.19.31-.37.62-.54.92l13.7 25.52-9.16 12.05h30.12z"/></g></g><g fill="#fff"><path d="m114.69 28.23h8.22l18.49 38.23h-8.14l-3.06-6.46h-22.33l-3 6.44h-8.13zm12.45 25.41-8.26-17.36-8 17.36z"/><path d="m147.35 28.23h19.44a27.73 27.73 0 0 1 7.63.92 14.71 14.71 0 0 1 5.36 2.65 10.68 10.68 0 0 1 3.16 4.2 14.44 14.44 0 0 1 1 5.65 15.71 15.71 0 0 1 -.51 4 11.85 11.85 0 0 1 -1.58 3.53 12.11 12.11 0 0 1 -2.67 2.88 14.86 14.86 0 0 1 -3.8 2.09l8.32 12.23h-9.49l-7.15-10.78h-.22-11.74v10.86h-7.75zm19.65 20.64a13.11 13.11 0 0 0 3.85-.51 7.85 7.85 0 0 0 2.76-1.44 5.74 5.74 0 0 0 1.66-2.27 7.67 7.67 0 0 0 .55-3 6 6 0 0 0 -2.2-5q-2.2-1.65-6.62-1.65h-11.9v13.87z"/><path d="m193.11 28.23h7.75l23.82 12.47v-12.47h7.76v38.23h-7.76v-17.54l-23.82-12.4v29.94h-7.75z"/><path d="m243.25 28.23h32.55v6.77h-24.8v7.63h22v6.37h-22v10.68h25.31v6.78h-33.06z"/><path d="m284.92 28.23h7.76v31.43h22.23v6.8h-30z"/><path d="m321.44 28.23h7.8v38.23h-7.8z"/><path d="m336.87 47.23a19.39 19.39 0 0 1 1.59-7.92 17.91 17.91 0 0 1 4.47-6.18 20.29 20.29 0 0 1 6.89-4 28.86 28.86 0 0 1 17.82 0 20.38 20.38 0 0 1 6.91 4 18 18 0 0 1 4.45 6.18 19.55 19.55 0 0 1 1.58 7.92 19.85 19.85 0 0 1 -1.58 8 18.41 18.41 0 0 1 -4.47 6.25 20.52 20.52 0 0 1 -6.91 4.07 27.92 27.92 0 0 1 -17.82 0 20.43 20.43 0 0 1 -6.89-4.07 18.27 18.27 0 0 1 -4.47-6.25 19.69 19.69 0 0 1 -1.57-8zm7.76 0a12.92 12.92 0 0 0 1.06 5.34 11.72 11.72 0 0 0 3 4 13.22 13.22 0 0 0 4.48 2.58 17.75 17.75 0 0 0 11.22 0 13.17 13.17 0 0 0 4.47-2.58 12 12 0 0 0 3-4 12.92 12.92 0 0 0 1.07-5.34 12.67 12.67 0 0 0 -1.07-5.3 11.65 11.65 0 0 0 -3-4 13.14 13.14 0 0 0 -4.47-2.48 18.73 18.73 0 0 0 -11.22 0 13.18 13.18 0 0 0 -4.52 2.55 11.4 11.4 0 0 0 -3 4 12.67 12.67 0 0 0 -1.02 5.23z"/></g></svg>