<svg xmlns="http://www.w3.org/2000/svg" viewBox="0 0 753.16 441.95"><defs><style>.cls-1{fill:#fff;}.cls-1,.cls-2,.cls-4{fill-rule:evenodd;}.cls-2,.cls-3{fill:#fbfbfc;}.cls-4{fill:#742c7a;}</style></defs><title>logo</title><g id="Logo_Arnelio" data-name="Logo Arnelio"><path id="Logo" class="cls-1" d="M174,211.28l1.3-2.44,0,.07h0l85,158.34L203.67,442h187L350.4,366.89h.08l-6.15-11.36h0l-12.38-23.08h0L324,317.79l.08-.05L313.44,298h0l-7.94-14.68.06,0L293.7,261.22l-7-13,0,0-11.24-21h0l-6.89-12.73,0,0-13.79-25.67-.07,0-6.29-11.63c.3.5.61.9.92,1.42l-23.2-43.23c-10.32-19.23-29-30.43-50.86-30.43s-40.54,11.2-50.86,30.43L30.22,311.08v0L28,315.16l0,0-12.85,24C3.23,361.39,3.81,386.31,16.77,408s34.65,34,59.89,34h85l53.73-74.7H90.34l75-139.69C167.29,223.76,170.29,217.94,174,211.28ZM96.3,367.34c-24.37.11-61.52-1.23-71.63-20.1C34.79,366.11,71.93,367.45,96.3,367.34ZM24,346c.08.17.13.36.21.53C24.15,346.31,24.1,346.12,24,346Zm219.13-176.2c-.6-.71-1.21-1.42-1.83-2C241.94,168.33,242.55,169,243.15,169.75Zm3.66,4.84c-.61-.9-1.22-1.8-1.83-2.61C245.59,172.79,246.2,173.69,246.81,174.59Zm-19.38-14.28c-.37,0-.74-.13-1.11-.15C226.69,160.18,227.06,160.27,227.43,160.31Zm12,5.64c-.6-.52-1.19-1-1.79-1.5C238.22,164.89,238.81,165.43,239.41,166Zm-3.85-2.82c-.56-.33-1.12-.7-1.68-1C234.44,162.43,235,162.8,235.56,163.13Zm-4-1.87c-.5-.17-1-.39-1.49-.52C230.61,160.87,231.1,161.09,231.6,161.26Zm-9.08-.93h0Zm-88,14.09a43.5,43.5,0,1,1,44.2,28.8A43.29,43.29,0,0,1,134.52,174.42Z"/></g><g id="Icon"><g id="Barra"><path id="Barra-2" data-name="Barra" class="cls-2" d="M459.53,112.07h-237a57.3,57.3,0,0,1,22.71,23.34l23.2,43.23c-.31-.52-.62-.92-.92-1.42l6.29,11.63.07,0,2.23,4.15H459.53Z"/><path id="Barra-3" data-name="Barra" class="cls-2" d="M440.53,112.07h-237a57.3,57.3,0,0,1,22.71,23.34l23.2,43.23c-.31-.52-.62-.92-.92-1.42l6.29,11.63.07,0,2.23,4.15H440.53Z"/></g><circle id="Circulo" class="cls-3" cx="600.62" cy="152.52" r="145.93"/><g id="Icon-2" data-name="Icon"><path class="cls-4" d="M699.43,181c-27.82,13.45-55.74,26.69-83.43,40.45-14.87,7.38-29.93,8.95-45.79,4.66-19.51-5.28-39.1-10.24-58.6-15.52-3.7-1-6.7-.38-10,2.29,2.17.62,3.92,1.17,5.7,1.64,26.38,6.92,52.78,13.78,79.14,20.8a11.87,11.87,0,0,0,8.87-.92q48.24-23.48,96.59-46.72c4.34-2.09,8.66-4.24,13.54-6.64C702.82,179.38,701.12,180.17,699.43,181Z"/><path class="cls-4" d="M572.62,173.2c8.37,2.65,15,2.11,22.59-2.51,10.29-6.31,20.57-12.41,28.53-21.9,13.1-15.62,18.57-33.46,14.43-54.12a5.61,5.61,0,0,0-4.48-4.86C608.79,82.57,583.92,75.2,559,67.88c-4.46-1.31-4.46-1.28-3.75,3.37a58.55,58.55,0,0,1-4.92,35c-9.3,19.37-23.93,32.89-42.75,41.68-2.45,1.15-4.92,2.24-7.38,3.36.07.3.15.61.23.91.93.29,1.86.61,2.8.88C526.41,159.73,549.67,165.93,572.62,173.2Z"/><path class="cls-4" d="M586.9,195.18a10.47,10.47,0,0,0,7.82-.76q43-20.92,86.18-41.69c8-3.84,15.89-7.69,24.39-11.82-.89-.62-1.15-.93-1.48-1-17.26-4.57-34.54-9.08-51.78-13.72-2.59-.7-3.19.67-3.86,2.73-7.07,21.9-21.25,37.44-40.24,48.6-5.5,3.23-11.18,6.11-16.63,9.42a12.74,12.74,0,0,1-11,1.42C558.68,182,536.91,176,515.29,169.46c-5.31-1.6-9.18.17-13.91,3.21l6,1.6C533.9,181.22,560.41,188.13,586.9,195.18Z"/><path class="cls-4" d="M695.27,161.31c-26.43,12.87-53,25.4-79.37,38.47-14.74,7.31-29.7,8.94-45.43,4.69-17.11-4.63-34.37-8.71-51.36-13.75-6.6-2-11.73-.22-17.59,3.5,1.18.41,1.75.66,2.33.81,27.69,7.27,55.4,14.49,83.07,21.84a10.45,10.45,0,0,0,7.81-.77q48.75-23.68,97.57-47.2c4.21-2,8.4-4.09,13.41-6.53C701.64,161,698.78,159.6,695.27,161.31Z"/></g></g></svg>