<?xml version="1.0" encoding="UTF-8"?>
<svg id="Calque_2" data-name="Calque 2" xmlns="http://www.w3.org/2000/svg" viewBox="0 0 81.78 81.78">
  <defs>
    <style>
      .cls-1 {
        fill: #262626;
      }

      .cls-2 {
        fill: #e47d5c;
      }

      .cls-3 {
        fill: #fff;
      }
    </style>
  </defs>
  <g id="Calque_1-2" data-name="Calque 1">
    <g>
      <rect class="cls-3" width="81.78" height="81.78"/>
      <g>
        <g>
          <path class="cls-1" d="M39.53,6.54c-.06.02-.41.07-.76.12-5.05.76-9.39,4.42-11.01,9.29-.68,2.07-.75,2.82-.75,9.24v5.26s-.71.5-.71.5c-2.29,1.64-2.94,2.17-3.13,2.53-.39.75-.15,1.64.53,2.08l.37.23h2.07c1.89,0,2.08.02,2.13.14.03.07-.02.54-.12,1.03-.2.99-.37,1.89-.74,3.81-.14.73-.28,1.48-.32,1.69s-.13.65-.19,1-.25,1.31-.41,2.13c-.43,2.2-.68,3.52-.76,3.97-.04.22-.2,1.07-.36,1.89s-.51,2.6-.76,3.97c-.26,1.36-.52,2.74-.59,3.05-.06.3-.1.6-.06.65.07.13.45.59,1.77,2.17.64.75,1.83,2.17,2.65,3.15l1.48,1.77h22.07l2.33-2.78c1.28-1.53,2.47-2.94,2.65-3.15.43-.49.87-1.04.93-1.16.03-.05-.06-.68-.21-1.41s-.43-2.21-.63-3.29-.41-2.13-.45-2.33-.21-1.05-.36-1.89c-.16-.84-.34-1.78-.4-2.09-.06-.31-.24-1.25-.4-2.09-.16-.84-.35-1.87-.44-2.29-.08-.42-.2-1.07-.27-1.44-.23-1.21-.67-3.46-.93-4.86-.15-.75-.25-1.43-.22-1.5.05-.12.26-.14,2.12-.14,2.01,0,2.08,0,2.37-.18.8-.49,1.04-1.47.54-2.27-.09-.14-.91-.81-1.95-1.56l-1.8-1.32-.04-5.82c-.03-4.76-.06-5.94-.16-6.47-.4-2.15-1.13-3.97-2.24-5.59-1.59-2.32-3.9-4.16-6.45-5.14-1.64-.63-3.31-.94-5.1-.92-.63,0-1.21.02-1.28.03ZM43.02,10.57c3.43.79,6.25,3.31,7.34,6.58.5,1.51.5,1.53.54,6.03.02,2.7,0,4.15-.04,4.2-.06.06-.88-.51-2.52-1.71-3.59-2.64-3.92-2.88-3.92-2.97,0-.05.12-.35.27-.66.6-1.28.6-2.45,0-3.73-.57-1.21-1.73-2.06-3.15-2.3-2.16-.38-4.37,1.14-4.81,3.31-.19.93-.08,1.8.37,2.73.15.33.26.63.24.68-.02.06-1.45,1.14-3.19,2.42-2.09,1.53-3.17,2.29-3.23,2.23-.05-.05-.06-1.52-.04-4.2.03-4.49.04-4.51.54-6.03,1.08-3.25,3.94-5.82,7.3-6.56.99-.22,1.12-.22,2.41-.2.82.02,1.38.07,1.89.18ZM48.48,35.85s.17.47.26.98.22,1.17.29,1.48c.06.3.18.94.27,1.4.22,1.15.76,4,1.09,5.7.15.77.43,2.27.64,3.33.2,1.06.4,2.1.44,2.33.05.22.17.85.28,1.4.1.55.32,1.69.48,2.53.16.83.35,1.79.41,2.12.1.48.1.61.02.71-.15.19-2.19,2.62-2.62,3.13l-.36.42h-17.6l-1.43-1.7c-.79-.94-1.48-1.77-1.54-1.84-.08-.12-.08-.26.02-.73.06-.32.25-1.28.41-2.11.16-.84.38-1.97.48-2.53.23-1.18.26-1.28.68-3.53.18-.95.39-2.07.48-2.49.08-.42.25-1.27.36-1.89.12-.62.3-1.56.4-2.09s.26-1.38.36-1.89.26-1.36.36-1.89.26-1.38.37-1.89c.1-.51.22-.95.26-.98s3.47-.06,7.59-.06,7.54.03,7.59.06Z"/>
          <path class="cls-1" d="M28.9,69.03c-.23.16-.59.61-1.88,2.35-.09.12-.5.68-.92,1.25s-.8,1.14-.85,1.26c-.18.5.17,1.03.83,1.27.3.11.87.12,14.72.12,9.67,0,14.5-.02,14.7-.06.33-.07.74-.31.88-.52.15-.22.21-.59.13-.82-.04-.12-.42-.67-.84-1.24s-.83-1.13-.92-1.25c-1.28-1.74-1.64-2.19-1.88-2.35l-.28-.19h-23.41l-.28.19Z"/>
        </g>
        <path class="cls-2" d="M33.02,48.74c0,4.32,1.06,8.19,2.74,10.8h10.28c1.68-2.61,2.74-6.49,2.74-10.8s-1.06-8.19-2.74-10.8h-10.28c-1.68,2.61-2.74,6.49-2.74,10.8Z"/>
      </g>
    </g>
  </g>
</svg>