<svg viewBox="0 0 448.17 227.78" xmlns="http://www.w3.org/2000/svg"><path d="m0 190.33c19.16 9.11 39.29 16.93 60.17 23.04 20.87 6.11 42.49 10.44 64.31 12.83 2.73.29 5.46.6 8.19.81l6.26.51 3.2.26 3.21-.06 15.77-.35 26.37-.57 13.18-.29 3.3-.07 1.65-.04.83-.02 1.1-.07 8.8-.59c3.1-.2 5.43-.46 8.06-.7 2.57-.26 5.16-.45 7.71-.78l7.67-.91c2.56-.3 5.08-.69 7.63-1.04 40.64-5.77 79.26-16.48 115.18-29.22l6.72-2.41 7.17-2.67c4.76-1.81 9.33-3.64 13.78-5.45 8.82-3.61 17.05-7.15 24.62-10.35 7.61-3.22 14.6-6.11 21.11-8.6l4.97-1.85 4.61-1.65c1.13-.39 1.83-.6 2.19-.71l.17-.05h.04s0-.01 0-.01l-.4-1.55-.42-1.7-.2-.85c-.27-1.13 1.91 7.94.99 4.12s-.07.02-.07.02c-.06 0-.02 0-.03 0l-32.8-159.36-3.17.69c-1.1.25-2.19.51-3.23.77-2.12.52-4.08 1.06-6 1.61-3.76 1.09-7.13 2.19-10.06 3.2-2.9 1-5.45 1.93-7.5 2.68l-7.08 2.64c-9.5 3.63-18.35 7.31-26.52 10.78-8.23 3.48-15.74 6.71-22.79 9.59-3.49 1.42-6.89 2.78-10.13 4.01l-4.88 1.81-5.39 1.93c-28.67 10.17-56.52 17.64-83.82 21.51-1.7.23-3.41.51-5.11.7l-5.1.6c-1.7.23-3.39.33-5.08.51-1.64.15-3.56.36-4.75.42l-4.02.31-.5.04-.77.02-1.57.03-3.13.07-12.52.27-25.05.53-9.93.21s.09 0 .13 0h.07s.02.02.02.02-.07 0-.07 0l-.29-.02c-1.54-.1-3.07-.3-4.6-.45-12.25-1.35-24.39-3.75-36.42-7.28s-23.96-8.13-35.77-13.73z" fill="none"/><g fill="#329bb7" fill-rule="evenodd"><path d="m422.88 71.84c-.71-1.08-1.13-1.04-1.31-.12.4-.11 1.19 1.29 1.31.12z"/><path d="m422.68 75.24c-.29.43-1.18-1.25-1.27-.11.51.32 1.32 1.77 1.27.11z"/><path d="m417.82 70.04c-.67-.67-.35.39-.87.85.47.76.63.54.96.83.09-.59-.21-1.09-.09-1.68z"/><path d="m396.63 45.43c-.32-.37-.65-.75-.97-1.13.13 1.22-.41.5-.37 1.46.87 1.09 1.31.98 1.34-.33z"/><path d="m420.38 75.31c-.08-.98-1.27-1.85-1.2-.79.37 1.21.43.33 1.13 1.49-.11-.49-.21-.98.07-.7z"/><path d="m394.53 45.26c-.51.16-.91-.93-1.47-1.69.15 1.1.65 2.12 1.38 3.09.03-.46.06-.93.1-1.39z"/><path d="m409.94 68.66c-.23-1.17-1.28-1.4-1.01.23.84 1.38.28-1.31 1.01-.23z"/><path d="m388.54 44.01c-.24-.06-.43.55-.52-.21-.53-.66-.18 1.11-.34 1.46-.65-1.14-1.27-1.5-2.01-1.89.94 2.53-.02 2.56-.42 3.55.42-.02.66-.54 1.53.63-.65-1.73-.16-1.08.1-2.09.19.41.39.82.73 1.19.08-.85.43-.94 1.06-.27.08-.81.13-1.64-.13-2.37z"/><path d="m407.98 68.08-.93-1.15c.15.47.32 1.39-.04 1.03.12.95 1.22 1.52.98.12z"/><path d="m409.56 77.27c-.49-.29-.75.14-.78 1.21.47.14 1.32.39.78-1.21z"/><path d="m374.87 40.05c-.75-.85-1.3-.38-.8.92.31-.2.75-.05.8-.92z"/><path d="m405.61 77.51c-.47-.07-1.46-1.56-1.25.29.56.31 1.13.64 1.25-.29z"/><path d="m384.83 60.46c-.77-.41-.15.99-.54 1.87.2.04.41.09.75.49-.61-2.12.67-.62-.21-2.36z"/><path d="m402.99 82.92c.22 1.06 1.1.86 1.9 2.28-.15-1.5-1.32-1.78-1.9-2.28z"/><path d="m397.87 81.8c-.36.23-.98-.22-.99.94.67.35 1.15.19 1.94.88.19-.73-1.14-1.08-.95-1.82z"/><path d="m370.1 50.69c-.61-1.97-.87-.12-1.25-.34.47 1.61.89.18 1.25.34z"/><path d="m371.82 57.46c.76 1.11.3-.85 1.24.69-.11-.89-.44-1.72-.99-2.49.27 1.65-.88.25-.25 1.79z"/><path d="m357.42 41.45c-.74-.61-1.42-1.05-1.46.07.53.07 1.2.51 1.46-.07z"/><path d="m407.56 98.91c-.66-1.09-.61-.25-1.18-1.08-.11.94.5 1.7 1.17 2.45v-1.37z"/><path d="m401.4 91.88c-.82-1.25-1.01-.81-1.44-1 .22.99 1.74 2.52 1.44 1z"/><path d="m404.71 98.59c-.2-.31-.22-.13-.24.06-1.55-1.34-1.92.45-3.34-.53-.13 1.18.61 2.13.72 3.25.89.79.01-1.18.48-1.15.76.7.74 1.51 1.19 1.41-.64-1.71.22-1.42.24-2.45.73 1.11.86.68 1.42 1.36.3-.76-.77-1.18-.47-1.94z"/><path d="m364.9 56.63c.41.31-.01 1.26-.24 1.11.4 1.69.36-.39.99.75.21-.86-.39-1.5-.5-2.28-.58-.53-1.02-.72-1.49-.97.07 1.09.93 1.5 1.24 1.39z"/><path d="m423.14 124.95c-.62-.62-1.51-2-1.33-.39.49.25 1.23 1.22 1.33.39z"/><path d="m424.04 127.14c-.23-1.14-.98-1.02-.88-.15.88 1.67.45-.27.88.15z"/><path d="m421.59 124.95c-.03.8.36 1.5.46 2.28.3.26.35-.15.67.19-.16-.87-.61-1.68-1.13-2.47z"/><path d="m363.68 57.66c-.74-1.93-1.2-.32-1.96-1.18.5 2.15 1.61 1.49 1.96 1.18z"/><path d="m432.85 144.59c-.44-.3-.59.69-.56 2.48.21-.76.72-.67.56-2.48z"/><path d="m358.33 57.08c.41 1.01 1.54 2.16 1.46.98-.38-.95-1.69-2.51-1.46-.98z"/><path d="m411.33 117.48c-.84-1.13-1.75.21-.44 1.82-.3-1.78.36-1.04.44-1.82z"/><path d="m395.39 99.63c-.74-1.65-1.85-1.36-1.68.44.41.35.46.8.49 1.25 1.14 1.33.26-2.48 1.19-1.69z"/><path d="m423.51 135.75c-1-1.43-1.41-1.27-1.54-.33.31-.45 1.53 1.59 1.54.33z"/><path d="m355.69 56.78c-.21-.03-.43-.08-.49-.55-.19 1.62-1.73-.12-1.88 1.55 1.02-.49 3.03 2.94 2.37-1z"/><path d="m405.76 117.52c-.8-1.3-.35.62-.45 1.14.19.04.38.1.71.51-.19-.53-.27-1.08-.26-1.65z"/><path d="m353.08 57.84c-.18-1.2-.51-.26-.97-1.11.99 1.84-.35.25-.2 1.77.93 1.56.02-1.47.95.09-.03-.52-.06-1.02.22-.76z"/><path d="m351.42 57.6c-.95-.29-2.1-2.67-2.15-1.13 1.14.84.63 2.13 1.72 2.97-.86-2.19.53-.6.43-1.84z"/><path d="m410.63 131c-.67-.21-1.05.95.05 2.39.05-1.09.33-.87-.05-2.39z"/><path d="m347.46 58.67c-1.02-1.29-1.01.03-1.63-.25-.52-.66-.53-1.46-.52-2.27-1.14-.62.14 2.48-1.1 2.35.76 1.27.53.66 1.42 1.68.04-1.31-.33-.32-.96-1.46.79-.35 2.42 1.39 2.78-.06z"/><path d="m376.8 98.17c-.89-.75-.93.78-.7 1.92.59.02 1.18-.17.7-1.92z"/><path d="m393.47 118.04c-.48.02-.31-.38-.97-1.11.08.78.5 1.47.75 2.2.33.27.19-.62.22-1.09z"/><path d="m380.93 117.38c-.63-.12-1.23-.16-1.2 1.37.27-.71 1.72.26 1.2-1.37z"/><path d="m403.16 151.57c-.61-.74-.75-.32-1.21-.7-.16.73 1.15 1.06.98 1.79.33.27.19-.62.23-1.09z"/><path d="m415.97 166.67c-.76-.65-.94.19-.88 1.62.32-.43 1.34-.26.88-1.62z"/><path d="m364.59 111.53c-.32-.37-.65-.75-.97-1.11.15.48.29.95 0 .68.15 1.02 1.23 1.59.97.43z"/><path d="m403.05 159.19c-.92-.87-.97.47-2.2-1.11.07.78.66 1.42 1 2.14-.1.68-1.08-.3-.48 1.17.47.39.18-1.12.98.07-.67-2.26.74-.69.7-2.26z"/><path d="m365.07 119.33c-.2.07-.67-.56-.74-.16-.06.97.86 2.22 1.22 2.09.31-.77-.79-1.17-.48-1.94z"/><path d="m396.46 162.41c-.67-1.54-2.47-1.51-1.74.48.49-.4.71-1.46 1.74-.48z"/><path d="m401.94 172.96c-.8-.83-1.1-.43-1 .98.31-.4.94.03 1-.98z"/><path d="m388.2 159.2c-.52-.12-1.27-.85-1.27.35.58.28 1.17.59 1.27-.35z"/><path d="m382.61 157.99c-.51-.46-.51.4-1.02-.06.07.55.62.98.99 1.45 0-.46.02-.93.03-1.39z"/><path d="m381.04 159.45c-.78-1.03-.69.21-1.29-.34.11.74 1.6 1.94 1.29.34z"/><path d="m346.34 120.93c-.06.24.08.44.22.64-.05.36-.44-.24-.72-.52-.16.44.62 2.27-.07 1.73-.03 1.25.81.21.69 1.21.33-.26 1.07-1.74-.12-3.05z"/><path d="m345.73 123.46c-.39-.62-.45-.28-.5.11-.33-.38-.66-.76-.68-1.21-.32-.29-.23.62-.29 1.08l1.16 1.45c-.15-1.21.37-.48.31-1.43z"/><path d="m340.84 118.06c-.46-.33-.65.14-.77.85.71 1.06.77.19.77-.85z"/><path d="m372.27 157.33c-.71-.22.17 1.99.67 2.58.67-.17-.43-1.63-.67-2.58z"/><path d="m374.74 160.81c-.89-.33-2.22-.97-1.65 1.47.42-.83 1.83.96 1.65-1.47z"/><path d="m371.47 157.89c-.34.4-.98-.04-1.09.98.56.21.88-.24 1.56.28-.04-.45-.48-.79-.47-1.25z"/><path d="m367.25 153.14c-.94.92-1.61-.06.37 3 .22-1.08-.2-2.01-.37-3z"/><path d="m337.37 119.5c-.72-.84-1.13-.76-1.23.27.49.16 1.19.93 1.23-.27z"/><path d="m330.42 117.9c-.56 2.05-2.04.79-1.89 3.45.87-.29 1.71-.65 2.29-1.83.26.4.16.87.17 1.32 1.2.95.39-1.6-.56-2.94z"/><path d="m360.31 158.31c-1.02-.69.6 2.5-.13 1.75.68 2.07.62-1.09.13-1.75z"/><path d="m359.96 159.43c-.55-.32-.94-.13-.89 1.24.51.29.82-.17.89-1.24z"/><path d="m325.6 121.59c-.3-.39-.6-.79-.89-1.17-.07.57.22 1.08.13 1.66.21-.32.74.43.76-.49z"/><path d="m348.58 153.48c.06.79.63 1.45.36 2.31.73.22.65-2.34-.36-2.31z"/><path d="m339.52 185.99c-1.24-1.77-1.07.58-.74 1.85.4-.09.54-1.06.74-1.85z"/><path d="m325.49 187.6c-.93-1.1-.05 1.74-1.14.54-.62-1.17.29-.94.23-1.73-.76-.65-.96.38-.78 1.82.39.05.63.36.91 1.19-.14 1.74-1.42-.63-1.51 1.28.33-.04.55-.45 1.23.8.32-1.76 1.23-1.21 1.93-.34-.33-1.19-1.29-2.26-.86-3.57z"/><path d="m320.48 189.15c-.3-.4-.6-.8-.9-1.2-.2 1.27-.39.65-.3 2.08.8 1.03.79-1.92.99.5.57.69.23-1.09.2-1.39z"/><path d="m317.99 187.89c.24.86 0 1.79-.13 2.72.22.3.45.6.67.9.03-.45.14-.54.33-.39-.32-1.23-.37-.82-.02-1.68-.41-.5-.41-1.06-.85-1.55z"/><path d="m315.45 186.95c-.13 1.32-.86.35-1.04 1.51.79.65.99-.96 2.04.69-.13-1.47-.43-.8-1.01-2.2z"/><path d="m314.1 190.53c.2-.82.15-1.6-.45-2.29-.16.12-.32.24-.38.74.15.53.44 1.05.83 1.55z"/><path d="m313.43 189.62c-.4-.49-.4-1.06-.83-1.55-.14.53.24 1.41-.16 1.03 0 .57.51 1.05.83 1.56.05-.35.11-.69.16-1.04z"/><path d="m313.28 192.35c-.09-.69-1.69-2.53-1.71-1.08.61.53 1.34 1.51 1.71 1.08z"/><path d="m304.45 190.31c-.02 1.28-.44.94-.57 1.77.63 1.2.58-.36 1.21.84.06-.91.13-1.82-.64-2.6z"/><path d="m300.4 191.89c-.56-.73-.92-.68-1.11.16l.86 1.23c.08-.46.16-.92.25-1.38z"/><path d="m297.69 191.92c-.65-.32-1.21-.27-1.82-.45-.28.82 1.22 1.41.94 2.23.43.3.15-.58.19-1.03.19-.41.73.67.69-.75z"/><path d="m296.7 195.74c-.46-.54-.45.99-.91.45.35 1.21.76 1.33 1.35 1.51.1-.69-.66-1.26-.45-1.96z"/><path d="m292.39 191.24c-.42 1.98-1.65.26-2.49.31-.1 2.09 1.52 2.12 2.24 3.75-.28-1.87-.53-2 .26-2.72.91 1.33 1.06 2.36 1.76 2.13-.3-1.88-.72-2.2-1.77-3.48z"/><path d="m293.19 195.5c-.7-.37-1.13.53-1.89-.1.25.91 1.79 2.09 1.89.1z"/><path d="m290.61 197.5c-.37-.6-.53-.23-.91-.9-.18 1.02.78 1.92.49 2.96.33.19.54-.16.7-.75-.82-.97-.65-.19-.28-1.31z"/><path d="m286.6 198.29c-.4-.8-.6-.6-.91-.91.27.75.08 1.56.62 2.29-.2-1.21.11-.41.29-1.38z"/><path d="m236.75 194.73c-.82-1.06-1.43-.2-2.02 1 .67.53 1.38 1.49 2.02 1.66.12-.89-.03-1.77 0-2.66z"/><path d="m223.57 201c-.44-1.37-.66.16-1.02-.35-.15.95.88 1.77 1.02.35z"/><path d="m208.2 199.23c-.05-1.33-1.37-1.38-1.86-.07.63.52 1.24.04 1.86.07z"/><path d="m201.46 198.37c-.58.88-1.69.83-1.85 2.14.6.12 1.7-.2 1.85-2.14z"/><path d="m189.12 200.39c-.48-.81-.93-.09-1.4-.48-.02 1.05 1.03 1.96 1.4.48z"/><path d="m175.91 194.98c-.03.77-.32 1.52-.35 2.3.26.25.5-.04.75-.59-.25-.58-.13-1.13-.4-1.71z"/><path d="m140.13 79.55c-.63-1.07-1.78 1.79-2.41.69.04 2.61 1.6.22 2.41-.69z"/><path d="m137.48 81.21c-.17-1.12-.52-.9-1.03.37.28.33.62.23 1.03-.37z"/><path d="m152.35 200.15c-.1.55-.09 1.1.13 1.69-.85-.08-1.07-.25-2.02.45.85.92 1.69 1.01 2.53.27-.48-.84-.34-1.6-.64-2.41z"/><path d="m147.37 195.05c0 1.01-.96 1.95-.28 3 .84 0 .9-1.92.28-3z"/><path d="m149.11 201.52c.23-.55-.34-1.14-.61-1.71-.56.64-.81 1.3-.89 1.97.48.62 1.02-1.35 1.5-.25z"/><path d="m109.17 202.66c-.44-.74-.94.7-1.32 1.37.25.31.6.07 1-.42-.08-.36.19-.64.33-.95z"/><path d="m106.18 206.34c-.27-.7-1.18 1.23-1.26 1.72.62.23 1.04-.5 1.26-1.72z"/><path d="m103.95 203.62c-1.1-1.17-2.56-.48-3.9-.46-.04 1.63-.77 1.11-1.5 1.99 1.79.34 3.35-1.32 5.41-1.53z"/><path d="m99.32 203.64c-.35-1.02-1.19.28-1.81.51.39.8.96.85 1.81-.51z"/><path d="m96.94 203.96c-.58-.19-1-1.07-1.74-.55-.14 1.14.81 2.05 1.74.55z"/><path d="m95.86 201.17c-.7-.29-.84-1.05-1.14-1.76-.7 1.26-1.01 1.25-1.03 3.17.61-2.17 1.35-.4 2.17-1.41z"/><path d="m90.85 219.16c.52-1.42-.72-1-1.21-.38.06.9.36.8.53 1.22.4-.39.45-1.36.67-.83z"/><path d="m86.77 204.85c.2-.16.18-.4.16-.64-.04-.25-.08-.5-.12-.75-.77 1.41-1.94-.41-3.32 1.32.11.39.06.73-.11 1.03.9-.63 1.54-.29 2.52-1.25.33 1.84-.62 1.05-.94 2.49.08 1.16 1.18-1.79 1.26-.62.32-.31-.08-2.53.55-1.58z"/><path d="m87.98 218.95c-.93-.42-1.95-.44-3.26.7.95.33 2.09-.09 3.26-.7z"/><path d="m82.68 204.85c-.51-.03.07-2.24-.64-2.35-.08 1.38-.41 2.11-1.26 2.39.39.94 1.18.33 1.9-.04z"/><path d="m81.07 206.77c-.48-.96-1.48 0-2.38.57.86.87 1.33-.18 2.38-.57z"/><path d="m74.49 204.7c-.33.48.08 1.22-.31 1.67.95.44 2.8-2.44 3.25-.22.95-3.57-2.32.06-2.94-1.45z"/><path d="m77.36 207.56c-.75-1.32-2.34.38-3.67 1.12.71 1.48 2.4-.55 3.67-1.12z"/><path d="m73.6 211.86c.57-1.7-1.11-.22-1.65.1.24 1.06 1.33-.9 1.65-.1z"/><path d="m73.56 209.7c-.71-.73-1.24-2.03-2.76.04 1.26-1.2 1.48 1.23 2.76-.04z"/><path d="m70.01 205.86c.41 1.84-1.02 2.87-1.38 1.96-.02-1.4.83-1.53 1.38-1.96.07-1.68-.97.4-.95-1.09-1.1 2.77-3.98 5.23-5.27 6.16-.64 2.29 2.53-1.05 3.01-2.39-.46 1.93.99.79.05 2.53 1.7-1.61 3.32-3.7 5.74-6.36-.39-1.21-1.43-.18-2.58 1.16z"/><path d="m65.06 207.84c.31-.47.08-1.16.06-1.77-.46.11-1.23 1.18-1.55.81-.22.52-.15 1.14-.64 1.55.19.42.48.56.67.98.66-.71.95-2.81 1.46-1.58z"/><path d="m64.13 204.6c-.49 0-1.76.44-1.42 1.95.78-.52.85-1.34 1.42-1.95z"/><path d="m62.06 208.08c.74-1.43-.62-.37-.46-1.62-.52 1.17-.37 1.29-1.19 1.67.16 1.19 1.19-.33 1.65-.05z"/><path d="m429.84 75.65c.34.75-.1 1.56.58 2.29.09-.65.37-.32.45-1.04-1.09-.09-.68-5.92-.96-1.59-1.2-.18-2.2.56-3.73-.93-.17 1.5-.46 1.01-1.01-.19 0 .44.39.83.32 1.3-.33.74-.47-1.22-1.07-1.53.29 1.57-.05 1.43-.03 4.04.62.51.7-1.04 1-1.83.84 1.77.92.5 1.25.16 1.54 2.84 2.42 1.04 3.15 2.32.29-1.46-1.16-2.37-1.38-2.2.21-1.58 1.25.9 1.44-.8z"/><path d="m414.86 65.55c-.98-.65-1.61-.18-2.16.46.69.53.57 1.24 1.15 1.79-.63-2.74.72-1.08 1.01-2.25z"/><path d="m411.4 65.95c-.38.09-.26.88.39 1.61-.07.36-.45-.23-.74-.52-.24.85.16 1.56.1 2.37-.78.13-1.73-.26-2.06 1.14-2.03-2.99-1.92.03-3.16-.64-.81-2.56 1.07-1.24.39-3.5-.98 1.3-2.67-.7-3.34 2.15-.87-1.29-1.55-2.41-1.5-.33-.83-1.29-1.22-2.9-.85-3.56-.52-.82-.38.26-.76-.16.63 1 .18 2.24 1.12 3.15-1.48-1.42-1.52 1.15-2.55.97.67-1.62.92-3.18 1.14-3.37-1.21-2.2-1.53 1.42-2.1 2.24-.66-1.62-1.37-.93-1.75-.6.05.45.47.8.46 1.26-.06.23-.26.06-.27.41-.24-.51-.22-1.08-.7-1.53-1.08.23-1.64 1.8-2.57 2.37-.19-.29-.23-.62-.48-.9.87-.95.83-2.15 1.59-3.16-1.41-1.19-1.83.3-3.01-.25.13 1.22.53.27.98 1.12.08.85-.19.73-.28 1.11-.93-.77-1.12-2.47-1.71-2.31-.04.59.28 1.07.21 1.66.24.27.2-.2.26-.41.57.65 1.44 3.15.98 1.12 1.39 1.5.78 2.48.19 2.35.27-1.13-1.14-.92-1.2-2.43-.56-.49-.05 1.82-.53 1.51-.83-1.09-.25-2.17.05-2.42 0-.91-.94-1.58-.95-2.5-.77-.67-.69.89-1.51.05-.5-1.38.13-1.1-.19-2.7-1.15-1.67-.69.87-1.75-.57.21 1.2.78.39 1.47 1.67-.39.06-.68.4-1.26-.01 1.05 1.12 1.03 1.93 1.44 3.4-.05.23-.25.07-.26.41-.8-.47-.17-1.33-.97-1.81.24 2.19-3.28 1.49-4-.99.11 1.23-.55.75-.02 2.08-1.03-.76-.95-1.81-1.72-2.63.75.14.88-1.3 1.76-.83-.91-1.27-2.43-1.02-3-.22-.49-.55-.3-1.3-.98-1.8-.15 1.11-.28 2.33-1.76.83.57 1.62-.04 1.55.98 3.18-.9-1.24-.56.91-1.73-.21 1.26 2.16-.64 1.22 0 2.76-1.27-.68-.22-2.01-1.24-2.76.13 1.37-.21 1.54-.74 1.24-.34-.71-.5-1.47-.75-2.21.95-1.17 2.65-.34 2.98-2.21-.76-1.11-.31.85-1.24-.69-.2 4-4.02-1.06-4.45 2.27-2.82-2.68-4.31 1.44-6.38-1.67-.58-.1-1.07.02-1.7-.21.7 2.43-.83.97-1.19 1.71-.26-.51-.27-1.08-.75-1.52.61 1.64-.21 1.93-.71.54-.55 2.24-2.98-.1-3.81 1.4.73.78.3 1.52.28 1.99-.51-.66-.1-1.58-.52-2.27-1.71-1.22-2.01 1.08-3.05 1.52-.92-2.34-2.27-2.11-1.89-.52-.68-1.07-.61-.24-1.19-1.06.79 3.58-3.53-.61-3.65 2.68-2.37-3.19-1.99 2.99-4.13-.31.47.26.62-.32.89-.56-.93-1.65-1.09 1.07-2.25.56-.47-.2-2.48-1.78-1.8.11.05.79-.81-.85-1.14-1.09-.3 1.43-1.49.52-1.73 2.12-1.38-.97-3.16-.15-4.62.04l-3.63.11c-1.19.04-2.36.09-3.66.18-2.52.16-5.02.38-7.49.62-2.47.22-4.92.49-7.35.81-2.43.28-4.83.6-7.22.96-9.54 1.39-18.78 3.16-27.85 5.09s-17.98 4.03-26.85 6.04c-8.86 1.99-17.68 3.89-26.52 5.48-.39-.78-.21-1.55-.14-2.33 2.93 2.15 5.13-2.21 8.04-.49.01-1.38.18-1.21.53-1.65.19.64-.14.29-.19.99.53.78.63-1.72 1.29.02.2-.88-.31-1.77-.14-2.65 1.58 3.16 3.26 1.89 4.48-.02 1.27.4 2.63 1.28 3.54-.69.19.33.27.65.26.99 1.55-2.14 4.6-.06 5.36-2.81.45.86.25 1.22.66 1.31.03-.44-.26-.88-.44-1.31 2.79 1.88 3.9-2.61 6.89-.31-.21-2.19 1.4-.34 1.99-.43.98-.14 1.22-2.46 2.03-.79.57-1.55 1.39-1.77 2.6-.19.35-.69-.54-1.29-.19-1.98-.06-.77.9.96.7 1.28.21-1.8 1.1-.34 1.46-1.44.32.42.31.86.28 1.31.38-1.84 1.38-.75 1.92-1.81.63 2.44.11.25.94 1.25-.19-.85-.1-1.65.18-1.68.13.54.37 1.08.69 1.6-.06-2.55 1.76.63 2.17-2.19.32.52.45 1.06.48 1.61 1.07-.96 4.19-.77 4.12-2.4.56-.47 1.73 1.57 1.81-.87.98 1.44 2.28 2.14 2.13.44 2.17.23 4.07-.33 5.99-.89s3.85-1.09 6.13-.99c.09-.46-.15-.87-.14-1.32.6.87.62.5 1.44 1.47 1.66-2.54 5.94.56 7.64-3.18.37.5.41 1.05.81 1.54.93-.55 1.68-1.65 2.93-1.14-.33-.91-1.43-3.62-.7-4.59.69 1.22.67 2.03 1.45 2.44.47.96.12 2.4-.48 1.1.07 1.63 1.43 2.07.86.52 2.15 2.12 2.45-1.7 4.65.52-.39-2.28.77-1.77 2.01-.02.1-.46-.15-.88-.4-1.28 1.59.81 2.59-.31 4.23.56-.06-.55-.37-1.06-.4-1.61 2.17.67 3.91-2.15 6.26.48 0-.34-.26-.62-.43-.92 2.21.1 3.85-1.46 6.54 0 1.01-1.77 3.6-.94 5.39-1.12.14-.82-.62-1.44-.48-2.27.09-.17.18-.35.43-.09.86 3.57 1.9 1.29 2.85 2.09-.43-1.75-.6-.2-1.11-1.12-.68-1.29.13-1.08.18-1.4 2.22 3.89 2.72 1.01 4.42 2.39.14-.83-.64-1.44-.5-2.27.05-.3.44.34.43-.11.31.49.21 1.09.27 1.64.64.75.96.63.87-.55-.22-.63-.84-1.16-.71-1.87-.46-.57-.27.56-.89-.48-.12-1.37.9.28.61-1.51 1.06 1.75 1.09.78 1.58.99.69 1.52-.86-.15-.63 1.17 1.51 1.91 0 .88.05 1.7 1.92 1.98.83-.55 2.47.77-.05-.67-.79-1.17-.94-1.82 0-.32.28.09.45.23-.15-.86-.38-1.17-.7-1.19-.12-1.9.69-1.37.58-3.22.59.55.8.55 1.17 1.76.47-.14-.06-2.84.84-1.91.5.56.14 1.34.28 1.98.7.77.4-.9-.05-1.7-.04-1.04 1.17 1.09 1.14.05.37.59.23 1.31.96 1.81-.43-2.52 1.06-3.56 2.02-1.2.41-.32 1.35.65 1.11-1.33 1.63 2.33 1.37-.87 2.59 1.38-.9-3.88 2.92 1.38 2.76-1.78 1.31.55 1.89-.7 3.31.14.68.78-.56.26.5 1.23.42-3.36 3.62.22 4.53-1.94-.44-.54-.51-.16-.98-.76-.27-.39-.18-.88-.5-1.25.83.08 2.17 1.37 2.93 1.26-.19-.81-.45-.55-.74-.83-.67-1.06.65.1.23-1.44.37.81.62 1.09.98 1.11-.8-3.71 2.4.66 2.43-2.06.78.7 1.11 1.53 1 2.48.78 1.03.65-.2 1.23.34-.08-.55-.62-.97-.99-1.45-.2-1.41.27-1.15.49-1.52.43.57.57 1.22.5 1.93.38-1.44 1.67-.61 2.47-1.04.39.58.21 1.32.99 1.79-.8-3.37 2.76-1.91 3.03-3.61.89 1.45 1.75.76 1.49 2.35.68.18.39-.69.02-1.74.45-.36 1.85 2.79 2.01 1.17-.67-1-.51.14-1-.4.05-.36-.05-.68-.24-.97 1.33-.24 3.27 1.19 3.59-1.67.64 1.74.66 1.49 1.72 2.98.03-1.04-.85-1.84-1.47-2.7-.29-2.74 1.96 1.14 1.83-1.19 1.23.93.56 2.38 1.44 3.4.03-1.26-.66-2.34-.92-3.53.06-1.27.97 1.06 1.02.42.33.49.18 1.1.21 1.67.62.31.97-.79.31-1.81 1.72 1.86.98-.04 2.52 2.09.39-1.47.65-1.01 1.84-.49-.2-.86-.99-1.57-.67-2.57l-1.25-1.4c-.5.09.39 1.7-.79.21-.12.49.17.88.47 1.25-.86.12-3.11 1.51-3.83-1.73-.54-.66-.15 1.11-.3 1.46-.93-1.15-.98-2.29-.68-2.91-.42-.32-1.68.23-.57 1.53-.37.64-1.47-.59-1.33 1.4-.52-.66-.03-1.6-.45-2.29-.94-1.13-1.33 1.66-2.04-1.17-.61-.64-.08 1.09.23 1.32-.44.2-.95.23-1.77-.55.08.55.43 1.03.48 1.59-.09.62-.69-.06-.78.56-.23-.51-.37-1.05-.48-1.59-.61 1.59-1.78 1.77-3.07 1.54-.64-.79.35-.22.01-1.39-.73-.78-.55.71-1.5-.62.23-.84.71-1.04 1.76.2-.65-2.73 1.93-.07 2.08-1.95-2.03-.33-3.24.82-4.84.65.16 1.22.54.26 1 1.1-.11 1.97-1.9-2.44-2.01-.47.37.23.63.18 1 .41.31 1.73-.82-.2-.51 1.53-.53-.43-.48-1.02-.49-1.59-.26-.06-.26.51-.76-.13.63 2.19-2 1.56-3.24 1.25-.82-1.42.83.51.49-.83-1.49 1-3.14 1.57-5.16 1.1-.34-.48-.21-1.09-.26-1.65-1.15-1.41-.66.86-.22 1.79-.58.57-.74-1.83-1.73-2.28-.38.91 1.07 1.31 1 2.14-1.06.19-1.29 2.37-3.13.52.53 2.28-.33 1.4-.68 2.26-.68-.5-.64-1.2-1.23-1.73-.22 1.55-1.1 1.41-1.86 1.55-.65-1.12.29-.95.44-1.15-1-1.13-1.52 0-1.61 1.47-.74-.6-.49-1.48-1.23-2.08-.09-1.12.74-.44.19-1.77-1.51.29-2.15 1.41-2.71 3.48-1.01-.76-.34-1.97-1.23-2.76-1.14.49-2.22 1.23-4.13-.28.22 2.19-.87.6-1.34.33.03.68.65 1.21.51 1.93-1.68-1.83-2.35 2.07-3.6-.8-1.21.69-3.84-.69-4.1 1.33-1.34-1.61-1.29.46-2.84-1.73.21 1.89-.84.42-.55 2.51-.61-.55-.59-1.23-1.12-1.8-1.21.23-2.36.69-3.56.88-1.2.18-2.48.11-4-.66.22.83.21 1.64.65 1.56-2.52-.69-4.95-1.12-6.63.67-.24.91-1.54-1.32-1.97-.96.05.44.43.82.42 1.27-.87-.52-1.97-1.15-2.42.45-.43-.59-.86-1.19-1.28-1.78-1.66 2.14-4.28 1.41-6.76.9.03.33.2.64.19.98-2.13-.35-4.04.03-5.92.46-1.87.41-3.73.88-5.74.79.01 2.13-3.12.72-4.73 1.02-.88.16-1.22 1.51-2.33-.01l-.07 1.35c-1.09-2.31-1.14 1.11-2.49-1-1.14 2.55-4.45.18-6.04 2.41l-.76-1.24c-2.11 2.66-5.47.27-7.54 3.11-1.65-1.88-2.08 1.49-3.71-.35-.26 2-1.47-.23-1.79 1.49-2.23-1.08-3.97-.15-5.69 1.06-1.1-.04-2.15.13-3.18.39-1.03.24-2.04.58-3.05.93-2.02.68-4.05 1.41-6.2 1.24l-.18 1.33c-.12.35-.28-.55-.27-.99-2.03 1.32-3.68 1.36-5.73 2.75-.2-.44-.41-.88-.61-1.32-.39.23.22 2.43-.62 1.32-.2-.63.13-.29.16-.99-.34-.4-.73-.04-.57.99-8.17.98-15.91 3.34-23.74 5.69l-1.47.46-.74.23-.6.2-2.39.82-2.41.85-.61.21-.9.18-1.81.35c-4.83.93-9.68 1.77-14.58 2.35-.11.32-.23.64-.35.96-2.69-.99-5.31 2.37-8.01.44-.46.41-.82 2.65-.96.56-.35.97-1.44 1.66-2.18.42-.15.43-.31.86-.47 1.29-.93-.13-1.87-.63-2.79.69-4.51-1.63-8.97 2.83-13.5-.51-.16.43-.32.85-.48 1.28-.77-1.62-2.07-1.12-2.43.4-.24-.59-.12-1.13-.38-1.72-.28 2.51-.72.94-1.09.21-.57 1.04-1.21 1.43-1.9 1.56-.35.06-.71.06-1.08.04h-.13s-.02-.02-.02-.02l-.04-.03s-.05-.03-.08-.03c-.03-.59-.04-1.15-.03-1.69-.04-.33-.04 2.37-.14.86-.02.32 0 .68.01 1.02-.08.58-.12-.68-.22.86-.04-.47 0-.91.03-1.34-.09.89-.28 1.85-.43 1.74.01-1.73.12-.87.22-1.9-.16.76-.33 1.32-.44 1.82l-.2.75-.11.39-.48.39c-.1-.6-.2-1.19-.3-1.79.24-1.5-.35.78.05 1.38-.69 1.61-1.14 1.15-1.99 2.22.02-1.46-.72-1.01-.16-2.1-.27-.57-.53 1.91-.94-.26-.6 1.29.12 1.1.22 1.43-.88 1.63-1.36-.1-2.28 1.77-.04-.47.2-.86.35-1.27-.14-.43-.48.66-.49-.82-.04 1.88-.43.68-.96 2.14-1.35-2.76-4.16 3.81-5.14-.16-.75 2.93-1.73 2.24-2.43 2.71.35-2.1.93-.39 1.46-1.62-.06-.68-.27-.38-.32-1.13.69-.79 1.53-2.63 2.17-3.15-.54 3.44 1.44.26 1.78-.14-.88-1.86-2.82-.98-4.31 1.79 0-.59.33-1.05.54-1.56-.66.3-1.88.08-2.38 3.04-.47.57-.04-1.35-.19-1.81-1.45 1.9-2.15 1.76-3.81 3.98-1.5-.36-2.99-.62-5.18 2.38-.8-.64-2.52.54-3.57 2.56-.83-.9-2.52.53-4.23 1.52-1.7.95-3.42 1.45-4.12-1.23-.37 4.3-2.08 1.92-2.86 5.65-.46-.46-2.01 3.17-1.93.62-3.13 3.01-5.47 2.68-6.71-1.1-.57.95-1.18 1.89-1.35 3.03-.46.27-.65-.37-.61-1.73-.76 1.38-.86.58-1.19.55-.66 1.72-.88 1.38-1.59 2.93-.05.93.58-.39.61.27-2.05 1.84-4.36 1.03-5.02-2.72-.95 2.27-1.72 2.59-2.25 1.87-2.85 4.3-5.44 6.19-7.76 7.26l.06-2.21c-.53 2.11-1.49 1.2-2.36 2.16.11-.44.21-.89.46-1.25-1.86.29-3.47.22-5.77 2.58-1.9.07-4.46.16-7.22 3.26-.99-.78-4.56 2.07-6.06 3.09-2.53 1.75-4.71 3.04-7.28 5.78.42.21-.02 1.27-.16 2.21-.72.81-.69-.08-1.41.73.3.85 1.04-.2.82 1.24 1.46-1.89 1.16 1.56 2.3-.6.53-.49 0 1.47.1 1.98.92-.14 1.73 0 2.47.27-1.29 1.23-1.62 1.17-3.59 3.31 1.54.21 3.32.55 5.32.48 1.99-.07 4.18-.49 6.56-1.98.45-.25.59.31.65 1.08.22-.5.37-1.06.49-1.62.35.14.88-.22 1.36-.42-.55 3.07 2.49-1.05 3.84-2.87-.06 1.21-.91 2.02-1.61 2.9.46-.25.63.83.2 1.97-1.06 1.14-.74-.1-1.82 1.68-.08 1.06 1.29-1.78.9.09.64-.41.6-1.19 1.14-1.65.2-.06.4-.13.45.23-.38 1.05-1.24 1.86-1.61 2.91-.19.14-.22-.12-.45.14.96-1.81-.57-.73-1.13-.57-.02-.63.29-1.1.25-1.74-1.37.55-2.76 3.71-3.94 3.96.34-1.2 1.63-1.91 2.33-2.91-.4-.22-1.54.09-1.85 1.66-.72-1.53-2.89.68-4.63 1.71.31 1.28 1.99-.85 3.02-1.41-1.57 2.86-3.35 3.16-3.47 1.16-1.56 1.26-3.06 2.31-3.49.76-4.55 3.02-6.8.45-11.11 2.57-.02 1.78 1.08 1 .76 3.48.94-.29 1.58.11 1.57 2.03.4-.29.44-.77.76-1.1-.37 2.32.99.61 1.11 1.77-.07.86-.65 1.41-1.26 1.96.11 1.56 1.39.37 1.88 1.03.18.98-.83 1.32-.79 2.22.58 1.35 2.06-.78 3.39-.83-.36 1.86-2.16 2.61-2.96 3.32.18.14.25.58.22 1.25.24-.25.2-.64.26-.99.81-.56.57.89 1.47-.73.02.64-.32 1.09-.27 1.74 1.26-.71 1.95-.02 2.66.65.62-.67.95-1.5.98-2.48.57-.7.93-.89 1.21-.87-.23 1.38-.62 2.68-.99 3.98-1.15-.04-3.59 1.73-4.9 4.19-1.84.03-3.79.27-4.91-1.46-.62 2.66-1.45 1.32-1.99.81.37-1.4.62.39 1.24-.45-.09-1.67-1.89.7-2.73.77-.12-1.06.93-1.38.3-1.74-1.03 2.04-2.79 1.3-3.47.35-1.58 1.58-2.09.31-3.5.7-1.01 2.04.71.89.94 1.3-1.4.84-4.57 2.11-5.2-.7-2.21 2.03-4.69-2.23-7.46 2.94-.59-1.19-2.21 1.33-2.53.02.48-1.05.83-.45 1.39-1.88-3.01 1.08-6.52 3.16-8.67 7.2.03 1.18.44 2.57-.53 3.97.45 1.96 2.43 2.42.94 6.42 1.32-1.41 1.97-.24 2.99-2.09-.02-.41-.48.09-.8.3.29-1.3.43-.76 1.11-1.28-.22 1.35-.01 1.83.43 1.82.04.93-.43 1.56-1.14 2.03.24.39.69.27 1.07-.52-.19 2.61 2.61 1.56 4.43 1.02.23 3.51 3.56.31 6.03-1.15 0 .25 0 .5-.01.76-2.06 3-3.61 2.42-5.34 4.24-.13 1.01.47.4.23 1.67 3.8-2.29 4.72-.47 7.94-1.71-.05.35-.27.62-.27 1-.98.01-2.87.97-3.99 2.38-.05 1.11.8.18.79 1.18.39-1.38.89-1.52 1.06-.55.23-.88.59-1.7 1.07-2.46.49 1.09 2.74.75 3.43-1.92.74-.83-.66 2 .26 1.27-.18.67-.8.39-1.05 1.71.46.47 1.93-1.7 2.1-2.65.54-.28-.38 1.77-.26 2.51 1.09-.56 1.02-1.73 1.83-2.43.64-.55.07 1.19-.25 1.37.33.84 1-1.19 1.31-1.58.12.19.35 1.24.02 2.26-.8 1.01-.96.49-1.58 1.07.37 1.46 1.64-.62 2.09-1.92 1.08.11 2.01.37 3.64-1.87.35 1.18-.74 1.61-.74 2.61-.75.26-1.38.24-2.1.42 0 1.5-.49 2.74-1.53 3.71.09.81.71.23 1.05-.58-.53 1.53.61.4.05 2.27 1.43-1.35 2.1-.99 3.17-.63-.15 1-1.36 1.29-1.07-.17-.22.14-.24.37-.25.62-.17.16-.34.32-.52.48.1 1.37 1.1.49 1.86.21-.22 1.38-1 2.48-1.21 3.87.81-1.19.59-.59 1.56-1.46.23.98-.21 1.63-.17 2.51.55-.36.68-.91 1.02-1.36.15.81-.44 1.27-.18 2.14 1.13-.37 1.89.19 2.72.58-.15 1.56-.63.65-1.52 1.85.1 1.03 1.25-.69 1.13.92.19-.52.69-.9.73-1.5 1.62 2.08 4.84-.11 6.6 1.61.29-.35.17-.9.17-1.39.62-.67 1.21-1.27 1.54-1.13-1.17 5.23 3.24-.24 4.12 1.13-1.88 4.4-3 2.54-4.82 4.05.27 1.25 1.78-.72 1.22 1.65l1.51-1.51c.17.68-.09 1.18-.12 1.77-.37-.2-1.25 1.07-1.36.12-.27 1.49-.63.66-1.2 2.02-.18 2.74 2.45-2.63 2.22.25 1.25-1.52 2.52-3.03 3.69-4.59.29 1.09-.29 1.81-.86 2.53-.06 1.8.82.8 1.22 1.25.18-.89.59-1.68 1.42-2.3-.16-.48-.81.49-.64-1 .73-.58 1.21-.38 1.42.61l2.21-2.32c-.37 1.97-.75 1.41.19 1.9.41 1.13-.86 1.57-.54 2.67 1.18-3.03 1.68-1.77 3.38-4.02.7.82 1.57 1.15 2.17 2.31 1.58-2.82 2.59-3.11 4.07-4.48.39 1.11-.98 1.53-1.05 2.45 1.4.19 3.96-3.73 5.19-5.84-1.13-1.17-2.74 2.96-3.85 3.5-.09-.63.06-1.17.34-1.66-.2-.73-1.34 1.09-1.14 1.7-.45-2.94-5.08 3.94-5.68-.13 2.15-3.41 4.38-2.88 5.7-2.02 2.2-4.15 4.08-3.12 6.04-3-1.06 1.81-1.75 3.16-2.51 5.47.78-1.23.98-.47 1.69-1.5.34 3.9 2.29-1.34 2.71 2.08 1.76-1.13 1.21-.83 2.74-1.46-.24-.69.36-1.05.29-1.67.51-.35.79.16 1.48-.87.34 1.41-.66 1.94-1.08 1.73-.25 1.53 1.89.14 2.21-1.34.54.3 1.45-.83 1.53 1.25.77.42 2.43-2.7 2.99-1.44.08 2.03-1.22 3.58-2.1 5.27 1.11.07 2.2-2.5 3.51-1.61.22 1.41-.13 1.63.55 1.59.76-1.07-.8-.7-.04-1.77-.4-.25-.78-.58-1.36-.12.18-1.74.27-1.53-.53-1.6-.04-.48.35-.81.61-1.2.52-.46.33 1.98.82 1.69.13-.55.57-.97.54-1.58.6-.38.92.44 1.42.48.01.93-.2 1.22-.6 1.2-.36.26 0-.58-.19-1.11-.3.95-.74 1.86-.56 2.97 3.18-4.65 5.05-4 7.52-5.98.12.5.23 1.01 0 1.4.38-1.01 2.24-2.46 3.26-2.47-.22 1.73-1.95 2.21-2.05 3.2-.1-1.55-.62-.86-.21.28 1.95-1.15 3.57-1.63 4.83-1.32.04 2.34-1.8 1.1-2.24 3.51.58.05.63.78 1.21-.68 1.6 2.16 5.97-2.16 8.05-2.54.27.99-1.43 1.45-.77 2.56.59-1.82 1.41-2.2 2.12-2.54-.37-.44-.7-1.07-1.23-.68-.03-.35.12-.65.04-1.02 1.07-1 1.51 1.58 2.79-.62.18.62-.07 1.13.14 1.76.94-1.39 1.42-.18 2.22-.78.16.61.08 1.17-.13 1.69.25.59.83-.84.95.6.37-.37.31-.85.22-1.33 2.63.79 4.53.48 7.27.07.12.72-.11 1.35-.57 1.92.41.25.96-.44 1.35-.01.81-.73-.07-1.84.66-2.59.49 1.48 1.24 1.02 2.09-.22.32.76-.12 1.34.31 2.12.35-.72.1-1.57.45-2.29.57 2.03.69-.07 1.8-.29.32.75-.12 1.34.32 2.12.18-.53.25-1.08.06-1.7 1.02-.83 2.74 1.71 2.48 3.96 1.5-1.06-.89-2.15.18-4.05.49.12.25.99.81 1.86.81-1.19 1.49.18 2.02-2.32.16.02.32.02.48.05.14.03.42.09.6.21.39.24.68.73.75 1.76.4-.5.8-1 1.19-1.5-.6-1.88-.39 1.38-.99-.5.77-2.41 3.63-.29 5.41-1.82-.34 1.31-.22 2.46-1.18 2.84 1.3 2.04 1.75-2.4 3.13-2.7.83 2.16 1.84.29 2.79-.51.54.95 1.11 1.22 1.68 1.17.14-.01.29-.04.43-.08.15-.04.19-.09.3-.15l.53-.39c.1.73-.06.85-.28.93-.23.08-.43.1-.68.66.41 1.02-.56 1.98-.24 3 .14-.25.29-.47.44-.67s.2-.38.32-.55c.2-.34.4-.63.6-.92.41-.59.8-1.21 1.1-2.29.21.64.51.08 1.01.77.3 1.97-1.5.31-.49 2.62-.37 1.32-.76-.44-1.13.88.4 1.61 1.42-1.09 1.39 1.15.39-1.17.85-.64 1.51-1.84 0 2.73.73.07 1.4 1.82.75-1.94 1.51-1.32 2.25-2.43 0-1.37-.66-2.4-1.02-1.45.03-2.32 1.17-.93 1.63-.83.13 1.05-.19 2.1-.36 2.3.11 1.1.47 1.15.53 2.73 0-3.01.73-.78 1.37-2.86-.31-1.78-.59.22-.89-1.1.42-.13.83-1.33 1.26.13.14.66-.21.28-.37.96.19.67.54.36.39 1.04.49 1.05.13-2.17.63-.27-.15-1.13-.42-2.27-.03-3.34.61.03.05 1.13.52 2.06.33-.75.19-1.54.11-2.33.21-.1.43.47.63-.27.68 1.52-.34 2.86.16 4.36.12-.88.33-1.75.23-2.65.41-1.46.85 1.53 1.26-.53.48.83.34 1.6.65 2.4.54-1.33 1.09-.43 1.64-.16.27-2.3 1.21-1.6 1.88-1.47.36.71-.63 1.26.02 2.01.52-2.04 1.18-.97 2.01-1.12.51-.73-.26-1.59.1-2.33.73-.32.17 1.99.79 2.76.33-.07.46-.41.49-1.29 1.3 3.8 2.5-1.82 3.79.41.39-2.22.67-1.85 1.47-3.19.23-.04.41 1.33.9 1.1.17 1.7-.73.85-.99 1.9.8 1.1 1.35-.25 1.87-1.46.64.62.37 1.39.8 2.76.49-.44.81.54.99-1.23.17.46.35.92.52 1.38-.26-1.82 1.06-2.48 1.64-.16.34-2.42.72-1.36 1.38-.85.49-1.17-.07-.4-.27-1.36.28-.86.59 0 .88-.24.53 1.63.19 1.61.04 2.67.55.04 1.1.47 1.68 2.52-.12.42-.24.49-.37.29.11 1.27 1.27.69 1.78.86-1.35-1.05-1.17-3.22-2.46-3.93 1.12-2.79 1.41 2.09 2.3 1.58-.07-1.46-1.05-3.01-.96-4.44.37 1.3 1.23 1.11 1.56 2.84.32-1.41.29-2.86.56-4.28-.08 2.39.55 2.28 1.07 3.46.27.92-.49 1.72.05 2.68.19-1.06.31-1.07.21-2.65.33-.05.83 1.23.49-.62.38.05.77 1.01 1.17 1.79.04 1.03-1.15.04-.84 2.25.65-1.15 3.61-3.88 3.16 0 .38.15.73-1.42 1.13-.22.45-3.15 1.86-.57 2.71-3.71.29 2.23 1.02.85.81 2.76.44.55.28-1.72.84-2.25.97.24 1.96 1.25 2.89-.69.16 1.87.98 1.38 1.01.11.42 1.8.77.68 1.17 1.79-.15-1.1-.34-1.13-.56-2.73.48-.17 1.09 1.2 1.31 2.14.76.35.34-1.97 1.5.07.05-.55-.22-1.12.12-1.66-.33.22-.66.2-.99 0-.34-.2-.67-.58-.94-1.1l.35.05.42.04.84.08c.56.05 1.12.06 1.67-.02.1.33.02.67.18 1.01-.5.62-1.5-.77-1.5 1.28.85 1.05 1.44-1.63 2.62.43.19-.49.38-.98.59-.65.1-.55.08-1.11-.21-1.68.62-1.15 1.33.09 1.95-.93.59.69.24 1.34.7 2.02.55-.84-.42-1.67.39-1.65.63.88-.26 1.65.54 1.68.4-.54-.13-1.12.07-1.66 1.28 2 2.68 2.01 3.83 1.73 1.14-.28 2.2-.82 3.16.13.29.67-.3 1.32-.14 2 .85.66 1.43-2.39 2.44.38.07-.55.03-1.11-.27-1.67.19-1.21.54-.38.75-1.31.41.56.15 1.11-.01 1.66.49.89.84-.16 1.3.36.11-.44-.21-.89-.39-1.34.19-1.15.56 0 .8-.65.09.56-.09 1.11.28 1.67.15-.44.31-.88.46-1.32.45.67.16 1.33.73 2.01 1.33-.54 2.64-1.11 4.02-.98l-.51-1c.38.04.61-1.49 1.06-.67.42.56.17 1.11.02 1.67.91.77 2.21-1.01 2.52-1.67.37 1.38.74 1.69 1.2.67-.86-1.27-.22-1.32.08-2-1.21.7-1.97-1.2-3.27-.33-.08.63.16.26.34.67-.14 1.49-.64-.82-.78.67-.61-1.64-.57-1.2-1.37-2.66 1.78 1.36 3.69-1.53 5.11.66.05-.33-.07-.67.04-1 .46-.7.02 1.27.59 1.66.55-2.75 1.57-1.11 2.46-.68.02-1.85.62-1.74 1.25-1.37-.04 1.34-.38 2.68.17 4-.37.44-1.14-.05-.98 1.36.52-.25.57.05 1 1.31.05-1.51.47-1.2.45-2.34.41-.54 1.03.7 1.33-.7.86 2.4 1.96 1 2.82-.07.29 2.02.77 1.82 1.31.3.18.55.25 1.11.06 1.66 1.06.9 1.72-1.4 2.75-.74.16-.66-.54-1.32-.26-1.98.16-.93.78 1.67.84-.04.32.54.41 1.1.36 1.66.49.27-.29-1.83.57-1.03.45.65.67 1.3.55 1.97.57-1.02 2.11.67 2.07-1.42.49.64.23 1.32.84 1.96-.3-2.05.69-.37.66-.36.95-.35.87-3.01 2.26-1.1-.11-1.96 1.2-1.11 1.78-1.42.13.55-.01 1.11.39 1.65.09-2.19 1.11-.17 1.47-2.42 0-1.41-1-1.7-1.13-.93-.3-.26.39-1.57.63-1.38 0-1.6-.69-.33-.94-.6-.23-.55.06-1.12.16-1.68.19-.2 1.13 2 1.38-.09.49.75.95 1.5.79 2.29.7 1.14.93-.66 1.69.89-.02-.89-.36-2.01.24-2.02.11 2.47-.65 4.3-1.48 5.77.5.18 1.09.88 1.62 1.23.1-.67-.07-2.02.54-1.04.05-.56-.2-1.1-.13-1.66.48-.94.49.75 1.25 1.59-.58-2.76 1.81-3.36 2.62-.51-.29-1.64.6-.05.7-1.71-.67-1.14-.85.58-1.52-.57-.2-1.24 1.19-.16 1.68-.11-.07-.66-.03-1.33.22-2.02.19-.8.51 1 .23 1.32.58.46.2-1.77-.26-2.32-.24.51-.71-.3-.8 1.06-.25-.65-.38-1.31-.62-1.96.48-1.01 1.48.96 1.94-.14.38 1.26-.29 3.79.7 3.95-.49-1.77.03-.93.41-1.71.44 1.94-.31.92.91 1.93-.18-1.28-.21-1.72.28-2.36.7 2.47.87-.98 1.91 1.17-1.61.53-2.54 2.75-4.71 1.4 1.1 2.17-1.11 1.12-.36 3.69.34.62.52.27.88.94-.12-2.18 1.34-.72 1.81.53-.75-1.85.34-1.79-.5-3.63.39.07.57-1.05 1.12-.1.48 1.03-1.15 0 .15 1.66-.02 1.49-.71-.77-.73.73.37.53.32 1.09.71 1.61.42-2.28.96-.6 1.45.88-.49-2.76 1.63-1.14 2.39-1.88.06-1.27-.21-.86-.73-1.61.51-2.32 2.45-.43 2.52-2.56.72.71.22 1.54.58 2.29-.73.15-1.4.69-2.25.2-.09.9.07 1.78.49 2.63.06-.7.31-.4.57-.05-.02-.45-.03-.89-.24-1.32 1.17 1.9 2.9-.33 3.01-2.27.32 3.37 1.34 1.49 2.17 3.81.12-.6.35-.66.64-.41-.1-1.81-.7-.26-1.1-1.22-.52-1.34.11-2.34.42-4.39 1.01 1.72-.21 1.95.09 3.34.96 1.18.52-.23 1.06-1.12-.4-.74-.4-1.52-.6-2.28.23-.53.85.95.91-.43-.87-1.25-.92 1.57-2-.79-.42 1.45-.89 2.69-1.64 2.51-.41-.78.53-.61.71-.74.02-1.21-.96-1.1-.56.06-1.49-6.4 3.74-1.54 5.46-3.92-.3-.42-.6-.83-.55-1.28-.52-.93-.44 1.08-1.04-.23-.27-.92.56-2.25 1.25-.79-.62-1.51.11-3.73.97-2.11.24.33-.51 1.51-.96.77.6 1.91.11 1.95.33 3.65.76.68.68 1.18 1.52 1.85-.84.85-1.7-.4-2.39 2.26.92 1.48.28 1.56 1.38 2.53-.25-1.09-1.01-2.13-.4-3.31.92-.14 2 .44 2.79-.3-.5-.61-.76-1.25-.69-1.93-.48-.27-.9-.24-1.32-.19-.17-.93.24-1.58.42-2.06.38.41.34.86.27 1.31.99.78-.2-1.9.83-1.43.27.98.14 2 .48 2.97.44-2.57 2.84-.41 3.31-3.08.37.74.19 1.55.92 2.24.34-.83 1.04-.01 1.16-1.82-.51-.6-.8-1.24-.99-1.89.47-.85 1.25-.34 1.64-1.54.62 1.25.41 3.83-.66 2.09.54.94.24 1.98.79 2.92.04-2.38.88-1.56 1.69-3.23-.63-1.3-.5.7-1.04-.21-.35-1.61.75-.37.87-1.78.39.51.37 1.07.79 1.58-.53-3.58 1.63-.12 1.96-1.92.97 2.35-.63 1.89-.34 3.4.21.28.24-.18.34-.38.77.57-.04 1.35.73 1.92.25-1.07 1.25-.11.58-1.77.12-1.5 1.07.52 1.37-.19.32.84.37 2.11-.24 1.38.65 2.23 1.32-2.1 2.24 1.03.12-.69.24-1.38.36-2.07-.48-.49-.53-1.05-.81-1.57.34-.87.65.37 1.14 1.19.2-2.73 1.63-.39 3.41.52.35-1.95 2.81.41 3.68-1.23-.38-1.54-.67-.27-1.2-.82-.25-1.75 1.2-1.59 1.85-1.64.66 1.58-.85.15-.26 1.73.62.66 1.08 1.08 1.32 1.81.16-.71.24-2.78.36-4.1.49-.58.93 1.61 1.55 2.12.39.16.89-1.97 1.32.13.58-1.94 1.76-1.63 2.89-1.47.89.86.03 2.02.92 2.88.52-1.1-.76-1.9-.38-2.98.34-1.06 1.11 1.52 1.79 2.4.18-.72.8.15 1.09-.19.14.88.5 1.72 1.25 2.49-.11-.48-.22-1.42.15-1.04.07-.96-.45-.04-.9-1.19.04-1.23.7-.22 1.09-.19.05-.9-.84-1.08-.95-.85-.26-.75-.32-1.52-.49-2.28.5-.17.85 1.01.64-.78 1 1.35.18 1.17.49 2.28.81.78.29-.85.23-1.73.49-.64 1.34.04 1.9-.33.32.96.15 2 .4 2.97.74.37 2.04 2.82 2.46 1.59 1.11 1.86 1.54 2.9 2.83 2.87-.55-.58-1.03-.54-1.37-1.78.15-1 .68-.61 1.13-.55.08-.7-.57-1.25-.28-1.98-.48.25-1.98-1.31-1.63.31-.3-.74-.66-1.46-.51-2.28.41-.26.85 1.74.85-.5.79.53.03 1.34.82 1.87-.67-1.92.08-2 .94-1.19-.02-1.28-.62-1.48-.91-1.18.05-.66.37-.37.39-1.1.38.72 1.39 1.32 1.33 2.12.29.13.63-2.01 1.04.14.62.51-.17-2.99.79-2.18.3.51.09 1.12.07 1.68.73.07 2.51 1.6 2.17-.41.12-.31 1.25.07.92 1.17 1.12-.48 2.03-2.85 1.26-6.69.28-.17.69.11.84-.51.86.96.18 2.22 1.24 3.14-.24 1.39-.51.54-1.07.22-.3 1.19-.1 2.28.7 3.25.03-.34-.26-.63-.43-.94.23-.68.39-1.53 1.12-.56.59.84-.38.2-.15 1.39.77 1.26.45-1.04 1.27.42-.72-3.15 1.43-1.29 2.9.09.08-1.24-.26-3.52-1.22-3.49.74 1.6 0 1.15-.61.8-.31-.53.04-.64.3-.4-.67-1.4-1.72-.05-2.58-.49 1.45-2.69 5.29-1.67 7.43-3.57.27.4.14.88.14 1.33.5.39.94.56.86-.87.88 1.99.63.16 1.48 1.05.63.65-.4 1.68.58 2.25-.19-2.19.48-1.04 1.64-.69-.13-1.7.02-2.88 1.4-.98-.03-1.56.75-.63.71-2.19 2.88 4.07 4.28.16 7.42 1.73-.54-1.38-.33-2.7.58-.82.28-.86-.11-1.57-.35-2.31.13-.18.26-.36.53-.12.26.97.75 1.88.57 2.94 1.19 1.06-.71-2.69.85-.88-.56-2.3-.06-1.56.65-1.85.52.68.46 1.49.36 2.31.62-1.98 3.3-1.09 2.89-5.16.42-.87.79.17 1.35.35.73.85.31 1.99 1.15 2.81.22-.97-.19-1.78-.61-2.6.81.17.27-.81.67-1.54 1.01 1.56.9 3.94.22 4.07.46.4.49.9.22.63 1.62 1.56 3.65 3.16 3.89-.66.81.71-.04 1.84.91 2.51-.16-1.9 1.97-.26 2.79-.73.07-.59-.27-1.08-.17-1.68.24.51.21 1.09.71 1.53.46-.24 0-.47.08-1.4.27.38.13.89.47 1.26 1.08 1.14 1.26-.13.63-1.55.29.38.45.42.53.21.29.38.18.88.19 1.33 1.31-.28 4.17 1.47 4.07-1.11 1.87 1.37.68-.82 1.85.18-.27-2.65.32-2.36.68-3.99-.62-.74-.8-.3-1.29-.68-.02-1.21 1.01.33 1.07-.64.29.38.2.87.22 1.32.88-.09 2.2.95 3.09.86.3.38.2.87.22 1.33.45.02 1.01.36 1.06-.65-.91-3.53 3.53.46 3.89-2.13-1.69-.08-3.27.09-5.13-.29.21-.95 1-.42 1.57-.44-.38-1.53-.82-.16-1.28-.68.02-.69.03-1.38.05-2.08.45.45.52 1 1 1.45.75-1.11-.46-3.98 1.31-3.13.55 1.06-.32 1.55-.28 2.5.33.72.93 1.35.99 2.14.07-.53-.82-4.54.8-3.34.44.57.57 1.23.49 1.94.97.95-.07-2.96 1.04-2.37.85.68.32 1.76 1.24 2.42.05-.24-.09-.43-.25-.62-.37-.84.61-.34-.24-2.01.33.2 1.33.38.5-1.18.39.17.37-.69 1 .07.49 1.13.08 2.51.74 3.59.16-.46.4-1.08.5-1.87.6.52.54 1.23 1.25 1.72.58-.65 1.5-.41 2.22-.62.55.66-.31.51.02 1.73 1.32.68-.21-3.65 1.69-1.52.13-.35-.31-2.11.23-1.45-.07-.95-.42 0-.99-1.11 0-.34 0-.69-.01-1.03 1.2.97 1.45-.46 2.68.63.68 1.58-.22 2.04-1.2.68-.02.86-.12 1.49-.48 1.51.35-.21 2.24 1.8 1.95-.54.86.8.62 1.9 1.48 2.69-.44-2.34 1.04-2.56 2.1-2.99.73 1.05-.22.47.03 1.37.5-.17.7.96 1.46 1.66.27-1.1 1.22-.43 1.37-1.75 1.63 1.68.67-.64 1.09-3.05-.43.32-.63 1.2-1.38.72-.07.48.2.86.5 1.24-.12.55-.43.63-.93.25-.49-.46.03-.93.22-.74-.57-.95-2.84-3.47-2.62-1.35-1.13-1.73-2.4-1.22-2.88-.24-.64-.82-.81-1.62-.72-.14-2.04-1.7-3.51-1.79-4.38-.5-.91-2.12-1.52-.09-1.97-2.21.06.7-.37.73-.73 1.24.45.53.52.16.99.76-.12.36-.36.45-.49.83-.31-.49-.51-1.01-.5-1.58-.73-.9-.77-.07-1.49-.96-.07.48.23.85.25 1.31-.65-.82-1.25-1.5-1-.07-.39-.41-.95-1.21-1-.75-.59-.52.14-1.42-.75-1.86.49 2.55-2.1 2.09-3.26.56-.75-.59.23 1.01-.01 1.39-.05.23-.25.07-.25.42-.77-.59-.73-1.41-1.5-2-.04 2.21-2.36.96-3.83.73.16 1.26-.28.98-.3 1.8 1.19 1.19.07-1.27 1.05-.63.07 1.07.05.77.98 2.14-.04 2.26-1.21 1.38-2.06-.12-.1-1.23 1.25 1.24 1.04-.29-.59.13-1.57-1.59-1.48-2.69-.82.24-1.98-.43-2.82-.26-.44-1.78-.27-1.05-1.25-1.73.28-.53.9-.17 1.78.89-.01-.68-.82-1.15-.73-1.87-.3.58-1.13-.22-1.55.08 0 .92.82 1.61 1.49 2.35-.57.64-1.69-.11-1.88 1.55.22.86.81 1.62.96 2.5-.61.69-.64-1.62-1.5-2.01-.37-.56.11-.33.04-1.04-1.6-1.93-2.79-.06-4.62-2.19-.31 2.29-1.89 1.23-2.97 1.47-.96-1.51.21-1.59-.36-3.35-1.28-1.03-.22 2.37-1.54-.62.15 1.11.53 2.15 1.16 3.14-.65 1.02-1.74.93-2.96.42.6 2.51-.68 1.83-1.45 1.75-.29-.39-.17-.88-.18-1.33.11-.39.64.41 1.02.77.07-.36-.02-.69-.2-.98.01-.23.03-.47.04-.7-.78-.67-.61 1.31-1.83-.56.01-.93.61-.22.83-.55-.45-1.74-1.08-.6-1.53-.99-.08-2.88-1.2-.21-2.32-1.13.41.97.88 2.83.32 3-.2-1.71-.92-1.51-1.63-3.37 0 .45-.1.55-.3.41.87 1.69-.12 1.7.28 3.36-.45-.16-2.27-1.66-2.42.25-.76-.75-.62-1.68-.87-2.54-1.01-.64-1.72-.59-2.46-1.48-.03.45-.06.92-.09 1.38l.95 1.15c-.13-1.9 1.05.07 1.54 0-.14 1.51-1.43-.36-1.61 1.04-1.3-3.86-1.98-1.32-3.64-2.93.53.34.61-.67 1.27.05-.51-1.6-1.36-.76-1.75-.63.17.88.5 1.71.59 2.6-.54.64-.91-1.57-1.39-2.08.05.7-.22.43-.52.12.65 1.99.04 2.13-1.29.29 1.1 2.01.04.74.07 2.72-1.33-1.59.41-1.75-1.05-3.18.56 2.4-.14 1.87 0 3.4-1.14-1.35.24-1.66-.31-2.65-.64.12-.77.17-.65 1.84-1.04-1.23.19-.84-.37-1.96-1.88-1.99-1.35.73-2.19 1.83-.55-.68-.64-1.45-1.37-2.09-.09 1.6-1.1.31-1.38 1.31-.44-.81-.45-1.72-.82-2.54-.02-.64.26-.32.31-.75.64.55.39 1.28.62 1.91.68-.49.54-1.68 1.64-1.37-.73-.39-1.65-1.4-1.99-.59-.73-.81.67-.26-.15-1.33.8.49 1.3.05 2.02.26-.03-.45-.45-.81-.42-1.27.27-.78.55 1.18 1.17 1.45.03-.61.24-.68.54-.45-1.26-3.97 1.56.63 1.41-2 .74.73.54 1.96 1.15 1.79-.06-1.36-.97-2.51-1.01-3.87-.65-.86-.61.37-1.23-.4.01.45.41.82.68 1.21-.06 1.2-.78.43-1.29.27-.46-1.14.23-.63-.11-2.01.44-.33 1.12.08 1.33-.97.74.73.54 1.95 1.15 1.79-.75-4.83 3.16-2.14 4.71-2.76.37.82.07 1.8.61 2.59-1.7-.13-3.61-.9-5.04-.24.15 1.19.96 1.01.77-.18.76 1 1.18.58 1.13 2.13.34-.35.67-.75 1.07-.91.39.81.21 1.77 1.11 2.47-.22-1.91.12-1.35.84-1.2.74.63.39 1.5 1.14 2.13 1.1.34 1.82-1.14 1.93-2.48.17.53.64.99.67 1.56-.06.96-.6-1.6-.52.12 1.18 1.07 1.63-.24 2.83.7.06-.82.12-1.63.17-2.45.57.78.88 1.62 1.69 2.33-.21-2.28-1.09-1.98-1.65-3.03.1-1.25 1.75 1.93 1.59-.05 1.09 1.11.36 2.66 1.61 3.72.02-.34-.28-.62-.47-.91.65-1.36 2.01-.62 3.19-.46.04-1.5-1.32-2.65-1.71-2.32.28-.71-.33-3.84.67-2.56.67 1.12-.41.51.17 1.67.78 1.34.24-.91 1.02.42-.15-1.29-.65-1.62-.14-2.37.54.55.77 1.18.69 1.89 1.2 1.08-.28-2.69.86-1.59.55.88-.01 2.07.91 2.86.22-.86-.2-1.56-.16-2.37.12-.19.24-.38.52-.14.41 1.01-.32 1.21.41 2.65.61-.32.83.71 2 1.88 1.66.82 2.37-1.15 3.18-1.53.13 2.47 2.57.71 3.82 1.38.59 1.68-1.3.09-1.1 2.02 1.65 1.24 1.32-2.26 2.86-.43-.03-.45-.45-.8-.74-1.18-.23-1.6.65-.31.55-1.54 2.16 2.81 2.29-.45 3.79 1.72.6-1.76 1.99-.26 2.07-2.64-.5.03-.31-.38-.99-1.11.58-2.41 2.37.97 3.49 3.52-.18-1.33-.94-2.5-1.23-3.8.69.21 1.16-.12 2.01.48.52.77-.37.91-.26 1.8-.42-.68 2.36.58 2.5 0 .41.2 1.08 1.89.5 1.24.62 1.49.51-.11.74-.21-.04-.45-.45-.8-.74-1.17.96-.4 4.05 2.88 4.7.75l1.23 1.38c0-.68.67.31.48-.83 2.38 3 2.12-.59 4.41 2.22.42-1.91 1.98-1 3.85.66-.25 1.17-.01 1.86-.19 2.81 1.15-.42 1.48-2.92 2.84-1.12-1.1-2.62-.77-4.09-2.28-6.95.72.18 1.64.84 2.38 1.07-1.17-2.74-2.54-.41-3.85-3.77-.06-.79.85.83 1.2 1.05-.7-1.97.9-.39.66-2.24.34 1.05.7 2.1 1.71 2.98-.66-1.49-.42-1.92-.3-3.02.84 1.09 2.12 2.47 1.41.65.75.71.96 1.84 1.43 1.68.71 1.11.28.83.28 1.65.6.13 1.22.3 1.37-.71.81.93.41 2.18 1.24 3.11 0-.53-.83-3.08.18-1.77-.22-.74-.22-1.54-.98-2.15.37-.88.37-.57-.06-2.39-.2-1.13 1.12 1.57.92.45.04-1.32-.78-1.16-1.19-1.75.19-.34.85.48.9-.23.56.76.19 1.78.98 2.48-.4-1.38.56-.79.68.17-.29-2.6 1.32-1.76 3.17.22-.25-.73-.27-1.53-.52-2.26-.72-.52-.52-.62-1.4-1.71-.09.59.35 1.05.72 1.53-.75.72-2.42-.9-3.67-1.45.35-1.32 2.13.97 2.49-.3-.56-.26-1.12-.53-1.85-1.23.16-.85 1.26.67.87-1.6.56.77.47 1.7 1.2 2.43-.04-.64.26-.37.19-1.07.49.44.46 1.03.5 1.58.46.56.27-.56.9.46-.59-1.81.56-.92-.08-2.71 1 .89.79 2.08 1.65 3.01.07-1.08 1.54-.17 2.02.87.24-1.32.98.66 1.3-.31.69 1.08-.19.44.05 1.35 1.12 1.19 1.2-.33 2.18.51-.14-1.03-.21-1.37-.74-2.89.48.22.94-.53.38-2.14.72.51.2 1.31.92 1.83.47.31.35-.93 1.08.1.1-.91-.45-1.59-.05-1.69.74.97.28 2.2.74 3.23.1.99-1.26-1.94-.85-.15.65 1.44 1.4 1.06 1.49.01.62.55.59 1.23 1.11 1.79.12-1.21.74-2.72 1.44-1.33.3.29 0-.57-.24-.97.3-.31.53-.8 1.48.71-.19-1.24.34-.48.16-1.72-.07 1.14-1.67-1.98-1.46-.04-.88-1.51-.66-2.23-1.77-3.01-.16-2.26.84 0 1.06.12-.14-1.63-.83-1.05-1.33-2.43.15 1.04-.06 1.09-.64.13.15 1.25-.39.51.04 1.7.61.62.6-.28 1.1 1.45-.04.62-.97-1.2-.85-.15-.63-1.17-.31-1.7-1.12-2.13 1.01 2.1-.49.05-.85.19-.2-.35-.78-2.23-.25-1.63-.28.11-1.74-1.8-1.97-.92-1.41-2.61-1.42-.68-2.7-3.12-.35.7.23 2.03-.39 2.14-.31-.49-.21-1.08-.26-1.64-1.23-1.88-1.25-.55-2.03-1.22.14.86.38 1.16.7 1.2.29 1.63-.78.19-.18 1.75-.14-.28-.91-1.95-.92-1.15-.68-1.13-.27-.83-.26-1.64-1.02-.98-1.03.69-2.51-1.44 1.07 3.34-1.42-1.3-.87 1.58-.64-1.98-.78-.65-1.41-2.04.32-.33.58-.84 1.6.62-.65-2.7 1.25-.87 2.5.41-.32-.95-.64-1.9-.52-2.95.09 3.23-4.94-3.59-3.8 2.31-.83-.13-1.38.51-2.53-.38.15.87.39 1.17.72 1.19.02.68.03 1.36.05 2.05-.14.27-.49.03-.93-.45-.05-1.09.72-.09.42-1.83-.67-.74-.97-.55-1.64-1.29l.03 1.36c-.17.11-.42 0-.7-.16-.52-.66-.53-1.46-.52-2.27-1.08-.33.74 3.14-.64 2.23.11.55.32 1.06.73 1.53-.02.6-.13.96-.45.81-.63-2.85-2.73-3.1-3.83-4.13.38-.95 2.84.46 1.84-1.87.68-.23 1.79.67 2.32.08-.63-1.79-1.04-.31-1.64-.95.21-.99.49-.29.19-2.11 1.35 2.63.8.13 2.15 2.87.13-1.29-.59-2.36-1.23-3.45.22-.68 1.01 1.28 1.42 1.68-.02-.81.39-.52.2-1.77.66.51.62 1.21 1.19 1.75-.09-1.66.27-.14.92.11.15-1.1.99-.45 1.11-1.65.74.6.5 1.47.95 2.16-.35.66-1.95-.56-.87 1.93.38.12.22-1.14.42-1.48.19.41.39.82.71 1.2-.04-1.5.03-1.63.9-.57.2-1.31-.96-2.27-.75-3.58.04-.22.23-.06.22-.4.73.73.67 1.66.96 2.5.87 1.43.64-.03 1.37 1.03.07-.47-.19-.86-.48-1.25.39-.92 2.17 1.85 1.79-1.11 1.63.77 2.02-.81 3.81 1.16-.21-1.67.59-.57.87-.88-.43-1.55-.71-1.85-.7-2.91-1.03-1.26-.88-.85-1.81-2.31.32 1.6.37 1.14.48 2.61-.32.54-1.22-.46-1.1 1.28-.72-1.09-.38-2.41-.72-3.58-.57-.75-1 .54-1.59-1.33-.94-.31-.84 2.15-2.51-.08.09-1.08.76-.61.9-1.58-.41-.21-.58.22-1.39-1.04.37 1.35.27 1.38-.46.11-.03 2.46-2.18-.72-2.75.34-.71-.51-.43-1.27-.49-1.94-.74-1.05-.61.17-1.16-.39.64 1.08 1.08 2.21 2.13 3.23.22.51.36 1.05.48 1.59-.23.18-.62-.07-.93-.11-.37-.59-.22-1.31-.95-1.81-.09.59.17 1.1.25 1.64-.05.3-.46-.33-.46.12-.8-1.26-.04-.8-.49-1.94.03-.91 1.11.92.92-.57-4.1-.46-7.67.59-12.2-.57.79 2.63-.92 1.62-1.9-.18.3 1.42 1.22 2.65 1.5 4.07-.42.83-1.37-1.69-1.68-.57-.29-.38-.22-.86-.26-1.31-.74-.2-.75 1.42-1.66.8-.65-3.55-2.16-1.47-4.14-3.68-.23.75.56 1.23.99 1.79-1.02.15-.73-.31-1.94-.84.06.56.73.95.74 1.52-.15.28-.51.05-.97-.42.21.63.34 1.29.27 1.99-.13 1.13-1.03-1.52-.96.27-.43-.57-.57-1.22-.51-1.93-1.81-.52-1.97-1.51-3.39-.09-.3-.49-.51-1.01-.51-1.59-.4 2.13-2.23.68-2.89 2.19-.22-.4-.45-.8-.5-1.25-.47.06-.51 1.19-.47 2.55-.64-.51-.89-1.13-.75-1.86-1.16 1.15-4.01-1.92-4.15 1.84-.75-.6-.47-1.48-1.23-2.08 0-.68.67.32.49-.82-.94.82-1.63 3.08-3.67 2.04.35 1.41 1.35.7 1.22 2.42-1.16-1.12-2.1-2.03-2.46-1.4.41 2.08.57 0 1.23.7.09 1.5-.68.83-.99 1.3-.42-1.04-.71-2.11-.97-3.18-1.05.8-1.06 3.36-2.97 2.52-.26-.39-.16-.88-.49-1.25-.43-.54-.52-.17-.98-.77 0 1.32.26 1.3-.02 2.07-.28-.62-.65-1.21-1.21-1.74-.37.82-1.13.61-1.74.79-.59-.73-.03-1.2.26-.75-1.2-1.79-1.39.73-1.04 2.67-.96-.67-.7-1.65-.69-2.57-.87.22-.77 3.05-2.03 2.23-.47-.41-.31-1.98.27-.75-.65-1.31-1.31-1.67-1.94-1.57.15-.15.59-.61-.22-1.32.12-.41.76.59.51-.81-.84-1.05-.81.24-1.47-.32.47.8.72 2.47-.04 1.72.09.64.31.23.72.85-.29.71-.73.97-.58 2.89-.9-.7-.34-1.74-1.16-2.46 0 1.11-.63 1.28-.09 2.76-1.2-.12-2.74-.71-3.24.09.25.74.65 1.44.4 2.3-1.05-1.72-.66-2.83-1.86-2.98-.11-1.36.53-.54.78-.87-.62-1.61-1.07.54-1.74.06.14.54.52 1.02.42 1.61-.63-.57-.75-.03-1.66-1.67-.21.85.36 1.52.14 2.35-.3.29-1.68-2.63-1.47-.02-.57-.55-.47-1.25-1.15-1.79 0-.91.41-.63.76-.51-2.93-2.74-4.81.96-7.36.6-.31-.85-.37-1.74-.35-2.65-.58-.3-.69.82-1.46-.03-.08.81.29 1.52.61 2.24-1.08.29-4.08-2.32-3.79 2.14-.83-1.37.06-1.22-.35-2.3-.82.09-.96.23-1.71.01.05.55.36 1.05.39 1.62-.61.79-3.15-2.58-2.7.21-.53-.69-.62-1.47-1.33-2.11-.25.45-.15 2.03-1.01.53.49 3.46-2.36-.35-2.59 2.19-.1-.66-.85-1.19-.84-1.87-.4.82-.66 2.12-1.95.04.01.89-.13 1.27-.35 1.42-.16-.42-.33-.84-.63-1.23.2 1.04-.47 1.17-.49.09-.1.99-.82.9-1.73.31.57 1.35.28 1.52-.14 1.71-.25-.4-.13-.88-.13-1.32-.77-.39-1.18.39-1.95 0 .02-1.64.73.2.39-1.75-.46-.25-.98-.69-1.2-.12-.29-.52-.11-1.11-.1-1.67.45-.06 1.53 1.95 1.44.08-.41.52-.96-2.11-1.33-1.45-.58-1.41-.16-1.64.16-2.06.44.72.37 1.51.55 2.27.74.78.41-.87.38-1.75.41-.06.65-.69 1.42.42-1-.14-.06 2.16-.87 1.84.12 1.21.95.42.58 1.92-.16 1.12-.5-2.01-.65-.9-.23 1.48.15.77.82 1.88-.12.17-.24.35-.49.09.89 1.08 1.93-1.07 3.18-.23-.82-1.8.35-.47-.09-2.02-.55.2-1.06.51-1.34 1.6-1.59-4.21.82-3.25 1.07-4.59 1.4 1.42 1.03 3.18 2.08 4.68-.61-2.11.99.41.83-1.52-.28.4-1.59-.12-1.79-2.02 1.33 1.97.29-1.25 1.69.02.8.87.46 1.95 1.26 2.81l.12-1.72c-.32-.39-.63-.78-.64-1.23.65-1.81 1.98-1.42 2.83-2.57-.85-1.44-.85-.22-1.4-.75.34-1.21 1.29-2.3 2.4.21-.4-.17-.63.19-.57 1.46.25 1.24.72.28.88 1.53.67-.49.49-3.18 1.96-.4-.13-1.36.41-.63.76-.49-.18-.53-.08-1.11-.39-1.62 1.25.9 2.05-1.69 3.35.67.48-.25.83-.92 1.28-1.28.2.52.31 1.07.4 1.61.68.56-.08-1.28.09-1.72.85.96.91 2.08 1.05 3.18.75.44 1.21-.41 2.11 1.59-.26-1.3-1.16-2.48-1.03-3.86-1.08-.79.65 2.84-.8 1.54-.58-1.22-.64-2.02-.35-2.64.74-.8 2.71 2.08 3.34.97.94 1.68-.05 1.14-.1 2.07.71.82.77-.31 1.01-.9-.18-.42-.36-.83-.67-1.21.2-.43.7.63.28-.74 1.13 1.14.69-2.35 2.4.5-.42-1.46.54-1.91 1.22-.27-.54-2.82.66-2.94 1.78-2.1.09-.47-.2-.86-.19-1.32 1 .91 1.38-.2 2.12 1.9.03-.8.05-1.6.08-2.41 1.21.86.5 2.16 1.36 3.1.07-1.43.7-1.28 1.48-.69-.3-1.06-.17-2.24-.4-3.33.79 1.18.32 2.66 1.36 3.78-1.11-3.07.51-3.29 1.75-2.14.4-.76-.38-2.64.52-2.18.39 1.12.41 2.53.94 1.82.48.91.49 1.93.43 2.97.2.3.23.14.25-.06.16.19.32.38.48.57.08-.93-.52-1.69-.44-2.63.28-1.09 1.14 1.46 2.16 2.2-.01-1.35 1.1.31 1.23-.66-1.16-1.64-1.48-1.08-1.71-.25-.28-.73-.84-1.39-1.43-2.04.65.19.05-1.21 1.22.04.31-.77-.77-1.18-.46-1.94 1.11 1.4 2.11.73 3.15.91-.16-.85-1.1-.81-1.21-.37-1.09-2.39.22-2.39.98-1.97.94 1.41-.81.33-.01 1.38 1.23 1.45.05-1.24.97-.6.45 3.19 1.69-.93 3.64 1.79-.22-1.36.4-2.33.49-3.91 1.02 2.77 2.02-.19 1.93-1.21.35.37.69.73.73 1.18-.19-1.02.75-.06.72-1.57 1.29 2.17.85-.2 1.44-1.08.47.67.45 1.48 1.23 2.07.85-2.06 2.24-.83 3.37-2.3.5.75.49 1.57.99 1.45-.98-2.5.42-1.27 1.45.28-1.02-1.82-.78-3.4.21-2.81.83 1.49-.76.22.02 1.72.44.54.51.16.98.77-.15-.86-.75-1.51-.26-1.65.35.48.1 1.12.51 1.58 1.09.59.96-.4.46-1.51.38-.7.79 1.96 1.23 1.39-.7-1.5-.38-2.16-.04-2.75.96 1.78.39-.06 1.47 1.31-.54-1.34.12-1.38.72-.88.34.73-.1.44.5 1.58-.6-2 2.14-.38.68-3.29.79.75.12-2.14.95-1.29.9 1.27 0 1.07.28 2.68.64.38.81-.43 1.45-.06-1.39-3.97 1-2.57 1.16-3.42.44 1.18.04 1.82.03 2.4-.41-.34-.47-.79-.5-1.24-.81-.56 0 1.02-.46 1.51.96.17.98-.31 2.68 2.01.2-.85-.64-1.43-.75-2.2 1.63 2.06 3.45-1.13 4.81-.63.07-.25.5-1.49-.27-2.33.07-1.55 1.7.98.7-1.58.69.73.62 1.67.99 2.49-.07.38-.61-.41-.97-.77.12 1.33 1.07 1.9.51 2.62.63-.14.35-1.05.7-2.25.2.4.4.8.73 1.18-.03-1.18-.56-.7-.98-2.14.13-.68.94.35.71-1.23-2.44-1.02-4.34-.64-6.27-.35-.78-.47-.2-1.33-.99-1.79-.45.13-.02.83.02 1.71-.98-1.11-.7-2.56-.77-3.92 1.06-.2 3.34 2.29 3.87-.03.34-.16 1.2 1.01 1.46.64-.89-1.3-.72-1.13.23-.75.17-.74-.49-1.25-.5-1.93 1.85 2.13 1.34.25 2.18.1.59.54.53 1.23 1.22 1.74-.59-1.35-.57-2.36.23-1.78.58.53-.13 1.41.73 1.87-.09-.69.19-.43.48-.13-.19-.52-.26-1.07-.24-1.65 1.32.44 1.93.55 3.38 1.86-.82-2.71 1.05.43.96-1.28.71 1.12-.31.5 0 1.72.41-.2.74-.6 1.44-.03.13-.35-.27-2.11.25-1.43-.78-1.6-.57-1.46-.47-2.97-.79.59-1.94-1.28-2.18.22-.99-1.3-.13-1.19-.96-2.16-.13 1.06.2 2.01.72 2.9-.11.54-.52.26-.49 1.16-.83-2.04-1.2-.81-1.45-.3-.84-1.27.06-1.32-.48-2.97-.57-.14-.37.41-.25 1.44-.35-.46-1.19-1.6-1.94-1.55.33.83.24 1.76.25 2.69-.56-1-.79-2.09-1.7-2.99.04 1.02-.69.08-.97.26-.16-.77-.74-1.41-.98-2.15-1.06.95-2.58.74-4.14.43.06 2.19-1.77-.37-1.94 1.22-2.57-2.87-2.33 2.77-4.87-1.07.22 1.21-.34.5-.23 1.44-.8-1.09-1.14-1.05-1.71-1.59.18-.89 1.1.26.46-1.86.47 1.73.61.7 1.22 1.04-.23-1.4-.55-.92-.98-1.1-.03-1.65.87-.96 1.44-1.1.47.55-.14 1.17-.48.82.85 1.56 1.42-.49 2.19-.26-.76-1.11-.46.41-1.22-.7 1.27.08 1.07-1.58 1.93-2.26.65.63-.22 1.67.74 2.21 0-.46 0-.92 0-1.38 1.57.97 2.4-.45 2.68-1.77 0 1.93.95 1.1 1.71 1.25-.25-.82-.23-1.64-.74-1.52-.08-2.59 1.48.98 1.47-1.08.72.84.91 1.82 1.22 2.77.52.38.23-1.86 0-2.41.21-.9 2.26 1.63 1.47-.74.22-.05 1.39.59 1.47 1.33-.11-1.61 1.11-2.35 2.71-1.41-.37.88-.41.58-.27 2.48.68.6 1.27.95 1.94 1.55.22-.46-1.22-2.12-.47-1.6-.4-1.69-.54.19-.74.2-.9-2.02.01-3.8 1.49-1.76.87-.08.16-4.39 1.77-2.51 0-.45.02-.92.03-1.37.65.51.45 1.25.7 1.88.69.39.26-2.21 1.26-1 .7 1.12-.17.94-.04 1.72 1.08-1.19 1.93-2.78 3.71-.57.38-.19.88-.03.79-1.57-.48-.45-.74-.96-.69-1.54 1.06 1.43 1.68-.96 3.2.62 0 .89-.02 1.72-.54 1.15.63 1.02 1.96.74 2.68.74.03-1.71-.43.09-1.17-1.43.05-1.15.81-.25.81-1.56-.28-.5-.46-1.03-.42-1.6-.64-.82-.5 0-.94-1.15.13-.13.28-.26.28-.75 1.46 2.26 1.4 1.57 2.57 2.48.12 1.65-1.14-.74-1.01.91.7 1.13.7.25 1.4 1.38-.69-1.21.08-2.49.6-2.51.27.39.16.87.18 1.32.85 1.45.7-.03 1.43 1.04 0-.68-.78-1.19-.9-1.84.49-1.32 1.92.09 2.55-.9-.56-1.68-.56.4-1.23-.42-.19-.3-.21-.63-.45-.92.86.48.62-.79 1.12-1.61-.63-1.79-1.07-1.07-.8.52-.88-.71-.07-2.06-.9-1.85.07-1.07.87-1.6-.3-3zm-53.45-2.91c.08 1.41-.89.22-1.44.06.03-1.12.7-.67 1.44-.06zm-38.62-2.88c-.14-1.5 1.05-.48-.19-2.34.34-1.01 1.13-.68 2.02-.07.14 1.37-.22.54.19 2.67-.33-.38-.82-1.2-.89-.84 0 .46.38.83.43 1.27-.61-.48-.45 1.29-1.57-.69zm-264.98 92.01c-.79.75-1.17 2.08-1.21.51.35-.92 1.26-1.67 1.21-.51zm-12.12 34.16c-1.13.37-1.35.66-2.84 2.33.22-1.51-.39-.9-1.06-.17.09-1.54.03-1.67.45-3.51-1.18.89-1.2 2.38-1.5 3.72-.84-1.21.44-4.15 1.73-5.48.02 2.73 2.63-1.02 3.14.48-.04 1.57-.8.48-1 1.74.71-.55 1.54-.32 1.08.9zm91.22 9.86c.66-1.09 1.02.51 1.62-.02-.67 1.19-1.18.93-1.62.02zm45.21-2.92c.24 1.18 1.08.94.92 2.43-.38-1.54-1.26-.38-.92-2.43zm30.81 2.33c-.42-.31-.79.9-1.25-.72.29-1.02 1.38-.66 1.25.72zm191.96-27.68c.51-.2 1-.44 1.96.49-.5.01-1.29 1.03-1.96-.49zm-18.69-17.22c-.5-1.4 1.85-1.69 2.26.41-1.25-1.39-.95 1.11-2.26-.41zm42.93-6.61c.08.54.34 1.06.26 1.64-.42-.62-.48-.27-.89-.82-.07-1.03-.08-1.88.62-.82zm-73.94-33c1.06-.41 1.58-.46 2.67-.33-.45 1.28-1.42 1.2-2.67.33zm23.23-6.54c.44.08 1.25-.65 1.7.57-.35.14-1.11 1-1.7-.57zm12.79-1.13c-.19-.45-.66-2.77.22-1.44.55.76.26 2.15-.22 1.44zm21.05-31.43c.4.35-.03-.51.05-1.03 1.07 1.94.37-1.24 1.45.7.16 1.8-1.1 1.43-1.49.33zm-20.6-3.48c.3-.18.24-1.3 1-.26.09 1.78-.89.37-1 .26zm-21.04-5.26c-.45-1.22.33-1.44 1.22-.35.1 1.37-.61.75-1.22.35zm-3.64.67c.1-.89 1.34-.66 1.96.84-.82-.69-.8.7-1.96-.84zm50.16 57.78c-.84-.02-1.22 1.14-2.28.56.09-1.8 1.5-1.63 2.28-.56zm-69.1-76c-.5-1.41.31-1.61 1.16-.67.23 1.76-.39 1.41-1.16.67zm33.01 37.42c.43-.05.42-1.2 1.21-.34.03 1-.65 1.94-1.21.34zm38.21 44.21c.52.9.71-.66 1.15 1.09-.42-.23-.78.83-1.15-1.09zm-.43 1.13c-.88-1.74-.5-.3-1.14-.75-.02-.57-.65-.98-.71-1.54.62.04.91 1.23.9-.21l.7.86c.08.55.34 1.06.25 1.64zm-3.7-3.53c.32-.26.26-1.52 1.14-.29.21 1.64-.33 1.32-1.14.29zm-27.37-27.1c-.02.6-.15.96-.47.82.13-1.17-1.43-4.03-.28-3.37.8 1.4-.08 1.66.75 2.55zm24.18 28.94c0-.45-.02-.91-.03-1.36.23.28.47.56.7.84.23 1.34-.34.63-.68.52zm14.15 17.36c1 2.13.38-.27 1.1.42.84 2.01-1.13 1.54-1.1-.42zm-40.73-44.95c-1.32-1.1-1.05 2.13-2.67-.64.69 1.89-.16 2.07-.95 1.3.99-.74-.11-2.88.42-4.6 1.49 2.39.32-.41 1.47 1.66.42-.64 1.1-2.36 1.92-.88-.19-.18-.73.29-.23.76.25-.48.73-.41 1.46.29.12 1.2-.51.51-1.22-.35 0 1.03-.88.77-.21 2.47zm-28.17-33.58c-.62-1.57.23-1.35.69-1.22.5 1.27-.05 1.8-.69 1.22zm32.57 37.19c-.33-.37-.65-.74-.98-1.11-.08-.86.04-1.23.47-.82-.29.77.79 1.16.51 1.92zm31.42 39.46c-.21-1.5 1.22 1.27.88-.56.69.78.82 2.23 1.39 2.05.1 2.42-1.51-1.38-2.27-1.48zm-13.67-16.04c-.03-1.05-.18-2.41.68-1.21-.31.2.13 2.28-.68 1.21zm9.24 10.64c1.09 1.67.84 4.17-.15 3.13-.47-1.19-.48-2.11-.28-2.33.65 1.6.68.47.43-.8zm-40.85-40.55c.67 1.6.71.44.47-.82.36.01.61.3.98 1.1.23-1.74 1.97.24 2.15-1.63.69.65 1.07 2.75.98.77.79.79 1.81 3.28.76 2.55-.03-.45-.08-.89-.5-1.24 1.34 3.54-.51 2.86-.91 4.05-.41-.46-.82-.92-1.23-1.39-.42.29-.16 2.25-1.19 1.02-.57-2.02.39-2.69 1.18-2.4-.3-.41-.16-.55 0-.68-.44.01-1.37-1.19-1.7-.9.11 1.94.05 3.45-1.18 2.05.98-.24.17-1.55.21-2.47zm31.17 31.06c.04.68.8 1.17.74 1.87-.78-1.33-.16.9-.95-.43-.06-1.13-.57-2.14-.53-3.3.24.28.48.56.72.84 0 .34.01.69.02 1.03zm-71.22-80.92c-.53-.92-.29-2.37.4-1.12-.08.51.38 2.43-.4 1.12zm13.4 19.21c-.57-2.2 1.75.25 1.16.04-.47-.22-.34 1.06-1.16-.04zm63.65 72.88c-.01-.46-.03-.91-.04-1.37.28.39.67.74.72 1.18-.41-.38.34 1.55-.68.18zm-7.13-5.67c.01-.58-.26-1.08-.74-1.52-.01-.57-.02-1.14-.04-1.71.45.15 1.13.88 1.67 1.27-.43.32-.56 1.4-.9 1.96zm7.15 6.35c.14.99.61 1.89.99 2.82-.47-.55-.28.57-.93-.44.05-2.45-1.26-.84-1.69-2.64.83.78 1.08-1.54 2.1.81l-.47-.56zm-11.01-10.12c1.09 2.18.82-.12 1.67.57.82 2.88-1.05 1.91-1.67-.57zm-1.2-.37c-.55-.16-.93-1.93-.97-1.11.09.79.67 1.43.76 2.21-.32-.37-.65-.74-.98-1.11-.03-.57.01-1.15-.5-1.59-.05-.88-.08-1.71.46-1.15.03.45.09.89.5 1.24.18-.74-.36-1.28-.27-1.99 1 .99.67 2.34 1.01 3.51zm-6.58-7.15c0-1.43.55-1.51 1.68-.12-.13 1.08-.8.85-1.68.12zm17.18 18.4c-.28.91-1.63-.88-1.86.16-.05-1.47.4-1.25 1.13-1.34.05.45.39.81.73 1.18zm-37.04-39.44v-1.37c.83 1.22 1.15 1.13.95-.26.24.27.49.55.73.82-.16 1.27-1.02.78-1.68.81zm33.5 37.64c.62.59.7-.18 1.42.65.17 1.2-.97.76-1.42-.65zm-64.93-72.95c.27-1.02 1.41.24 1.8-.45.59 2.1-.97 1.02-1.8.45zm70.94 80.97c.36.7.37 1.51.52 2.27-.2.35-.51.43-.92.25-.5-.9-.69-1.88-1-2.83.35 2.37-.46 1.82-.87 2.29-1.37-2.05-1.69-1.57-2.88-2.32-.3-1.72 1.47-.82 2.33-.63-.41-.46-.62-.98-.74-1.52.69-.19 1.1.29 1.2 1.4.38-.51 1.59-2.06 3.27.85-.91-.71-.3.4-.92.24zm-12.03-12.93c-.45-1.62-.59-2.54.44-1.84-.81.17.45 1.88-.44 1.84zm8.93 9.63c-.45-.38-.58.04-1.18-.72-.12-1.2.98-.75 1.18.72zm-38.1-41.89c-.31-.21-.5-.13-.48.47-.41-.46-.82-.92-1.22-1.38-.21 1.71-.95.45-1.43 1.76 0-.69-.67-1.19-.5-1.93.96 1.07 1.17.26 1.44-.39-.6-.98-1.07-2.01-1-3.17.54.35.94.36 1.7 1.25.06 1.14-.64.41-.46 1.85.71 1.2 1.35.26 1.95 1.53zm-.98-1.45c.02-1.06.54-.88 1.45.29-.11.84-.92-.07-1.45-.29zm35.05 41.68c-.78-.48-.21-1.32-.98-1.8 0-.84.33-.92.94-.26.34.82.36 2 .04 2.05zm-71.77-83.31c0-.83 0-1.68.64-.83.14 1.2-.25 1.03-.64.83zm73.47 85.6c-.45-.45-.54-1-.97-1.46-.09-.99.31-.74.95.09 0 .45.02.91.03 1.37zm-20-20.34c-.43-.45-.77-.94-.99-1.45.39-.49.59-1.44 1.69-.13.17 1.54-.92-.06-.71 1.58zm16.88 18.09c-1.11-1.02-1.05.85-2.14-.11.75.1.45-2.35 1.64-1.14.01.46.44.8.5 1.25zm-5.6-6.05c0 .46.02.92.02 1.38-.44-.68-1.02-1.32-1.24-2.08.76 1.11.46-.41 1.21.7zm7.56 9.3c.18.87 1.44 1.45 1.24 2.42-.57.19-.53-1.32-1.46-2.02-.01-.57-.02-1.14-.04-1.71.43.7.98.15 1.21 1.39-.14.41-.72-.27-.95-.09zm-39.68-43.85c.8.56-.06-1.42.96-.61.22 1.36-.39 2.35-.96.61zm28.52 34.53c.36-.31.57-1.01 1.19-.68.17 1.62-.63.85-1.19.68zm-66.33-77.81c.08-.52.05-1.35.63-.48.45 1.21.16 1.8-.63.48zm60.19 72.62c.61.29.81-.44 1.71.56.11 1.3-1.32.48-1.71-.56zm-25.02-28.62c-.47.38-1.25-.03-1.92-.18-.02-1.46 1.25-2.24 1.92.18zm40.83 52.17c.02-1.27-.2-.35-.74-1.17-.23-1.35.8.44.71-.54-1.09-1.6-1.21-.8-1.95-1.53-.33-.53-1.61-2.48-.76-2.21.23 1.24.61.26 1.23 1.39-.27-1.99 1.08.04 1.18-1.01.96 1.41 1.35 1.7 1.94 1.53-.02-.57-.68-.96-.74-1.52 1.73 1.41 1.66 2.87 2.25 5.58-.48-.44-.49-1.01-.75-1.52 0 .56-.67-.57-.72-.14.42.45.76.93.98 1.45-.03 1.11-.79.12.03 1.71-.29.06-.42.48-1.21-.69-.11-.71.35-.47-.02-1.03-.38.15-.9-.03-1.44-.29zm-7.87-9.54c.47 1.12-.1.88-.23 1.44-.96-1.78-1.12-.29-1.96-.84-.19-2-.53.14-1.48-1.65.25-.83 1.33.41 1.7-.13.21-2.08-1.5-5.57-.06-4.82-.25 1.31.43 5.27 2.02 6zm-71.03-84c-.34-.71.02-1.58-.67-2.23-.23 1.07.37 1.96.47 2.95-.4-.63-.47-.27-.87-.84-.48-2.46-.28-3.08-.71-5.27 1.6 2.28 1.67 2.04 2.78 2.81-.04 1.22-.17 2.69-1 2.57zm35.18 42.13c-.31-1.33-.04-1.78.72-1.22-.12.72-.45.88-.72 1.22zm47.83 54.06c-.04-.67-.81-1.16-.75-1.86.4-.54 1.51 2.21.75 1.86zm-15.91-15.58c-.01-.92-.02-1.84-.03-2.76.32.34.34-.06.74.49.67 1.34.21 2.96-.7 2.27zm-33.12-38.84c-.6-.66-.75-.23-.97-1.47.48.55.3-.58.96.44v1.03zm18.31 22.94c-1.25-1.27-.48-2.53.24-1.79.18 1.26-.42.54-.24 1.79zm24.65 26.61c-.23.1-1.25-1.11-1.23-2.07.6.64 1.18 1.28 1.23 2.07zm-42.95-47.5c-.01-.23-.04-.45-.24-.63.01.61-.18.66-.48.47.02-1.1.3-1.49.96-.93-.04.47.09 1.36-.24 1.09zm2.65 5.83c.83.98.38-1.33 1.22-.31.08 1.15-.67 1.93-1.22.31zm51.87 59.51c-.33-1.41-.72-.46-.23.41-.61-.63-.77-1.4-.99-2.14.67.18.2-.66 1.17-.32.24 1.02.34 1.85.06 2.05zm-96.78-109.49c-.08-1.2.57-.22.9-.19.08 1.2-.22 1.27-.9.19zm52.67 66.5c-.07-.99.35-.75.98.07.07 1-.35.75-.98-.07zm-21.16-24.44c-.9-.83-.88-2.74.01-1.37-.03.91.39 1.17-.01 1.37zm18.44 23.44c-.04 1.45-1.41 1.32-2.22-.45 1.21 1.63.97-.55 1.49-.73.13.93.39.02.73 1.18zm-56.19-65.99c.35-.5.69-1.05 1.56.04-.19.91-.88 1.69-1.56-.04zm90.12 107.69c.45.41 1.4.3 1.75 1.59-.05.6-1.46-.45-1.75-1.59zm-17.5-14.44c-1.04-1.45-1.19-.63-2.01-1.52.02-1.27 1.18.37.79-1.95.6.81.55-.03 1.25 1.04-.16 1.23-.15.89-.04 2.43zm-34.61-38.8c-.81-.84-1.33-1.74-1.14-2.81.46.16 1.18 1.78 1.66 1.32.22 1.59-.61.27-.52 1.5zm42.01 53.31c.05-1.21.17-2.26.81-1.95-.04 1.19.13 2.99-.81 1.95zm-22.16-25.71c-.05-1 .38-.75 1.02.08.05 1-.38.75-1.02-.08zm8.38 10.86c.1-1.1.35-1.8 1.3-.7-.12 1.05-.79.68-1.3.7zm-5.51-4.74c-1.16-1.06-1.2.85-2.08.55-.42-2.38.73-1.68 1.63-2.14-.04-.5-.36-1.15.27-.42.19.64.3 1.3.19 2.01zm-19.28-19.86c.16-1.48.84-1.47 1.56-1.39-.12 1.58-.86 1.44-1.56 1.39zm36.68 43.09c.05-.86.49-.72.8-.91.16 1.11.88 2.06.95 3.18-.88-.67-.95-1.57-1.75-2.27zm1.6-1.83c.83 1.51.87.72 1.77 1.58-.77.56-.12 4.18-1.6 1.82.56-.71-.02-2-.17-3.4zm-2.82-.94c.77 1.2 1.02-.78 1.52.96-.46.16-.77.74-1.79-.54.05-.59-.23-1.08-.74-1.53.12-.93.48-1.24 1.05-.99.06.69-.75.96-.05 2.09zm-16.1-15.65c.59.55.51-.69 1.29.35.11 1.09-1.09.62-1.29-.35zm1.57-.42c-.11.83.95 1.35.69 2.23-.79-.41-1.37-2.57-.69-2.23zm-5.22-5.17c.08 1.23-.4.96-.58 1.52-.84-1.25-1.06-.8-1.52-.99.33-.77.06-.76.1-2.08.68 1.15 1.04 1.6 1.03.08.43.46.76.95.97 1.47zm-36.13-41.46c-.13-1.47.58-1 .1-2.4l.45.58c.02-.19.05-.36.24-.05.29 1.53.02 2.62-.79 1.87zm-29.56-42.36c-.44-.43-.45.43-.85-.86-.12-1.38.85-.18.85.86zm84.86 106.94c.35-.24.86-.04 1.54.61.33 1.75-1.45-.05-1.54-.61zm-49.04-54.36c.22-.89.71-1 1.46-.32-.22.89-.71 1-1.46.32zm43.02 53.59c.44.32-.03-.51.05-1.05.67.12 1.4 1.96 1.56.26-.35-1.09-1.08-.55-1.23-2.08.51-.17 1.04.3 1.77 1.59-.04 1.97-1.14 3.14-2.16 1.28zm-35.47-42.99c-.69-.33-.6 1.65-1.72.04.03-1.35.66-.93.83-1.88.53.56.87 1.17.89 1.84zm20 25.7c-.3-.03-.68-.29-1.24-1.06-.17-1.55 1.28 0 1.24 1.06zm13.33 17.52c.04-.47-.08-.9-.2-1.33.31.03.7.29 1.28 1.04-.08.85-.44.95-1.08.29zm-16.21-17.48c.36-.21.05-2.32.86-1.24-.05 1.07-.33 1.52-.86 1.24zm-5.74-4.44c-.02-1.66.79.13.38-1.81.42.47.75.96.95 1.49-.03 1.3-.47 1.41-1.33.32zm3.13-.07c-.99-1.2-.62 1.51-1.81-.25-.19-1.93 1.23-1.35 1.81.25zm15.53 18.73c-.25-1.73.64-.38 1.31.34.04 1.16-.86-.19-1.31-.34zm-15.25-15.04c-.09-1.36.58-.55.85-.88.52 1.45-.07 1.91-.85.88zm-.73 2.92c.23-1.51.5-1.67-.02-3.42.47-.15.7.98 1.19 1.77.04 1.23-.44.95-.64 1.52.3.29.6.02.73.85-.56.92-1.36-.21-2.29-1.15-.04-.56-.3-1.07-.14-1.68.79.61.71 1.42 1.16 2.11zm-3.16-3.02c.42-1.43 1.36-1.48 2.41-1.25.92 3.01-1.2 2.08-2.41 1.25zm23.14 24.76c.48-.75 1.44-.18 2.16-.24-.43.86-.99 1.39-2.16.24zm-7.56-8.35c-.25-.85-.78-2.45.11-1.75.13.37.48 2.31-.11 1.75zm3.58 6.99c-1.04-.54.02-1.61-.66-2.24-.6-.55-.27 1.49-1.1.29.21-1.65 1.17-1.21 1.98-1.2.32 1.42-.65 1.02-.21 3.16zm-21.48-26.96c-.16 2.15-2.05-.57-2.37-2.54.82 1.17.95 1.82 2.37 2.54zm1.27 4.14c.03-.57.07-1.15.1-1.72.28.4.68.76.69 1.21-.62-.87.11 2.21-.79.52zm10.55 13.93c-.66-.64-.58-1.46-.64-2.25.32.34.37-.06.77.49-.05.59-.09 1.17-.14 1.75zm4.92 6.66c-.72-1.08-1.12-2.23-1.09-3.5 1.05.96 1.56 3.21 1.09 3.5zm-13.64-17.25c.12 1.55-1.14-.07-1.46-1.03.13-1.61.56.19 1.46 1.03zm11.36 18.17c-.44-.52-.79-.8-1.03-.77.41-.94 1.01.32.71-1.89.92 1.93.82.2 1.81 1.26-.19 1.34-1.33-.03-1.49 1.4zm-4.94-2.23c1.55 2.01 2.19-1.31 3.41.9-.43.03-1.04.68-1.66.89-.59.19-1.21-.06-1.75-1.78zm.79-.18c.04-.69-.63-1.22-.39-1.96.34.27.52.04 1.02.78-.45.61.15 1.63-.63 1.18zm-4.29 2c-.71-1.14-.53.4-1.24-.74.14-.72.35-1.21.84-.88.02.57.35 1.06.4 1.61zm-18.61-18.42c.4-.25 1.24-1.99 1.72.65-.83-1.28-1.32.72-1.72-.65zm-23.17-30.71c-.83-.77-.74-2.87-.09-2.01-.15.7.34 1.29.09 2.01zm24.07 32.22c0-1 .55-.29 1 .13-.16.65.57 2.78.07 2.36-.16-.87-.76-1.65-1.07-2.49zm.53 2.95c-.94-.75-1.1-3.15-.32-2.31.23.74.61 1.46.32 2.31zm10.21 13.81c-.99-1.73-.61.73-1.5-.69.31-1.21 1.01-1.22 1.67-1.38-.06.69-.11 1.39-.17 2.08zm-9.39-11.27.11-1.38.7.87c.11 1.36-.45.63-.81.51zm-4.36-5.88c-.15 1.75-.91-.95-1.7-1.02.27-.62 1.27-.21 1.7 1.02zm-2.19-1.26-.92-1.17c-.09-1.2.69-1.81 1.03-.21-.57-.67-.17 1.08-.12 1.38zm-22.62-29.24c.23-.26.74.47 1.15.81-1.6.73-3.23 1.4-5.37.26-.18-2.44 1.32.98 1.3-.89-.54-.71-.73-.28-.83-1.54.54-.12.71 1.31 1.51 2.1.06-1.72 1.31.65 1.32-1.25-.41-.23-.63.2-1.36-1.11-.02-.95.46-.2.36-1.42.58.4.64 2.53 1.06 1.85.14-.81-.82-1.43-.54-2.27.18-.26.52 0 .93.51.26.97.04 2.02.48 2.95zm26.22 34.97c-1.17-1.65-1.3-.03-2.23-.91-.07-1.36-.86-2.34-.25-3 .89.73.68 1.67 1.06 2.5.27-.46.79-.13.87-1.19.73.76.68 1.68.55 2.61zm8.98 12.39c.11-1.13.11-2.57.9-1.56-.27.61-.14 2.48-.9 1.56zm-17.91-23.84c.04-.46.08-.92.12-1.38.23.29.46.59.68.88-.01.98-.21 1.38-.8.5zm-1.51 8.43c-.14.32-.36.32-.75-.2.43-1.84 2.15 2.08 2.82 2.51.05-.57.11-1.15.16-1.73 1.58 1.72 2.47 1.17 3.28.37-.38-1.59-.39-2.9-.21-3.35.84 2.46.21-.96 1.23.43-.29 1.87-.63 3-.46 5.18-1.72-2.66-2.23.78-3.19 1.31-.08-.67.43-1.44-.06-2.02-.2 1.01-.78.75-.95 1.88.27.29.57.05.68.88-.81-.98-1.34 1.35-1.99-.63.91.74 1.14-1.9.08-3.4.64 2.34-1.47 1.37-1.82.34.5-.02 2.2.66 1.18-1.58zm.44 3.3c.23.71-.08 1.69-.44 1.77-.07-1.06-.67-.15-1.17-1.14.23-1.24.97-.76 1.6-.64zm18.77 11.46c-.52.57-1.25.49-2.08.11.42-.77 1.3-1.86 2.08-.11zm-8.93-10.02c.37.31.29-.83.99.48.33 1.7-.96.4-.99-.48zm-2.78-.46c.04-.96.86-1.62 1.27.08-.56-.44-.72.37-1.27-.08zm8.54 11.16c-.3-.95.14-1.82.85-.87.02 1.23-.41 1.06-.85.87zm-37.68-47.07c-.32-1.46.67-.36-.02-2.35.87.8.67 3.25.02 2.35zm-1.26.54c-.4-1.42.34-1.1.26-2.73.21.3.43.61.64.91-.15 1.12-.17 2.73-.9 1.83zm26.78 35.74c.24-.32.85-1.69 1.27.09-.5-.28-.6.76-1.27-.09zm5.54 9.42c.02-1 .23-1.39.83-.51-.02.99-.23 1.38-.83.51zm-11.95-11.93c-.39-.07-.65.26-1.04.19.09-1.19-.26-2.41.47-2.11-.04.68.72 1.22.57 1.92zm-3.58-2.38c-.39-.54-.7-.85-.93-.84.02-.23.05-.47.07-.69-.13-.2-.26-.4-.19-.64 1.14 1.33-.23-1.42-.05-2.02.44.42.5-.44 1.18.79-.29 1.19.02 2.25-.09 3.4zm3.25 5.49c-.33-.5-.84-.97-.86-1.53.78.48.84-1.5 2.02.31-.37 1.13-1.17-.21-1.16 1.22zm-61.41-91.59c-.59-.84-.51-1.73-.38-2.63.25.45.42.54.58.61.21.86.1 2.02-.2 2.02zm36.07 57.11c-.23.74-.72.51-1.41-.47.06-1.23-.57-3.69.5-2.42 0 1.36.03 2.48.91 2.89zm18.82 28.58c.48-.12.92.96 1.07 1.84.47-1.7 2.25-1.33 3.45 1.05-1.53-1.25-2.54-.13-2.94 1.22-.08-.89-.5-1.72-1-2.53.35 1.4.34 1.52-.19 1.73-.45-.48-.39-1.05-.59-1.58.23 1.78-.13.61-.6.78.76 1.26.03 1.7-.6.77-.32-1.11.33-.89.28-2.41 1.01.21 1.34 1.14 1.12-.86zm18.18 25.71c-1.1-1.18-.69 1.99-1.04 2.24-1.07-1.53-.17-1.48-.42-3.3.66 1.24.5-.25.61-.8.54.57.86 1.19.85 1.87zm-16.25-19.97c-.73-.47-1.31-.39-1.98-.67.2-.75.49-1.16.9-1.17-.1.55 1.12.02 1.07 1.83zm9.88 15.77c-.26-.85-.17-2.59.46-1.78-.2.44.05 2.39-.46 1.78zm2.7 6.26c-.04-1.27.52-.5.47-1.78-.58-.7-.8-.26-.88-1.52.53.33 1.44-.55 1.96 1.32-.29 1.05-.37 2.89-1.55 1.98zm-16.64-24.7c-.66-1.49-.87 1.07-1.19-.81.26-.42 1.02-1.22 1.19.81zm6.15 11.43c.39-.57.98-.47 1.4-.94.22.9-.91 2.52-1.4.94zm8.38 10.97c.06-.47-.02-.9-.11-1.34.51.57 1.41.03 1.68 1.38-.77-.84-.68 1.25-1.58-.04zm-19.84-20.83c.54-1.1 1.84-1.31 2.78-1.82-.4-.72-.93-1.42-.76-2.24.92 2.7.74.57 1.84 1.71-.12 1.35-.51 1.43.34 3.66-1.86-3.41-2.57-.17-4.2-1.32zm-54.41-89.41c.47.49.4-1.52 1.08-.08-.18.54-.81 1.64-1.08.08zm34.35 57.79c-.51-1-.76-.98-.74.1-.99-1.92-.31-4.43.66-3.44-.37 1.48-.31 1.56.08 3.34zm37.02 52.32c.59-.91 1.63-.24 2.42-.46-.04.35-.08.7-.12 1.04-.92-.73-1.38.14-2.3-.58zm-22.04-30.99c.55.04 1.57-.78 2.15 1-.73-.71-1.45 1.25-2.15-1zm3.03 6.25c-1.07-1.29-1.43.04-2.43-.97.34-1.6 1.98-1.01 2.55-.07-.35-.38-.24.55-.13 1.03zm18.11 25.58c.07-.57-.61-1.01-.59-1.58.55.59.57-.66 1.26.44-.07.9-.16 1.73-.66 1.14zm-2.84-.5c.09-1.37.57-1.32 1.17-.88-.35.42-.5 1.56-1.17.88zm-14.26-20.86c-.34 1.62-.92.03-1.88-1.4.1-.57.09-1.13-.04-1.67.14.2.28.4.43.6.18 1.61.7 2.11 1.48 2.46zm16.9 25.13c-.84-.26-1.16 1.31-2.37-.26.62-.43-.2-2.49.36-2.76.93.55.83 2.97 1.28 2.48-.01-.79-.57-1.48-.23-2.32.66.89.75 1.89.96 2.87zm-4.54-3.94c-.14-.65-.18-1.32 0-2.03.8 1.49.76 0 1.45 1.1-.03.23-.06.46-.09.69-.76-1.19-.59.43-1.35.24zm-17-21.15c.63-.05 1.51-3.39 2.1-.32-1.07-1.28-.99 1.75-2.1.32zm-5.25-4.59c.18-.7.42-1.17.87-.8.25.97-.22 1.81-.87.8zm.78 3.59c.99.59 2.32-2.19 3.16 1.2-1.26-1.53-2.27.66-3.16-1.2zm-6.58-7.48c.06-1.22.46-1.02.87-.79.26 1.03-.33 1.42-.87.79zm2.11 4.75c-1.42-2.65-1.59-.28-2.61-1.32-.06-2.07 1.79-.62 2.65-.69-.21.7.28 1.3-.04 2.01zm.06 1.34c-1.2-1.64-.24 2.57-1.46 1.21.44-1.21.17-.85.1-2.37.36-.15 1.3-.71 1.36 1.16zm-4.59-.05c.08-1.38.45-1.5.94-1.13.27 1.2-.14 2.74-.94 1.13zm14.92 23.12c.01-1.81.72-.87 1.19-.86-.36.42-.54 1.56-1.19.86zm.6 1.25c.03-1.04 1.07-.89 1.25.48-.57-.75-.46 1.16-1.25-.48zm-2.93-3.26c.07-.68-.7-1.24-.76-1.91.08-.98.31-1.36.87-.46-.29.64.74 2.76-.11 2.37zm1.84 6.8c-.07-.53.19-1.69-.32-2.98-.15.71-.67-.03-1.2-.83.47-.97.65-3.04 1.63-1.93-.63 1.73 1.57 7.06-.11 5.74zm-20.53-32.85c-.1-1.46.89-1.05.98.22-.42-.46-.37 1.08-.98-.22zm17.26 28.27c.09-.99.32-1.37.87-.46-.08.98-.32 1.36-.87.46zm-14.05-21.28c-.55.38-1.59 1-2.19-.75-.22 1.14-1.53-.53-1.07 1.81-.27-.42-.55-.83-.82-1.24.06-1.28.56-.47.28-1.71.94.74 1.33.71 1.01-1.45.71.58.41 1.29.71 1.93.09-.57.19-1.14.28-1.71 1.08 1.8.66 2.85 1.8 3.13zm-5.16-1.41c-1.16-1.85.11-3.45.87-2.11-.03.56.24 1.09.24 1.65-.8.33-1.13-2.28-1.1.46zm-.93 2.46c-.91-1.12-.51-2.4-.4-3.64.32.46.31-.62.72.25.01 2.23-.54.95-.33 3.39zm-4.88-7.16c.26-.65.48-1.47 1.1-.44-.14 1.19-.52 1.27-1.1.44zm-48-76.15c-.16.69-.87 1.37-1-.33.39.82.58-.45.46-1.32.27.55.46 1.1.54 1.65zm42.05 82.08c-1.14-1.86.35-4.52.85-1.75-.73-.79-.21 1.45-.85 1.75zm-43.66-81.42c-.48.65-1.46 1.85-2-.68.89.99.1-1.68.29-2.65.56 1.22.57 2.44.79 3.65.12-1.61.65-2.2.91-.32zm-3.25.29c.32.29.48-.67.85.01.33 2.07-1.04 1.62-.85-.01zm52.56 107.68c.3-.85.76-.9 1.38-.14-.16 1.54-.78.81-1.38.14zm-2.1 2.21c.13 2.59-.65.13-1.11.1.69 1.7.24 2.99.19 4-.95-1.37.29-2.93-.66-4.29-.04.55.14 1.1-.11 1.68-.2.04-1.29-1.01-1.2-1.9 1.01 1.05 2.75-5.31 3.05-.26.57-.02 1.55-1.64 2.06.47-.07 1.32-1.57 1.85-2.22.21zm-.21 3.36c.48-1.24 1.2-1.13 1.91-1.17-.51 1.03-1 2.2-1.91 1.17zm-56.68-108.11c-.55-.87-1.28 2.09-1.63-.39.52.2 1.21-2.15 1.63.39zm54.4 109.64c-.29-.53-.77-1.05-.72-1.61.88.96 1.12.59 1.07-1.09.79 1.83.04 2.05-.35 2.7zm-3.31-3.4c-.55-1.23-.52.79-1.15-.9.26-.76 1.32-.48 1.15.9zm2.43 7.15c-.48-.62-.73-1.27-.64-1.95.25.32.55.96.68.61.11-.2.16-.67.36-.36-.14.57-.27 1.13-.4 1.7zm-58.79-112.94c.06-.55-.04-1.11.17-1.65.37 1.36.54.53.83 1.04-.26.97-.56 1.71-1.01.6zm51.47 106.84c-.02-.66-.74-.69-.86-.95-.07.56.18 1.1.14 1.66-.69.33-1.24-1.46-.92-2.94.79.25 1.47-.2 2.34.51-.41.77-.45 1.69-.7 1.72zm-53.6-109.62c.18.45.35.9.53 1.35-.2 1.53-.94-.36-.53-1.35zm49.75 108.54c-.33.57-.71.85-1.3-.25.24-1.15.69-.93 1.2-.42-.04.23-.07.46.11.66zm-54.02-103.48c-.27-.51-.45-.16-.72-1.06.11-.38-.25-2.38.16-1.64-.13.86.15 1.69.35 1.04-.13-.68-.18-1.35-.14-2.01.26.67.39-.46.68.71-.46.97.14 2.01-.33 2.97zm50.36 107.05c-.71-.62-1.87.73-2.26-.89.49.46.79-.37 1.21-.38-.34-.69-.52-.34-.85-.96.3-.61.84-1.08.63-2.36.55 1.53.96 3.07 1.27 4.6zm-52.21-107.25c.09-.76-.06-1.55.14-2.3.27.96.37 3.34-.14 2.3zm49.01 105.74c-.9-1.41-1.05-2.84-1.05-4.28.25.46.45.55.65.64-.13 1.23.92 2.4.4 3.65zm-49.93-107.49c.16-.94.35-1.27.62-.27-.16.94-.35 1.27-.62.27zm48.25 108.57c.7-.4 1.36-.97 2.25-.1-.75.4-.82 1.02-1.4 1.06.03-.33-.05-.67-.29-.99-.14.37-.27.7-.56.02zm-1.31-1.27c.08-.56-.3-1.1-.37-1.65.59-1.45 1.41-1.21 2.32-.44-.32.9.14 1.77-.18 2.67-.64-.53-1.12.05-1.78-.59zm-49.11-105.19c.29-.97.49-1.95.33-2.96.31.9.53-.12.83.42-.41 2.13.33 1.32.13 2.67-.49-1.31-.83.49-1.28-.13zm48.64 108.88c-.37-.54-.31-1.1-.65-1.64-.1.34.04.67 0 1-.72-.75-.48-1.54-.18-2.33.23.33.51.98.65.64-.2-.43-.05-.88.1-1.34.19.32.37.65.56.97-.55 1.49-.48 1.05-.47 2.69zm-2.6-4.55c-.35.85-.94-.02-1.39.06.25-1.67 1.09-2.03 1.39-.06zm-2.74 2.75c-.39.27-.71 1.08-1.23.37.18-1.6.7-.39 1.04-.69-.12-.33-.36-.66-.27-1 .26.44.35.88.45 1.32zm-3.52-2.25c.55.69.86-.58 1.48.63-.27.9-1.37.98-1.48-.63zm.2-.67c-.16-.18-.29-.1-.38.34-.44-.65-.65-1.32-.52-1.99.28.39.47 0 .74.32-.13.44.22.88.16 1.32zm-3.25-.25c.56-1.65 1.32-1.49 2.15-.72-.57 1.5-1.48.04-2.15.72zm0 3.67c0-2.33.92-2.05 1.63-1.71-.43 1.5-.92 2.58-1.63 1.71zm-3.98-4.27c-.2-.56-.19-1.11-.59-1.66.47-1.25 1-1.91 1.77-.34-.7.16-1.26 1.11-1.18 2zm-7.79 5.01c.25-.94-.45-.12-.68-1.33.16-1.07 1.19.01 1.07.99-.35-.54-.09.74-.39.34zm-55.15.56c-.34-.55-.68-.2-1.03-1.45.49-1.48.99-1.64 1.49-1.85l.39 1.04c-.7.68-.59.4-.85 2.25zm-4.19-2.13c.57 1.68 1.27-1.08 1.15 1.8-.31-.82-1.25-.02-1.15-1.8zm-40-104.03c1.29-2.08-.84-.92.68-3.95.09 1.53-.03 1.61.39 1.87-.23.9-.78 3.21-1.07 2.09zm1.63-3.64c.07.38.09 1.08.27.79.25-.65.43-3.07.81-2.52-.05.79-.41 1.49-.28 2.34-.56.15-.96 2.95-1.51 2.98.09-1.24.09-2.52.7-3.6zm26.03 109.7c-.37.91-.75.4-1.13.21-.02-1.16.53-.77.87-2.25.44.71.01 1.34.27 2.04zm-29.17-106.2c-.08-1.18.28-2.22.4-3.35.14.75.75-1.2.76.24-.56 1.61-.58 1.37-1.16 3.11zm26.51 104.91c.62.71.44-1.54 1-.56.13.77-1.15 2.78-1 .56zm-26.75-105.34c-.33.71-.53.65-.58-.18.25-.78.44-1.33.62-1.19-.17.41-.11.9-.04 1.38zm-19.79 106.91c.32 1.2 1.24-.76 1.62.12-.77 1.64-1.99 1.56-1.62-.12zm-2.4-.01c.69.32 1.56-.29 2.06.96-.97 1.11-1.7.97-2.06-.96zm-1.33 1.34.84-1.15c.08.37.15.74.23 1.11-.6 1.24-.77.33-1.06.04zm-27.79-65.35c0-1.23.61-2.16 1.3-3.05.81-.61 1.58-.18 2.86-1.25-.02.47.06 1-.2 1.38-1.07 1.35-2.73 2.29-3.97 2.92zm-3.14-1.15c.03-.72.15-1.41.45-2 .86.02 2-.75 2.66-.18-1.1.94-1.99 1.25-3.11 2.18zm3.47 64.93c.47-1.23 1.88-2.19 2.23-1.3-1.04 1.51-1.55 1.12-2.23 1.3zm-7.98-63.42c1.59-1.23 2.67-1.5 4.06-3.94v1.47c-.91.38-3.19 4.23-4.06 2.46zm-4.98 69.77c-.42.48-.76.72-1.01.66-.25-1.8 1.4-2.78.87-4.7.6-.06 1.59-1.33 1.64.32-.91-.4-1.85 1.66-1.5 3.72zm-3.01-74.68c0-1 .7-1.64.99-2.49.07.6.64-.05.4 1.35-.55.6-.66.11-1.39 1.14zm-5.17 27.68c-.2-.54-1.28 1.56-1.7 2.13-.28-.88.38-1.3.48-1.99-.19.11-.28-.02-.24-.5.74-.05 1.16.48 1.69-1.76.31.12.1 1.3-.24 2.11zm-6.02 32.3c-.03 1.07.98-.67.83.76-.75 1.28-1.48.35-.83-.76zm-3.74-1.82c1.05-.67 2.07-1.28 2.36.03-.71-.19-2.09 1.34-2.36-.03zm-2.42-1.93c.6-.44 1.2-.91 1.06.53-.65.58-1.01.4-1.06-.53zm-2.18 6.36c.03-1.17-.1-1.24-.54-.26-.21-1.31 1.5-2.05 1.3-.85-.36.33-.56.72-.76 1.12zm-18.49-23.3c.52-1.11 1.5-1.49 1.85-1.24-.38.82-1.89 2.33-1.85 1.24z"/><path d="m347.98 180.51c-.04-.65-.44-.21-.44-.93-.48 3.4-2.72 1.34-3.73 3.16 1.62.91 2.81.4 3.97-.14 0-.45-.4-.82-.67-1.22.32-.18.42-1.06.87-.86z"/><path d="m390.33 44.93c-.73-.69-.65.88-1.1.97.5.03 1.14.46 1.1-.97z"/><path d="m370.07 58.64c.11-.6-.17-1.1-.25-1.65-.34-.28-.21.63-.25 1.1-.2-.4-.4-.81-.74-1.17.18 1.28.66 1.19 1.24 1.73z"/><path d="m406.37 99.55c.34-.51-.83-.02-1.42-1.71.07.78.47 1.48.71 2.23.88.82-.17-1.35.71-.52z"/><path d="m391.25 82.83c.05-.7-.19-1.32-.72-1.86.32.82.15 1.21-.25 1.09.07.9.66.35.98.77z"/><path d="m395.61 89.94c.24.5.25 1.08.72 1.53.08-.71-.03-1.36-.24-2-.45-.49-.17.94-.73.19.04.44.24.47.24.28z"/><path d="m360.44 50.97c-1.01-1.29.02.87.02 1.38-.05.82-.43-.95-.99-1.11.09 2-.73 1.76-1.69 1.17.14.65.38 1.27.51 1.93.14-1.12 1.14-1.77 2.42-1.02-.3-1.49.16-1.28-.27-2.34z"/><path d="m399.7 97.12c-1.28.83-2.44.6-3.11 2.87.41.55.62.14.72.84.75.43.12-.57.47-1.15.52 1.6 1.91-.17 1.92 1.22.76 1.1.35-2.17 0-3.77z"/><path d="m349.93 42.51c-.84-1.11-2.17-.54-2.61.38.82-.19 1.77-.17 2.61-.38z"/><path d="m434.13 146.02c-.43-1.14.18-.63.04-2.05-1.01-.45-.55.64-.68 1.17.1.63.27.24.64.88z"/><path d="m396.58 97.93c-.3.47-1.05-.21-.95 1.29 1 1.32.63-.86.95-1.29z"/><path d="m358.12 58.52c.12-.61-.48-1.02-.51-1.58-.5-.48-.48.36-.71.54.16.99.36-.59 1.22 1.04z"/><path d="m417 131.82c.01.34.29.61.47.91.11.93-.4.22-.19 1.41.61.34 1.28.84 1.1-.94-.69-.59-.53.27-1.37-1.38z"/><path d="m397.03 117.07c-.27 1.02-.79-.53-1.43-.3.31 1.53.37 1.53.52 2.61.19-.98 1.23-1.11.91-2.31z"/><path d="m343.04 57.44c.66 1.08-.39.69.28 1.98.63.84.15-1.1.92.1-.62-1.26-.24-2.04-1.47-3.74-.05.7-.2 1.18-.66.86.09.88.62.36.93.79z"/><path d="m340.51 56.72c-.92-.88-.54 1.62-1.82-.23.1 1.27.63.74.72 1.53.34-.48.91-.43 1.1-1.31z"/><path d="m338.76 58.87c.41.47.5 1.02.94 1.47.31-.97 1.05-.87 2.04-.17-1.14-2.58-1.41-.21-2.79-2.37.25 1.7-.52.77-1.36-.35-.47.65-.18 1.4-.38 2.49.34.25.57.21.91.45.11-.6-.45-1.03-.49-1.59.04-.22.22-.06.21-.4.37.6.23 1.32.95 1.82.26-.17.25-.53-.04-1.36z"/><path d="m419.22 168.56c-.06-.44-.24-.47-.24-.28-.33-.37-.67-.74-.72-1.18-.32-.28-.17.62-.19 1.08.49.39.74.19 1.15.39z"/><path d="m404.56 163.25c-.12-.86-2.55-1.94-2.44-.02.29.23.6-1.12.98.42.78.6.33-1.89 1.46-.4z"/><path d="m396.46 160.34c-.74-.42-1.91-2.64-1.99-.82 1.13 2.41 1.52 0 2.49 2.76.31-.78-.81-1.15-.5-1.93z"/><path d="m353.74 120.53c-.21-1.34-.65-.36-.97-.79-.07.52.38 1.38-.03 1.03-.05.24.09.44.23.63.16.19.32.38.48.57-.3-.42-.25-2.47.03-1.03.38.32-.19-.85.26-.41z"/><path d="m380.98 161.55c-.45-1.15-1.44-.5-2.05-.83-.57-1.9-2.14-2.92-2.74-3.39.71 1.76 1.75 3.43 2.68 5.13-1.11-3.18 1.01.24 1.83-.15-.26-.81-.24-1.15.29-.76z"/><path d="m374.39 156.77c-.67-1.23-1.76-.31-2.59-.69.03 1.25 1.13.3 1.23 1.74.09-.47.39-1.86 1.35-1.05z"/><path d="m377.6 161.43c.22-.95-.48-1.09-.5-.56-.43-.46-.64-.98-.73-1.53-.33-.24-.41.18-.78-.14.45.47 1.42 2.49-.04 1.05.06.56.62.98.99 1.46.07-.85.41-.94 1.05-.28z"/><path d="m370.22 161.66c.33.24.43-.18.79.14.24-.87-.65-1.43-.41-2.3-.39.23-.11 1.01-.38 2.16z"/><path d="m369.11 177.07c-.36-1.17.06-.42.13-1.4-.8-.6-.2-1.55-1.2-2.1-.03.35-.06.7-.09 1.05.56.77 1.13 1.62.16 1.34-.02.97.48 0 1.01 1.12z"/><path d="m351.64 157.23c.47.31-.22-.85-.23-.29-.3-.62-.39-1.27-.38-1.96-.55-.29-.33 2.09.34 2.65-.01-.45.09-.55.28-.4z"/><path d="m324.19 120.85c-.26-.27-.15.18-.02.34-.04 1.13-1.25-1.5-1.01.53.91 1.53.95.24 1.43.41-.03-.45-.43-.82-.4-1.28z"/><path d="m355.4 182.65c.96 1.19 1.48 1.01 1.82.28-1.21-1.64-1.66-.95-2.71-2.13.45 2.31-.87 1.29-1.26 2.32.09-.14 2.59 1.37 2.15-.46z"/><path d="m352.93 180.79c-.79-.08-.99 1.66-2.14.47 1.03 3.61-2.36-.34-2.77 1.62.16.53.62 1 .64 1.57.49-.42.55-2.17 1.84-.06.45-1.42 1.59-.7 2.45-.87-.03-.56-.57-1.01-.92-1.5.21-.68.98.38.9-1.22z"/><path d="m356.79 187.79c-1.3-3.32-4.27-2.37-4.43-.74 1.33-.06 2.66-1.96 4.43.74z"/><path d="m345.55 186.45c-.66-.28-1.26-.33-1.82-.31.41 1.3 1.47.75 1.82.31z"/><path d="m337.85 186.66c-1.25-1.12-3.3-.8-4.5-.17 1.1 1.7 1.07-.47 1.93 1.67-.59-2.34 1.22.16 1.25-1.59.78.78.29 2.35 1.08 2.16-.76-1.64-.48-2.09.24-2.07z"/><path d="m339.09 189.81c-.54-1.75-1.26-.06-1.84-.33.07 1.26.64.29 1.16 1.47.07-1.44-.17-1.76.67-1.14z"/><path d="m333.08 186.55c-1.25-.82-2.26-.87-3.13-.43 1.59 3.89 2.44 1.25 3.13.43z"/><path d="m317.64 186.6c-.48-.22-.78.23-1.42.56l.67.91c-.05-1.61.7-.23.75-1.47z"/><path d="m311.07 192.7.33-2.08c-.83-.38-.16 2.24-1.27 1.21-.07.9.65.41.94.87z"/><path d="m302.71 192.57c-.98-3.03-.43 1.76-1.91-1.41.06.44.12.88.03 1.35.95 1.38 1.22-.08 1.88.06z"/><path d="m289.7 195.27c.45.35-.12-.87-.21-.31-.41-.74-.23-1.54-.35-2.31-.49-.08-.63 1.51-1.4.15.12 3.29-1.08 1.32-1.76 1.86-.49.72.62 1.27.13 2 .61-.98 1.7.32 2.18-1.24.39.52.36 1.08.77 1.59-.24-1.05.24-1.73.63-1.74z"/><path d="m266.61 196.44c-1-1.44-1.2 1.93-2.26.15-.06.56.42 1.09.69 1.62.28-2.06 1.29.29 1.56-1.77z"/><path d="m252.11 199.62c-.18-1.26-1.99-1.26-1.89-.25.64.19 1.16-.59 1.89.25z"/><path d="m237.16 193.39c-.11.89.04 1.78 0 2.66.42.43.76 0 1.06-.68-.41-1.12-.56.06-.85 0-.33-.67.82-.73-.22-1.99z"/><path d="m184.69 200.26c.05-1.8-.92-.55-1.28-1.47-.13.21-.06.43.01.67.09.23.17.46.26.69.32-.96.68.18 1.01.11z"/><path d="m146.08 78.14c.08-.16-.28-.16-.53-.2-.27-.04-.53-.13-.76-.51-.42 1.93-1.02.82-1.5.63-.09.31-.07.66-.2.97.07.25 0 .46-.07.66.59-.56 1.12-.61 1.66-.69.27-.04.54-.08.81-.19.14-.06.28-.13.42-.24l.11-.08s.02-.07.03-.1l.04-.24z"/><path d="m98.48 206.18c-.96.64-.19 1.8-1.15 2.45.1.24.3.08.37.46l.44-.57c-.61-1 .95-1.35.34-2.34z"/><path d="m92.32 202.48c-.38-2.12-.49 2.54-1.1 1.4-.54 1.09.38 1.38.87.28-.21-.65-.17-1.22.24-1.68z"/></g></svg>