<?xml version="1.0" encoding="UTF-8"?><svg id="Calque_2" xmlns="http://www.w3.org/2000/svg" viewBox="0 0 17.34 16.76"><defs><style>.cls-1{fill:#fff;}</style></defs><g id="Calque_1-2"><path class="cls-1" d="m16.8.9C14.57-.93,1.24.08.11,3.45c-1.09,3.23,6.43,12.22,8.77,13.17,4.43,1.79,10.28-13.79,7.92-15.72Zm-8.1,14.89C6.57,14.93-.26,6.76.73,3.82,1.76.76,13.87-.15,15.9,1.5c2.14,1.75-3.18,15.91-7.2,14.29Z"/><path class="cls-1" d="m8.83,4.1c.38-.3.74-.54,1.07-.72.33-.17.72-.26,1.17-.26s.81.08,1.13.25c.32.17.59.41.81.72l-1.16.88c-.13-.18-.29-.33-.46-.43-.17-.1-.39-.15-.65-.15-.52,0-.96.18-1.32.55-.36.37-.61.81-.76,1.33l-1.35,5.05h-1.27l1.35-5.02c.03-.13.07-.27.1-.42.03-.15.06-.3.08-.44.02-.14.04-.27.05-.38,0-.11,0-.2,0-.27h-.02c-.03-.06-.05-.12-.09-.16-.03-.04-.07-.08-.11-.12-.04-.04-.09-.06-.15-.06l.34-1.27c.19,0,.36.03.5.09.14.06.26.14.37.23.11.09.19.19.25.29.06.1.11.2.14.3Z"/></g></svg>