<svg viewBox="0 0 203.33 68.77" xmlns="http://www.w3.org/2000/svg"><g fill="#221f20"><path d="m39.95 35.18v-3.73h15.69v3.73zm6.01 17.94v-21.21h3.67v21.21z"/><path d="m55.1 53.12v-12.95h3.51v12.95zm3.52-7.13-1.37-.94c.16-1.59.63-2.85 1.39-3.77.77-.92 1.88-1.38 3.32-1.38.64 0 1.21.1 1.7.31s.94.54 1.35 1.01l-2.2 2.55c-.2-.23-.43-.4-.71-.5s-.59-.15-.95-.15c-.75 0-1.36.23-1.84.7-.47.46-.71 1.19-.71 2.17z"/><path d="m71.3 53.39c-1.18 0-2.24-.29-3.18-.88s-1.68-1.39-2.21-2.41c-.54-1.02-.8-2.16-.8-3.43s.27-2.44.8-3.46c.54-1.02 1.27-1.82 2.21-2.41s2.01-.88 3.2-.88c.91 0 1.73.19 2.47.56.73.38 1.32.89 1.77 1.56.45.66.69 1.42.72 2.28v4.69c-.04.84-.27 1.6-.71 2.27s-1.03 1.19-1.77 1.57-1.58.56-2.51.56zm.67-3.24c.98 0 1.78-.33 2.39-.99s.91-1.49.91-2.49c0-.68-.14-1.29-.43-1.82-.29-.54-.67-.95-1.15-1.25-.48-.29-1.05-.44-1.72-.44s-1.21.15-1.7.46c-.49.3-.88.72-1.15 1.23-.28.52-.42 1.12-.42 1.8s.14 1.31.42 1.82c.28.52.67.93 1.17 1.23s1.06.46 1.69.46zm3.08 2.97v-3.49l.59-3.16-.59-3.14v-3.16h3.54v12.95z"/><path d="m82.32 53.12v-12.95h3.51v12.95zm8.69 0v-7.43c0-.77-.24-1.39-.72-1.88-.48-.48-1.1-.72-1.85-.72-.5 0-.95.11-1.34.32s-.7.52-.93.92c-.22.4-.34.85-.34 1.35l-1.37-.72c0-1 .22-1.88.66-2.64s1.05-1.35 1.82-1.78 1.66-.64 2.64-.64 1.82.24 2.56.71 1.33 1.09 1.76 1.85.64 1.57.64 2.43v8.23h-3.54z"/><path d="m102.54 53.42c-.75 0-1.48-.09-2.19-.28s-1.35-.46-1.94-.83-1.1-.8-1.53-1.3l2.12-2.12c.43.52.94.9 1.53 1.15s1.23.38 1.93.38c.57 0 1.01-.08 1.31-.25s.46-.41.46-.71c0-.36-.16-.63-.48-.82s-.73-.35-1.22-.5c-.49-.14-1.01-.3-1.57-.46-.55-.16-1.08-.38-1.57-.66s-.9-.67-1.22-1.17-.48-1.14-.48-1.93.21-1.54.62-2.16.99-1.09 1.74-1.42 1.64-.5 2.65-.5c1.07 0 2.04.18 2.91.55s1.59.93 2.16 1.68l-2.12 2.15c-.39-.46-.84-.81-1.33-1.03s-1.01-.34-1.57-.34-.94.08-1.21.24-.4.38-.4.67c0 .32.15.57.46.74.3.17.71.33 1.21.47s1.02.3 1.57.47c.54.17 1.06.41 1.55.71s.89.71 1.21 1.21c.31.5.47 1.14.47 1.93 0 1.27-.46 2.27-1.37 3.02s-2.15 1.11-3.7 1.11z"/><path d="m109.35 43.26v-3.08h10.35v3.08zm2.97 9.86v-14.35c0-1.02.23-1.93.68-2.73.46-.8 1.09-1.44 1.92-1.9s1.79-.7 2.9-.7c.84 0 1.56.14 2.17.42s1.16.68 1.66 1.22l-2.25 2.23c-.18-.2-.39-.35-.63-.46s-.54-.16-.9-.16c-.64 0-1.14.17-1.49.52s-.52.84-.52 1.49v14.43h-3.54z"/><path d="m128.01 53.42c-1.3 0-2.48-.3-3.53-.9s-1.87-1.41-2.48-2.44-.91-2.19-.91-3.47.3-2.41.91-3.42 1.43-1.81 2.48-2.41 2.22-.9 3.53-.9 2.51.3 3.55.89c1.05.59 1.88 1.39 2.49 2.41.62 1.02.92 2.16.92 3.43s-.3 2.42-.91 3.46-1.44 1.86-2.49 2.45c-1.05.6-2.24.9-3.57.9zm0-3.3c.66 0 1.25-.15 1.76-.46.51-.3.9-.72 1.18-1.23.28-.52.42-1.12.42-1.8s-.15-1.28-.44-1.8-.69-.92-1.18-1.22c-.49-.29-1.07-.44-1.73-.44s-1.22.15-1.72.44c-.5.3-.89.7-1.17 1.22s-.42 1.12-.42 1.8.14 1.28.42 1.8.67.93 1.17 1.23 1.07.46 1.72.46z"/><path d="m136.91 35.18v-3.73h15.69v3.73zm6.01 17.94v-21.21h3.67v21.21z"/><path d="m157.45 53.39c-1.18 0-2.24-.29-3.18-.88s-1.68-1.39-2.21-2.41c-.54-1.02-.8-2.16-.8-3.43s.27-2.44.8-3.46c.54-1.02 1.27-1.82 2.21-2.41s2.01-.88 3.2-.88c.91 0 1.73.19 2.47.56.73.38 1.32.89 1.77 1.56.45.66.69 1.42.72 2.28v4.69c-.04.84-.27 1.6-.71 2.27s-1.03 1.19-1.77 1.57-1.58.56-2.51.56zm.67-3.24c.98 0 1.78-.33 2.39-.99s.91-1.49.91-2.49c0-.68-.14-1.29-.43-1.82-.29-.54-.67-.95-1.15-1.25-.48-.29-1.06-.44-1.72-.44s-1.21.15-1.7.46-.88.72-1.15 1.23c-.28.52-.42 1.12-.42 1.8s.14 1.31.42 1.82c.28.52.67.93 1.17 1.23s1.06.46 1.69.46zm3.08 2.97v-3.49l.59-3.16-.59-3.14v-3.16h3.54v12.95z"/><path d="m167.8 53.12v-12.95h3.51v12.95zm3.51-7.13-1.37-.94c.16-1.59.63-2.85 1.39-3.77.77-.92 1.88-1.38 3.32-1.38.64 0 1.21.1 1.7.31s.94.54 1.35 1.01l-2.2 2.55c-.2-.23-.43-.4-.71-.5s-.59-.15-.95-.15c-.75 0-1.36.23-1.84.7s-.71 1.19-.71 2.17z"/><path d="m185.34 53.42c-1.3 0-2.48-.3-3.53-.9s-1.87-1.41-2.48-2.44-.91-2.19-.91-3.47.3-2.41.91-3.42 1.43-1.81 2.48-2.41 2.22-.9 3.53-.9 2.51.3 3.55.89c1.05.59 1.88 1.39 2.49 2.41.62 1.02.92 2.16.92 3.43s-.3 2.42-.91 3.46-1.44 1.86-2.49 2.45c-1.05.6-2.24.9-3.57.9zm0-3.3c.66 0 1.25-.15 1.76-.46.51-.3.9-.72 1.18-1.23.28-.52.42-1.12.42-1.8s-.15-1.28-.44-1.8-.69-.92-1.18-1.22c-.49-.29-1.07-.44-1.73-.44s-1.22.15-1.72.44c-.5.3-.89.7-1.17 1.22s-.42 1.12-.42 1.8.14 1.28.42 1.8.67.93 1.17 1.23 1.07.46 1.72.46z"/><path d="m193.76 43.26v-3.08h9.57v3.08zm3.02 9.86v-18.34h3.51v18.34z"/></g><path d="m16.54.03c-.06.02-.41.07-.76.12-5.05.77-9.39 4.42-11.01 9.29-.68 2.07-.75 2.82-.75 9.24v5.26s-.71.5-.71.5c-2.29 1.64-2.94 2.17-3.13 2.53-.39.75-.15 1.64.53 2.08l.37.23h2.07c1.89 0 2.08.02 2.13.14.03.07-.02.54-.12 1.03-.2.99-.37 1.89-.74 3.81-.14.73-.28 1.48-.32 1.69s-.13.65-.19 1-.25 1.31-.41 2.13c-.43 2.2-.68 3.52-.76 3.97-.04.22-.2 1.07-.36 1.89s-.51 2.6-.76 3.97c-.26 1.36-.52 2.74-.59 3.05-.06.3-.1.6-.06.65.07.13.45.59 1.77 2.17.64.75 1.83 2.17 2.65 3.15l1.48 1.77h22.07l2.33-2.78c1.28-1.53 2.47-2.94 2.65-3.15.43-.49.87-1.04.93-1.16.03-.05-.06-.68-.21-1.41s-.43-2.21-.63-3.29-.41-2.13-.45-2.33-.21-1.05-.36-1.89c-.16-.84-.34-1.78-.4-2.09s-.24-1.25-.4-2.09-.35-1.87-.44-2.29c-.08-.42-.2-1.07-.27-1.44-.23-1.21-.67-3.46-.93-4.86-.15-.75-.25-1.43-.22-1.5.05-.12.26-.14 2.12-.14 2.01 0 2.08 0 2.37-.18.8-.49 1.04-1.47.54-2.27-.09-.14-.91-.81-1.95-1.56l-1.8-1.32-.04-5.82c-.03-4.76-.06-5.94-.16-6.47-.4-2.15-1.13-3.97-2.24-5.59-1.59-2.32-3.9-4.16-6.45-5.14-1.67-.64-3.33-.95-5.12-.93-.63 0-1.21.02-1.28.03zm3.49 4.04c3.43.79 6.25 3.31 7.34 6.58.5 1.51.5 1.53.54 6.03.02 2.7 0 4.15-.04 4.2-.06.06-.88-.51-2.52-1.71-3.59-2.64-3.92-2.88-3.92-2.97 0-.05.12-.35.27-.66.6-1.28.6-2.45 0-3.73-.57-1.21-1.73-2.06-3.15-2.3-2.16-.38-4.37 1.14-4.81 3.31-.19.93-.08 1.8.37 2.73.15.33.26.63.24.68-.02.06-1.45 1.14-3.19 2.42-2.09 1.53-3.17 2.29-3.23 2.23-.05-.05-.06-1.52-.04-4.2.03-4.49.04-4.51.54-6.03 1.08-3.25 3.94-5.82 7.3-6.56.99-.22 1.12-.22 2.41-.2.82.02 1.38.07 1.89.18zm5.46 25.27s.17.47.26.98.22 1.17.29 1.48c.06.3.18.94.27 1.4.22 1.15.76 4 1.09 5.7.15.77.43 2.27.64 3.33.2 1.06.4 2.1.44 2.33.05.22.17.85.28 1.4.1.55.32 1.69.48 2.53.16.83.35 1.79.41 2.12.1.48.1.61.02.71-.15.19-2.19 2.62-2.62 3.13l-.36.42h-17.6l-1.43-1.7c-.79-.94-1.48-1.77-1.54-1.84-.08-.12-.08-.26.02-.73.06-.32.25-1.28.41-2.11.16-.84.38-1.97.48-2.53.23-1.18.26-1.28.68-3.53.18-.95.39-2.07.48-2.49.08-.42.25-1.27.36-1.89.12-.62.3-1.56.4-2.09s.26-1.38.36-1.89.26-1.36.36-1.89.26-1.38.37-1.89c.1-.51.22-.95.26-.98s3.47-.06 7.59-.06 7.54.03 7.59.06z" fill="#262626"/><path d="m5.91 62.52c-.23.16-.59.61-1.88 2.35-.09.12-.5.68-.92 1.25s-.8 1.14-.85 1.26c-.18.5.17 1.03.83 1.27.3.11.87.12 14.72.12 9.67 0 14.5-.02 14.7-.06.33-.07.74-.31.88-.52.15-.22.21-.59.13-.82-.04-.12-.42-.67-.84-1.24s-.83-1.13-.92-1.25c-1.28-1.74-1.64-2.19-1.88-2.35l-.28-.19h-23.4l-.28.19z" fill="#262626"/><path d="m10.03 42.24c0 4.32 1.06 8.19 2.74 10.8h10.28c1.68-2.61 2.74-6.49 2.74-10.8s-1.06-8.19-2.74-10.8h-10.28c-1.68 2.61-2.74 6.49-2.74 10.8z" fill="#e47d5c"/></svg>