<svg xmlns="http://www.w3.org/2000/svg" width="541.5" height="270.75" viewBox="0 0 541.5 270.75"><defs><style>.a,.f{fill:#742c7a;}.b,.e{opacity:0.75;}.c{fill:none;stroke:#fff;stroke-miterlimit:10;stroke-width:5px;}.d,.e,.g{fill:#fff;}.d{opacity:0.1;}.f{fill-rule:evenodd;}</style></defs><title>tarokina-pro</title><rect class="a" width="541.5" height="270.75"/><g class="b"><path class="c" d="M593.93,109.12v4.47c-1.35.63-2.68,1.34-4.07,1.89-5.79,2.34-11.56,4.74-17.43,6.88-2.72,1-3.69,2.56-3.59,5.39.19,4.95.07,9.92.06,14.89,0,4.37,0,4.36,4,6,7,2.91,14.21,5.28,21,8.63v4.47c-1.2,4.9-2.35,9.81-3.61,14.69-1.19,4.58-1.45,4.85-6.12,4.64-6.49-.29-13-.7-19.44-1.28-2.55-.23-4.13.42-5.08,2.84a92.09,92.09,0,0,1-7.09,14.49c-1.46,2.37-1.07,4.2.85,6.17,4.63,4.76,9.07,9.69,13.64,14.5,1.65,1.73,2.18,3.39.61,5.47a171.34,171.34,0,0,1-11.51,14c-1.89,2-3.5,2.16-5.85.79-5.74-3.36-11.63-6.46-17.41-9.75-2.25-1.28-4.13-1.22-6.12.57a87.38,87.38,0,0,1-12.34,9.68c-2.41,1.49-2.94,3.26-2.13,5.85,2,6.32,3.86,12.67,5.7,19,.94,3.26.63,4-2.38,5.58-4.85,2.57-9.76,5-14.85,7.12-4.1,1.7-4.61,1.55-7.2-2.11-3.68-5.22-7.42-10.39-11-15.67-1.41-2.07-3-2.83-5.46-2A113.42,113.42,0,0,1,461.55,260c-3.55.61-3.92.9-4.53,4.49-1,5.62-1.83,11.26-2.8,16.89-.36,2.1-.42,4.31-1.89,6.07H428.81a6.46,6.46,0,0,1-1.56-3.83c-1.12-6.69-2.28-13.38-3.35-20.08a3.71,3.71,0,0,0-3.57-3.46,117.67,117.67,0,0,1-15.86-3.46c-3.55-1-3.91-.94-6,2-3.9,5.47-7.84,10.91-11.68,16.42-1.46,2.1-3,2.65-5.5,1.61-5.14-2.18-10.13-4.66-15.11-7.16-3.83-1.92-4.13-2.43-2.93-6.61q2.63-9.19,5.53-18.3c.8-2.5.29-4.32-1.93-5.77a133.81,133.81,0,0,1-12.39-9.63c-2.71-2.27-3.49-2.28-6.67-.52-6,3.31-12,6.57-17.92,9.89-1.57.87-2.93,1-4.26-.43a148.29,148.29,0,0,1-12.33-15c-1.29-1.77-1.11-3.32.38-4.88,2.24-2.33,4.43-4.72,6.62-7.1q4.13-4.48,8.23-9a3.28,3.28,0,0,0,.33-4.3A155.14,155.14,0,0,1,321.41,183c-1.42-3.27-1.84-3.36-5.3-3.09-6.39.5-12.79.94-19.19,1.22-4.64.21-4.89,0-6-4.4-1.31-4.95-2.46-9.95-3.67-14.93v-4.47c1.18-.6,2.33-1.28,3.56-1.77q9.38-3.79,18.8-7.47c1.64-.64,2.67-1.54,2.66-3.43q0-9.18,0-18.36a3.26,3.26,0,0,0-2.43-3.33c-4.5-1.74-9-3.51-13.46-5.35-3.07-1.27-6.32-2.15-9.13-4v-4.47c1.43-5.35,2.34-10.83,4-16.14.73-2.37,2-3.41,4.5-3.25,6.73.46,13.47.74,20.2,1.25,3.81.28,4.11.29,5.64-3.29,2-4.65,4.3-9.14,6.68-13.6,1.82-3.44,1.88-3.78-.81-6.71q-6.39-7-12.88-13.85c-2.77-2.94-2.84-3.73-.37-7,3.35-4.44,6.83-8.76,10.58-12.87,2.12-2.34,2.82-2.55,5.56-1.05q8.76,4.77,17.49,9.62c3.19,1.77,4,1.76,6.67-.51,3.83-3.2,7.65-6.4,11.77-9.22,3.27-2.24,3.48-3,2.32-6.88-1.89-6.26-3.71-12.54-5.61-18.79-.7-2.28,0-3.81,2.12-4.87,5.31-2.61,10.52-5.39,16-7.57,3.24-1.29,3.74-1.21,5.83,1.68q6,8.27,11.82,16.63c1.38,2,2.88,2.6,5.3,1.79a93.75,93.75,0,0,1,16.08-3.61c2.35-.35,3.5-1.41,3.86-3.74,1-6.63,2.19-13.23,3.3-19.84a6.46,6.46,0,0,1,1.56-3.83h23.52c1.51,1.84,1.55,4.14,1.93,6.31q1.51,8.81,2.93,17.63a3.62,3.62,0,0,0,3.37,3.38,101,101,0,0,1,16.32,3.64c2.7.88,4.34.1,5.86-2.17,3.61-5.36,7.4-10.6,11.15-15.87,2.24-3.14,2.85-3.3,6.47-1.88,4.81,1.89,9.39,4.26,14,6.59s4.75,2.71,3.34,7.5c-1.77,6-3.6,12.05-5.4,18.07-.55,1.84-.75,3.59,1.18,4.86a133.07,133.07,0,0,1,13.19,10.22c2.69,2.3,3.54,2.25,6.69.48,5.81-3.24,11.66-6.41,17.44-9.71,2-1.13,3.41-1,5,.7A149.75,149.75,0,0,1,567.7,47.61c1.57,2.08,1,3.74-.62,5.47-4.58,4.8-9,9.74-13.64,14.49-1.93,2-2.3,3.81-.85,6.18a91.23,91.23,0,0,1,7.09,14.49c1,2.42,2.54,3.06,5.08,2.83,6.39-.58,12.79-1,19.19-1.28,4.95-.22,5.18,0,6.44,4.88S592.75,104.3,593.93,109.12ZM440.75,44.05c-50.41-.28-93.26,39.49-93.36,91.19s42.48,91.16,92.2,91.62c51.27.48,94.16-39.75,94.12-91.47S491.06,44,440.75,44.05Z"/></g><circle class="d" cx="440.82" cy="135.45" r="79.57"/><circle class="e" cx="440.82" cy="135.45" r="79.57"/><path class="f" d="M500.65,153.15c-15.81,7.65-31.68,15.17-47.41,23a35.49,35.49,0,0,1-26,2.65c-11.08-3-22.21-5.82-33.3-8.82a5.76,5.76,0,0,0-5.66,1.3c1.23.35,2.23.67,3.24.93,15,3.93,30,7.83,45,11.82a6.75,6.75,0,0,0,5-.52q27.42-13.33,54.89-26.55c2.47-1.19,4.92-2.41,7.69-3.77A3,3,0,0,0,500.65,153.15Z"/><path class="f" d="M428.59,148.73c4.75,1.51,8.55,1.2,12.83-1.43,5.85-3.58,11.69-7.05,16.21-12.44,7.45-8.88,10.56-19,8.21-30.76a3.21,3.21,0,0,0-2.55-2.76C449.14,97.23,435,93,420.87,88.88c-2.54-.74-2.54-.73-2.13,1.91a33.24,33.24,0,0,1-2.8,19.91,49.07,49.07,0,0,1-24.29,23.68c-1.4.66-2.8,1.28-4.2,1.91l.13.52c.53.17,1.06.35,1.59.5C402.32,141.08,415.54,144.6,428.59,148.73Z"/><path class="f" d="M436.7,161.22a5.91,5.91,0,0,0,4.44-.43q24.47-11.89,49-23.69L504,130.38c-.51-.35-.66-.53-.84-.57-9.81-2.6-19.63-5.16-29.43-7.8-1.47-.39-1.81.38-2.19,1.55-4,12.45-12.08,21.28-22.87,27.62-3.12,1.84-6.35,3.48-9.45,5.35a7.25,7.25,0,0,1-6.23.81c-12.31-3.62-24.68-7-37-10.73-3-.91-5.21.09-7.9,1.82l3.42.91Q414.11,155.26,436.7,161.22Z"/><path class="f" d="M498.29,142c-15,7.32-30.14,14.44-45.11,21.87a35.3,35.3,0,0,1-25.82,2.66c-9.72-2.63-19.53-4.95-29.19-7.81-3.75-1.12-6.66-.13-10,2,.67.24,1,.38,1.32.47,15.74,4.13,31.48,8.23,47.21,12.41a5.91,5.91,0,0,0,4.44-.44q27.71-13.46,55.45-26.82l7.62-3.71C501.9,141.8,500.28,141,498.29,142Z"/><path class="g" d="M142,140q0,6,0,12a10.61,10.61,0,0,0,.16,1.78,3.09,3.09,0,0,0,3.13,2.72,9.49,9.49,0,0,0,2.86-.27c.48-.12.63,0,.55.52-.49,3-1,5.91-1.45,8.87a.83.83,0,0,1-.59.75,19.78,19.78,0,0,1-11.88.72c-4.54-1.24-6.93-4.43-7.84-8.9a20.31,20.31,0,0,1-.3-4c0-3.27,0-6.55,0-9.83,0-.61-.16-.84-.81-.83-3.71,0-7.42,0-11.13,0a12.13,12.13,0,0,0-3.72.61c-4.13,1.39-4.75,5.2-3.45,8.29.93,2.22,2.88,3.1,5.08,3.51a17.1,17.1,0,0,0,8.8-.69c.26-.08.52-.24.76,0a.78.78,0,0,1,.16.88c-1.36,3.48-2.7,7-4,10.44a.86.86,0,0,1-.69.58,31.42,31.42,0,0,1-14.56-.12,14.61,14.61,0,0,1-11-13,17.59,17.59,0,0,1,1.2-9.21,16,16,0,0,1,9.13-8.37,31.05,31.05,0,0,1,11.35-2.08c4-.06,8.07,0,12.1,0,.71,0,.9-.21.88-.9a36.84,36.84,0,0,0-.26-4.93,9.73,9.73,0,0,0-.76-2.42.79.79,0,0,1,.11-.93q4.31-5.53,8.57-11.1c.35-.46.61-.46,1.06-.14a15.2,15.2,0,0,1,6.2,10.24A25.55,25.55,0,0,1,142,129C142,132.67,142,136.35,142,140Z"/><path class="g" d="M49.56,136V106.75c0-1,0-1,1.06-1H64.71c1,0,1,0,1,.94v58.82c0,.93,0,.95-.91.95H50.49c-.93,0-.93,0-.93-1Z"/><path class="g" d="M57.51,100H27.82c-1.05,0-1.05,0-1.05-1.08V88.14c0-.91.05-1,1-1H87.47c.9,0,.93,0,.93.92,0,3.66,0,7.33,0,11,0,.9,0,.92-.93.92Z"/><path class="g" d="M118.64,109.13a31.9,31.9,0,0,1,9.54,1.24,4.75,4.75,0,0,0,.46.14c.59.14.61.4.26.85-1.51,2-3,3.94-4.5,5.91-1.15,1.51-2.3,3-3.44,4.55a.68.68,0,0,1-.86.31,22.13,22.13,0,0,0-8.3-.58,53.67,53.67,0,0,0-11.18,2.1c-1.23.36-2.44.79-3.66,1.21-.47.16-.69.13-.58-.47q1-5.6,2-11.21c.09-.53.45-.7.87-.85a58.57,58.57,0,0,1,7.69-2.07A56.8,56.8,0,0,1,118.64,109.13Z"/></svg>